<svg
					width="200"
					viewBox="0 0 431 363"
					fill="none"
					xmlns="http://www.w3.org/2000/svg"
				>
					<rect
						x="350.51"
						width="18.4181"
						height="18.4181"
						rx="9.20903"
						fill="#F0C75B"
					/>
					<rect
						x="411.904"
						y="18.4181"
						width="18.4181"
						height="18.4181"
						rx="9.20904"
						fill="#F0C75B"
					/>
					<rect
						x="402.695"
						y="48.6032"
						width="18.4181"
						height="18.4181"
						rx="9.20904"
						fill="#F0C75B"
					/>
					<rect
						x="37.9148"
						y="9.20901"
						width="18.4181"
						height="18.4181"
						rx="9.20904"
						fill="#F0C75B"
					/>
					<rect
						x="0.566895"
						y="48.6032"
						width="18.4181"
						height="18.4181"
						rx="9.20904"
						fill="#F0C75B"
					/>
					<rect
						x="368.928"
						y="299.294"
						width="18.4181"
						height="18.4181"
						rx="9.20903"
						fill="#F0C75B"
					/>
					<rect
						x="344.883"
						y="334.595"
						width="18.4181"
						height="18.4181"
						rx="9.20903"
						fill="#F0C75B"
					/>
					<rect
						x="47.1238"
						y="343.804"
						width="18.4181"
						height="18.4181"
						rx="9.20904"
						fill="#F0C75B"
					/>
					<rect
						x="61.9607"
						y="27.6271"
						width="306.968"
						height="306.968"
						rx="153.484"
						fill="url(#paint0_linear_7:34)"
					/>
					<path
						fill-rule="evenodd"
						clip-rule="evenodd"
						d="M208.814 27.6271C155.417 51.651 118.238 105.318 118.238 167.668C118.238 252.435 186.955 321.152 271.722 321.152C273.944 321.152 276.154 321.105 278.352 321.012C259.155 329.649 237.861 334.454 215.445 334.454C130.678 334.454 61.9607 265.737 61.9607 180.97C61.9607 98.4251 127.123 31.0993 208.814 27.6271Z"
						fill="#802513"
					/>
					<path
						fill-rule="evenodd"
						clip-rule="evenodd"
						d="M35.751 255.55C35.7155 255.41 35.6407 254.772 36.3608 253.302C37.303 251.378 39.252 248.876 42.3703 246.109C48.5581 240.617 58.4073 234.916 70.4252 231.274L67.3094 220.992C54.0025 225.024 42.7312 231.423 35.2386 238.073C31.5169 241.376 28.4858 244.955 26.7124 248.575C24.9702 252.132 24.0401 256.671 26.3867 260.819C28.305 264.209 31.5974 266.047 34.9706 266.976C38.3258 267.9 42.2837 268.086 46.5357 267.806C55.0668 267.245 66.0405 264.71 78.573 260.643C103.724 252.482 136.254 237.785 170.285 218.532C187.192 208.966 196.84 203.513 202.199 200.49C203.841 199.563 205.078 198.866 205.997 198.35C206.066 198.321 206.137 198.292 206.173 198.276C206.331 198.206 206.459 198.139 206.472 198.133L206.473 198.132C206.512 198.112 206.546 198.094 206.567 198.082C206.611 198.059 206.656 198.034 206.696 198.013C206.778 197.967 206.888 197.906 207.026 197.829C207.305 197.673 207.732 197.433 208.348 197.086C209.582 196.39 211.598 195.252 214.764 193.461L209.474 184.11C206.823 185.609 204.983 186.649 203.735 187.353C203.733 187.354 203.732 187.354 203.73 187.355C203.601 187.408 203.502 187.455 203.465 187.472C203.278 187.561 203.076 187.673 203.06 187.682C202.884 187.778 202.584 187.945 202.131 188.198C201.216 188.711 199.6 189.62 196.92 191.132C191.555 194.159 181.902 199.615 164.994 209.181C131.396 228.19 99.5374 242.545 75.257 250.424C63.0738 254.377 53.0712 256.609 45.8299 257.086C42.1957 257.325 39.5683 257.098 37.8223 256.618C36.2291 256.179 35.8287 255.671 35.751 255.55ZM35.7616 255.581C35.761 255.581 35.7574 255.574 35.753 255.557C35.76 255.573 35.7622 255.581 35.7616 255.581Z"
						fill="#E4F3FF"
					/>
					<g clip-path="url(#clip0_7:34)">
						<path
							d="M204.975 155.549L185.425 127.628L208.908 111.186L235.211 108.531L247.355 125.875L204.975 155.549Z"
							fill="#C3DAFD"
						/>
						<path
							d="M257.876 231.1L238.325 203.178L280.704 173.505L292.869 190.877L281.357 214.659L257.876 231.1Z"
							fill="#A1B8D8"
						/>
						<path
							d="M171.207 209.182L207.913 183.48L213.062 190.833L176.356 216.536L171.207 209.182Z"
							fill="#ECC443"
						/>
						<path
							d="M173.814 212.888L210.52 187.186L213.07 190.827L176.363 216.529L173.814 212.888Z"
							fill="#E39069"
						/>
						<path
							d="M199.081 211.883L218.36 198.384L223.509 205.737L204.231 219.237L199.081 211.883Z"
							fill="#E39069"
						/>
						<path
							d="M178.207 182.062L197.484 168.563L202.633 175.917L183.356 189.415L178.207 182.062Z"
							fill="#ECC443"
						/>
						<path
							d="M248.855 199.489L212.084 146.973L199.845 148.222L189.223 164.585L224.187 214.52L243.495 210.562L248.855 199.489Z"
							fill="#2B4CA1"
						/>
						<path
							d="M229.084 174.226C226.069 176.337 206.931 189.738 206.866 189.783C208.459 192.058 223.271 213.212 224.187 214.52L243.496 210.562L247.458 200.467L229.084 174.226Z"
							fill="#213B82"
						/>
						<path
							d="M328.525 140.917C345.206 116.049 346.96 93.8812 347.708 91.158C346.02 91.195 298.36 78.0356 251.621 111.961L199.841 148.217L243.492 210.556L295.268 174.302C308.226 165.58 319.725 154.037 328.525 140.917Z"
							fill="#E4F3FF"
						/>
						<path
							d="M328.525 140.917C345.206 116.049 346.96 93.8813 347.708 91.1581C347.706 91.1581 347.701 91.1573 347.699 91.1575L221.676 179.4L243.492 210.556L295.269 174.302C308.225 165.58 319.725 154.037 328.525 140.917Z"
							fill="#C3DAFD"
						/>
						<path
							d="M263.998 149.761C253.656 134.991 266.243 114.652 284.336 117.83C302.295 120.983 307.396 144.393 292.525 154.806C283.277 161.281 270.48 159.018 263.998 149.761Z"
							fill="#84D9F3"
						/>
						<path
							d="M297.582 126.263L264.006 149.773C270.491 159.02 283.281 161.278 292.525 154.806C302.532 147.8 303.495 134.908 297.582 126.263Z"
							fill="#77B0FB"
						/>
					</g>
					<defs>
						<linearGradient
							id="paint0_linear_7:34"
							x1="351.278"
							y1="121.764"
							x2="115.936"
							y2="319.758"
							gradientUnits="userSpaceOnUse"
						>
							<stop stop-color="#C84921" />
							<stop offset="1" stop-color="#962C17" />
						</linearGradient>
						<clipPath id="clip0_7:34">
							<rect
								width="153.484"
								height="153.484"
								fill="white"
								transform="translate(196.563 64.4633) rotate(10)"
							/>
						</clipPath>
					</defs>
				</svg>