<svg xmlns="http://www.w3.org/2000/svg" xmlns:xlink="http://www.w3.org/1999/xlink" xmlns:lucid="lucid" width="891" height="872"><g transform="translate(-4278 -158)" lucid:page-tab-id="0_0"><path d="M0 0h5484.6v3840.5H0z" fill="#fff"/><path d="M4580 399.92c0-3.32 2.7-6 6-6h268c3.3 0 6 2.68 6 6v493.75c0 3.3-2.7 6-6 6h-268c-3.3 0-6-2.7-6-6z" stroke="#5e5e5e" stroke-width="3" fill-opacity="0"/><path d="M4480 266c0-3.3 2.7-6 6-6h440.5c3.3 0 6 2.7 6 6v104.67c0 3.3-2.7 6-6 6H4486c-3.3 0-6-2.7-6-6z" stroke="#000" stroke-opacity="0" stroke-width="3" fill="#fff" fill-opacity="0"/><use xlink:href="#a" transform="matrix(1,0,0,1,4485,265) translate(29.76666666666685 42.66666666666663)"/><use xlink:href="#b" transform="matrix(1,0,0,1,4485,265) translate(302.83333333333326 42.66666666666663)"/><use xlink:href="#c" transform="matrix(1,0,0,1,4485,265) translate(73.47333333333347 95.99999999999991)"/><use xlink:href="#d" transform="matrix(1,0,0,1,4485,265) translate(272.0333333333333 95.99999999999991)"/><path d="M4479.75 432.2c0 10.9-8.84 19.75-19.75 19.75-10.9 0-19.75-8.84-19.75-19.75 0-10.9 8.84-19.75 19.75-19.75 10.9 0 19.75 8.84 19.75 19.75z" stroke="#5e5e5e" stroke-width="3" fill="#fff"/><path d="M4460 451.95v49.3c0 3.32 1.44 8.27 3.2 11.07l36.8 58.13m-40-63.2l-40 63.2m0-98.75h80" stroke="#5e5e5e" stroke-width="3" fill="none"/><path d="M4420 418.45c0-3.3 2.7-6 6-6h68c3.3 0 6 2.7 6 6v168c0 3.32-2.7 6-6 6h-68c-3.3 0-6-2.68-6-6z" fill="none"/><use xlink:href="#e" transform="matrix(1,0,0,1,4340,570.452080732821) translate(95.62222222222222 17.555555555555557)"/><path d="M4748 451.25c17.67 0 32 17.9 32 40s-14.33 40-32 40h-96c-17.67 0-32-17.9-32-40s14.33-40 32-40z" stroke="#5e5e5e" stroke-width="3" fill="#fff"/><use xlink:href="#f" transform="matrix(1,0,0,1,4625,456.25) translate(8.466666666666669 41.84027777777778)"/><use xlink:href="#g" transform="matrix(1,0,0,1,4625,456.25) translate(65.6888888888889 41.84027777777778)"/><use xlink:href="#h" transform="matrix(1,0,0,1,4625,456.25) translate(82.97777777777779 41.84027777777778)"/><path d="M4768 580c17.67 0 32 17.9 32 40s-14.33 40-32 40h-96c-17.67 0-32-17.9-32-40s14.33-40 32-40z" stroke="#5e5e5e" stroke-width="3" fill="#fff"/><use xlink:href="#i" transform="matrix(1,0,0,1,4645,585) translate(23.58888888888889 41.84027777777778)"/><use xlink:href="#h" transform="matrix(1,0,0,1,4645,585) translate(67.85555555555555 41.84027777777778)"/><path d="M5039.75 549.75c0 10.9-8.84 19.75-19.75 19.75-10.9 0-19.75-8.84-19.75-19.75 0-10.9 8.84-19.75 19.75-19.75 10.9 0 19.75 8.84 19.75 19.75z" stroke="#5e5e5e" stroke-width="3" fill="#fff"/><path d="M5020 569.5v49.3c0 3.3 1.44 8.27 3.2 11.07L5060 688m-40-63.2l-40 63.2m0-98.75h80" stroke="#5e5e5e" stroke-width="3" fill="none"/><path d="M4980 536c0-3.3 2.7-6 6-6h68c3.3 0 6 2.7 6 6v168c0 3.3-2.7 6-6 6h-68c-3.3 0-6-2.7-6-6z" fill="none"/><use xlink:href="#j" transform="matrix(1,0,0,1,4900,688) translate(83.21111111111111 17.555555555555557)"/><path d="M4768 689.67c17.67 0 32 17.9 32 40s-14.33 40-32 40h-96c-17.67 0-32-17.9-32-40s14.33-40 32-40z" stroke="#5e5e5e" stroke-width="3" fill="#fff"/><use xlink:href="#k" transform="matrix(1,0,0,1,4645,694.6666666666665) translate(0.5666666666666771 30.90277777777778)"/><use xlink:href="#l" transform="matrix(1,0,0,1,4645,694.6666666666665) translate(37.92222222222222 53.125)"/><path d="M4479.75 674.75c0 10.9-8.84 19.75-19.75 19.75-10.9 0-19.75-8.84-19.75-19.75 0-10.9 8.84-19.75 19.75-19.75 10.9 0 19.75 8.84 19.75 19.75z" stroke="#5e5e5e" stroke-width="3" fill="#fff"/><path d="M4460 694.5v49.3c0 3.3 1.44 8.27 3.2 11.07L4500 813m-40-63.2l-40 63.2m0-98.75h80" stroke="#5e5e5e" stroke-width="3" fill="none"/><path d="M4420 661c0-3.3 2.7-6 6-6h68c3.3 0 6 2.7 6 6v168c0 3.3-2.7 6-6 6h-68c-3.3 0-6-2.7-6-6z" fill="none"/><use xlink:href="#m" transform="matrix(1,0,0,1,4340,813) translate(63.47777777777778 17.555555555555557)"/><path d="M4459.5 491.25h158M4459.53 491.25h-4.03" stroke="#5e5e5e" stroke-width="2" fill="none"/><path d="M4618.5 491.23l.03 1.02h-1.06v-2h1.1" fill="#5e5e5e"/><path d="M4462.5 733.63l175.28.82M4462.53 733.63l-4.03-.02" stroke="#5e5e5e" stroke-width="2" fill="none"/><path d="M4638.64 733.46l.27 2h-1.16v-2" fill="#5e5e5e"/><path d="M4802.5 620l218-1.24" stroke="#5e5e5e" stroke-width="2" fill="none"/><path d="M4802.53 621h-1.1l.07-.98-.03-1.02h1.05" fill="#5e5e5e"/><path d="M5020.48 618.76l4.03-.03" stroke="#5e5e5e" stroke-width="2" fill="none"/><defs><path fill="#333" d="M960-711V0H783v-553L616 0H414L249-553V0H116v-711h272l149 563 155-563h268" id="n"/><path fill="#333" d="M359-249c-89 3-134 7-134 80 0 45 18 67 54 67 18 0 45-13 80-38v-109zM54-156c0-173 104-171 305-182 6-73-5-106-87-106-48 0-107 18-178 54v-103c53-36 113-54 182-54 145 0 245 32 245 160V0H368v-58c-55 47-110 71-167 71-98 0-147-56-147-169" id="o"/><path fill="#333" d="M390-425c-62-19-102-5-147 52V0H81v-533h153v71c45-61 87-90 156-76v113" id="p"/><path fill="#333" d="M60-376c0-114 86-173 209-171 58 0 109 11 154 34v109c-32-30-85-45-159-45-43 0-64 18-64 53 0 18 22 34 66 47 119 36 188 67 188 191 0 114-73 171-220 171-60 0-115-16-164-49v-115c43 43 93 64 150 64 47 0 79-8 87-42 15-60-182-101-183-115-43-29-64-73-64-132" id="q"/><path fill="#333" d="M709-542c99-2 180 48 180 142V0H727v-364c0-45-22-67-67-67-23 0-52 11-89 33V0H409v-364c0-88-103-78-156-34V0H91v-533h153v55c46-43 95-64 147-64 78 0 132 24 161 72 48-48 100-72 157-72" id="r"/><path fill="#333" d="M182-756c59 0 89 25 89 76s-30 76-89 76-89-25-89-76 30-76 89-76zM98 0v-533h162V0H98" id="s"/><path fill="#333" d="M110 0v-711h162V0H110" id="t"/><path fill="#333" d="M222-222c2 98 18 133 107 133 63 0 123-16 180-49v102C444-3 377 13 307 13 136 13 51-80 51-267c0-184 66-280 242-280 209 0 233 93 236 325H222zm74-222c-63 0-75 56-74 133h147c0-49-2-78-5-89-9-29-31-44-68-44" id="u"/><g id="a"><use transform="matrix(0.05333333333333329,0,0,0.05333333333333329,0,0)" xlink:href="#n"/><use transform="matrix(0.05333333333333329,0,0,0.05333333333333329,56.95999999999995,0)" xlink:href="#o"/><use transform="matrix(0.05333333333333329,0,0,0.05333333333333329,88.15999999999993,0)" xlink:href="#p"/><use transform="matrix(0.05333333333333329,0,0,0.05333333333333329,110.18666666666657,0)" xlink:href="#q"/><use transform="matrix(0.05333333333333329,0,0,0.05333333333333329,137.06666666666655,0)" xlink:href="#r"/><use transform="matrix(0.05333333333333329,0,0,0.05333333333333329,188.79999999999984,0)" xlink:href="#s"/><use transform="matrix(0.05333333333333329,0,0,0.05333333333333329,207.73333333333315,0)" xlink:href="#t"/><use transform="matrix(0.05333333333333329,0,0,0.05333333333333329,227.09333333333313,0)" xlink:href="#u"/></g><path fill="#333" d="M347 13C175 13 76-71 76-240v-471h177v489c0 89 39 133 116 133s115-44 115-133v-489h134v471c0 169-99 253-271 253" id="v"/><path fill="#333" d="M250-358c0 155 22 260 156 260 54 0 111-18 170-53v118C530-5 473 9 406 9 156 6 72-102 72-358s84-363 334-366c55 0 107 9 156 28v116c-53-25-105-38-156-38-134 0-156 106-156 260" id="w"/><path fill="#333" d="M376-98c81 0 122-86 122-258 0-171-41-257-122-257h-98v515h98zm300-258C676-116 604 0 376 0H100v-711h293c216 5 283 124 283 355" id="x"/><g id="b"><use transform="matrix(0.05333333333333329,0,0,0.05333333333333329,0,0)" xlink:href="#v"/><use transform="matrix(0.05333333333333329,0,0,0.05333333333333329,37.54666666666664,0)" xlink:href="#w"/><use transform="matrix(0.05333333333333329,0,0,0.05333333333333329,71.73333333333328,0)" xlink:href="#x"/></g><path fill="#333" d="M429-533h173L416-347 616 0H429L297-228l-51 51V0H84v-711h162v360" id="y"/><path fill="#333" d="M273-178c-6 81 35 104 111 85V9c-44 3-73 4-86 4-152-5-187-36-187-191v-258H35v-97h76v-111l162-45v156h124v97H273v258" id="z"/><g id="c"><use transform="matrix(0.05333333333333329,0,0,0.05333333333333329,0,0)" xlink:href="#y"/><use transform="matrix(0.05333333333333329,0,0,0.05333333333333329,34.559999999999974,0)" xlink:href="#p"/><use transform="matrix(0.05333333333333329,0,0,0.05333333333333329,56.586666666666616,0)" xlink:href="#s"/><use transform="matrix(0.05333333333333329,0,0,0.05333333333333329,75.51999999999994,0)" xlink:href="#z"/><use transform="matrix(0.05333333333333329,0,0,0.05333333333333329,99.09333333333325,0)" xlink:href="#s"/><use transform="matrix(0.05333333333333329,0,0,0.05333333333333329,118.02666666666657,0)" xlink:href="#u"/><use transform="matrix(0.05333333333333329,0,0,0.05333333333333329,148.58666666666653,0)" xlink:href="#y"/></g><path fill="#333" d="M390-267c0-95-3-155-71-155-19 0-45 10-76 31v293c19 9 42 14 67 14 74 0 80-81 80-183zm171 0C561-73 508 9 323 13c-21 0-48-6-80-17v182H81v-711h153v62c54-51 104-76 151-76 143 0 176 115 176 280" id="A"/><path fill="#333" d="M238-267c0 95 2 156 71 156 19 0 44-10 75-31v-294c-19-9-41-13-66-13-74 0-80 80-80 182zm-171 0c0-195 53-275 237-280 22 0 49 6 80 18v-182h163V0H393v-62c-53 50-104 75-151 75C98 13 67-101 67-267" id="B"/><g id="d"><use transform="matrix(0.05333333333333329,0,0,0.05333333333333329,0,0)" xlink:href="#A"/><use transform="matrix(0.05333333333333329,0,0,0.05333333333333329,32.63999999999997,0)" xlink:href="#o"/><use transform="matrix(0.05333333333333329,0,0,0.05333333333333329,63.83999999999995,0)" xlink:href="#B"/></g><g id="e"><use transform="matrix(0.022222222222222223,0,0,0.022222222222222223,0,0)" xlink:href="#v"/><use transform="matrix(0.022222222222222223,0,0,0.022222222222222223,15.644444444444446,0)" xlink:href="#q"/><use transform="matrix(0.022222222222222223,0,0,0.022222222222222223,26.844444444444452,0)" xlink:href="#u"/><use transform="matrix(0.022222222222222223,0,0,0.022222222222222223,39.57777777777778,0)" xlink:href="#p"/></g><path fill="#333" d="M400-267c0-110-5-184-93-184-30 0-66 14-107 42v313c31 17 62 25 93 25 102 0 107-72 107-196zm120-9C519-93 461 9 289 9 223 9 155-7 84-38v-673h116v231c45-41 94-62 147-62 115 0 173 89 173 266" id="C"/><path fill="#333" d="M304-544c158 0 237 92 237 277S462 11 304 11C145 11 66-82 66-267s79-277 238-277zm0 471c103 0 122-75 122-194s-20-193-122-193-123 74-123 193c0 120 20 194 123 194" id="D"/><path fill="#333" d="M202-222V0H87v-711h115v370l192-192h119L329-349 532 0H398L246-266" id="E"/><g id="f"><use transform="matrix(0.022222222222222223,0,0,0.022222222222222223,0,0)" xlink:href="#C"/><use transform="matrix(0.022222222222222223,0,0,0.022222222222222223,13.066666666666666,0)" xlink:href="#D"/><use transform="matrix(0.022222222222222223,0,0,0.022222222222222223,26.311111111111114,0)" xlink:href="#D"/><use transform="matrix(0.022222222222222223,0,0,0.022222222222222223,39.55555555555556,0)" xlink:href="#E"/></g><path fill="#333" d="M278-249c-67 0-94 14-94 76 0 59 14 81 74 80 26 0 61-13 106-40v-120c-28 3-57 4-86 4zM67-173c0-123 64-160 195-160 41 0 75 1 102 4v-84c-3-27-30-40-80-40-47 0-106 16-177 49v-94c53-29 113-44 182-44 127 0 191 53 191 158V0H373v-64C319-15 266 9 213 9 116 9 67-52 67-173" id="F"/><use transform="matrix(0.022222222222222223,0,0,0.022222222222222223,0,0)" xlink:href="#F" id="g"/><path fill="#333" d="M158-533c-1-144 30-181 164-187 16 0 39 2 69 7v80c-36-7-93 0-103 13-9 11-15 40-15 87h111v84H273V0H158v-449H78v-84h80" id="G"/><path fill="#333" d="M97 0v-711h116V0H97" id="H"/><path fill="#333" d="M95-689c0-36 31-67 67-67s66 31 66 67-30 66-66 66-67-30-67-66zm8 689v-533h116V0H103" id="I"/><path fill="#333" d="M302-462c-101 0-106 66-106 182 0 109-2 160 93 160 31 0 66-15 107-44v-287c-21-7-53-11-94-11zM76-276c0-174 63-264 231-266 25 0 93 3 204 9v462c2 157-67 258-211 258-87 0-145-13-175-38V66c37 24 89 36 158 36 92 0 128-79 121-200-51 47-103 71-155 71C123-27 75-136 76-276" id="J"/><path fill="#333" d="M380-333c-6-91-1-117-87-118-35 0-70 14-104 42V0H73v-711h116v231c45-41 100-62 167-62 93 0 140 62 140 186V0H380v-333" id="K"/><path fill="#333" d="M285 9C153 3 120-40 121-182v-267H59v-84h62v-111l115-45v156h114v84H236v267c0 85 11 102 89 106 9 0 19-2 29-5v79c-28 7-51 11-69 11" id="L"/><g id="h"><use transform="matrix(0.022222222222222223,0,0,0.022222222222222223,0,0)" xlink:href="#G"/><use transform="matrix(0.022222222222222223,0,0,0.022222222222222223,10.377777777777778,0)" xlink:href="#H"/><use transform="matrix(0.022222222222222223,0,0,0.022222222222222223,17.044444444444444,0)" xlink:href="#I"/><use transform="matrix(0.022222222222222223,0,0,0.022222222222222223,23.88888888888889,0)" xlink:href="#J"/><use transform="matrix(0.022222222222222223,0,0,0.022222222222222223,37,0)" xlink:href="#K"/><use transform="matrix(0.022222222222222223,0,0,0.022222222222222223,49.6,0)" xlink:href="#L"/></g><path fill="#333" d="M196-258c0 109 5 174 93 174 31 0 66-15 107-45v-318c-21-7-53-11-94-11-105 0-106 73-106 200zm-120 0c0-186 56-281 231-284 25 0 55 5 89 15v-184h115V0H404v-62C353-15 301 9 249 9 134 9 76-80 76-258" id="M"/><g id="i"><use transform="matrix(0.022222222222222223,0,0,0.022222222222222223,0,0)" xlink:href="#F"/><use transform="matrix(0.022222222222222223,0,0,0.022222222222222223,12.355555555555556,0)" xlink:href="#M"/><use transform="matrix(0.022222222222222223,0,0,0.022222222222222223,25.844444444444445,0)" xlink:href="#M"/></g><path fill="#333" d="M407-267l-83-302-84 302h167zM210-160L165 0H27l205-711h228L665 0H480l-44-160H210" id="N"/><path fill="#333" d="M391-542c99-2 180 48 180 142V0H409v-364c0-88-103-78-156-34V0H91v-533h153v55c46-43 95-64 147-64" id="O"/><g id="j"><use transform="matrix(0.022222222222222223,0,0,0.022222222222222223,0,0)" xlink:href="#N"/><use transform="matrix(0.022222222222222223,0,0,0.022222222222222223,15.822222222222223,0)" xlink:href="#B"/><use transform="matrix(0.022222222222222223,0,0,0.022222222222222223,29.844444444444445,0)" xlink:href="#r"/><use transform="matrix(0.022222222222222223,0,0,0.022222222222222223,51.4,0)" xlink:href="#s"/><use transform="matrix(0.022222222222222223,0,0,0.022222222222222223,59.28888888888889,0)" xlink:href="#O"/></g><path fill="#333" d="M178-224c4 93 28 148 115 148 53 0 113-14 180-42v82C408-6 340 9 271 9 130 9 60-83 60-267c0-178 55-272 220-275 139-3 208 80 208 244v74H178zm195-85c0-98-11-149-93-149-89 0-98 49-102 149h195" id="P"/><path fill="#333" d="M385-333c-6-91-1-117-87-118-35 0-70 14-104 42V0H78v-533h107v60c45-46 103-69 175-69 93 0 140 62 140 186V0H385v-333" id="Q"/><path fill="#333" d="M354-440c-73-24-111-10-153 58V0H85v-533h107v75c56-68 84-93 162-78v96" id="R"/><path fill="#333" d="M368-333c-7-89 4-117-78-118-32 0-64 14-95 42V0H79v-533h107v60c58-77 241-108 280 3 33-38 107-72 173-72 87 0 131 62 131 186V0H655v-333c-7-89 4-117-78-118-31 0-64 14-97 42 9 128 2 274 4 409H368v-333" id="S"/><g id="k"><use transform="matrix(0.022222222222222223,0,0,0.022222222222222223,0,0)" xlink:href="#P"/><use transform="matrix(0.022222222222222223,0,0,0.022222222222222223,12.422222222222222,0)" xlink:href="#Q"/><use transform="matrix(0.022222222222222223,0,0,0.022222222222222223,25.333333333333336,0)" xlink:href="#L"/><use transform="matrix(0.022222222222222223,0,0,0.022222222222222223,34.28888888888889,0)" xlink:href="#P"/><use transform="matrix(0.022222222222222223,0,0,0.022222222222222223,46.711111111111116,0)" xlink:href="#R"/><use transform="matrix(0.022222222222222223,0,0,0.022222222222222223,55.24444444444445,0)" xlink:href="#L"/><use transform="matrix(0.022222222222222223,0,0,0.022222222222222223,64.2,0)" xlink:href="#F"/><use transform="matrix(0.022222222222222223,0,0,0.022222222222222223,76.55555555555556,0)" xlink:href="#I"/><use transform="matrix(0.022222222222222223,0,0,0.022222222222222223,83.4,0)" xlink:href="#Q"/><use transform="matrix(0.022222222222222223,0,0,0.022222222222222223,96.31111111111112,0)" xlink:href="#S"/><use transform="matrix(0.022222222222222223,0,0,0.022222222222222223,114.57777777777778,0)" xlink:href="#P"/><use transform="matrix(0.022222222222222223,0,0,0.022222222222222223,127,0)" xlink:href="#Q"/><use transform="matrix(0.022222222222222223,0,0,0.022222222222222223,139.9111111111111,0)" xlink:href="#L"/></g><path fill="#333" d="M443-162C443-52 367 10 254 9 191 9 131-6 76-36v-89c61 33 113 49 156 49 136 0 120-102 33-132-42-15-86-28-126-47-47-23-67-70-67-129 1-104 68-159 177-158 57 0 109 13 156 38l1 89c-40-29-88-43-143-43-58 0-87 19-87 56-15 59 199 100 198 113 46 29 69 71 69 127" id="T"/><path fill="#333" d="M178-34L17-533h122l137 422 136-422h89L341-44c-33 101-64 163-90 192-27 30-100 43-163 34v-82c53 7 106 1 106-56 0-20-5-46-16-78" id="U"/><g id="l"><use transform="matrix(0.022222222222222223,0,0,0.022222222222222223,0,0)" xlink:href="#T"/><use transform="matrix(0.022222222222222223,0,0,0.022222222222222223,11.488888888888889,0)" xlink:href="#U"/><use transform="matrix(0.022222222222222223,0,0,0.022222222222222223,23.022222222222222,0)" xlink:href="#T"/><use transform="matrix(0.022222222222222223,0,0,0.022222222222222223,34.51111111111111,0)" xlink:href="#L"/><use transform="matrix(0.022222222222222223,0,0,0.022222222222222223,43.46666666666667,0)" xlink:href="#P"/><use transform="matrix(0.022222222222222223,0,0,0.022222222222222223,55.88888888888889,0)" xlink:href="#S"/></g><path fill="#333" d="M348-396c67 1 104-41 106-108 3-101-72-117-175-109v217h69zm22-315c168 2 256 50 262 207 6 159-142 219-353 206V0H101v-711h269" id="V"/><path fill="#333" d="M238-289c0 82 7 138 71 138 19 0 44-13 75-40v-242c-11-12-36-18-75-18-47 0-71 54-71 162zm66-258c69 0 164 19 243 14v444c0 187-86 280-258 280-61 0-121-15-182-44V44c53 30 112 45 175 45 105 0 104-89 102-196-47 51-95 76-142 76-117 0-175-86-175-258 0-180 62-258 237-258" id="W"/><g id="m"><use transform="matrix(0.022222222222222223,0,0,0.022222222222222223,0,0)" xlink:href="#V"/><use transform="matrix(0.022222222222222223,0,0,0.022222222222222223,14.844444444444445,0)" xlink:href="#o"/><use transform="matrix(0.022222222222222223,0,0,0.022222222222222223,27.844444444444445,0)" xlink:href="#q"/><use transform="matrix(0.022222222222222223,0,0,0.022222222222222223,39.044444444444444,0)" xlink:href="#q"/><use transform="matrix(0.022222222222222223,0,0,0.022222222222222223,50.24444444444445,0)" xlink:href="#u"/><use transform="matrix(0.022222222222222223,0,0,0.022222222222222223,62.97777777777778,0)" xlink:href="#O"/><use transform="matrix(0.022222222222222223,0,0,0.022222222222222223,77.26666666666667,0)" xlink:href="#W"/><use transform="matrix(0.022222222222222223,0,0,0.022222222222222223,91.13333333333331,0)" xlink:href="#u"/><use transform="matrix(0.022222222222222223,0,0,0.022222222222222223,103.86666666666665,0)" xlink:href="#p"/></g></defs></g></svg>