<svg xmlns="http://www.w3.org/2000/svg" xmlns:xlink="http://www.w3.org/1999/xlink" xmlns:lucid="lucid" width="1844" height="1057"><g transform="translate(0 -1652)" lucid:page-tab-id="0_0"><path d="M0 0h5484.6v3840.5H0z" fill="#fff"/><path d="M80 1951c0-3.3 2.7-6 6-6h268c3.3 0 6 2.7 6 6v583c0 3.3-2.7 6-6 6H86c-3.3 0-6-2.7-6-6z" stroke="#5e5e5e" stroke-width="3" fill-opacity="0"/><use xlink:href="#a" transform="matrix(1,0,0,1,88,1953) translate(0 26.666666666666657)"/><path d="M680 1706c0-3.3 2.7-6 6-6h488c3.3 0 6 2.7 6 6v148c0 3.3-2.7 6-6 6H686c-3.3 0-6-2.7-6-6z" stroke="#000" stroke-opacity="0" stroke-width="3" fill="#fff" fill-opacity="0"/><use xlink:href="#b" transform="matrix(1,0,0,1,685,1705) translate(0.8333333333333144 89.54166666666666)"/><use xlink:href="#c" transform="matrix(1,0,0,1,685,1705) translate(212.61999999999998 89.54166666666666)"/><path d="M276 2157.5c18.78 0 34 19.03 34 42.5s-15.22 42.5-34 42.5H174c-18.78 0-34-19.03-34-42.5s15.22-42.5 34-42.5z" stroke="#5e5e5e" stroke-width="3" fill="#fff"/><use xlink:href="#d" transform="matrix(1,0,0,1,145,2162.5) translate(34.17777777777778 43.55902777777778)"/><path d="M143.75 2036c0-3.3 2.7-6 6-6h158c3.3 0 6 2.7 6 6v73c0 3.3-2.7 6-6 6h-158c-3.3 0-6-2.7-6-6z" fill-opacity="0"/><path d="M176.08 2030h26.34m13.16 0h26.34m13.16 0h26.34m13.16 0h13.17l3.03.82 2.15 2.15.82 3.03v12.17m0 12.16v24.34m0 12.16V2109l-.82 3.03-2.15 2.15-3.03.82h-13.17m-13.16 0h-26.34m-13.16 0h-26.34m-13.16 0h-26.34m-13.16 0h-13.17l-3.03-.82-2.15-2.15-.82-3.03v-12.17m0-12.16v-24.34m0-12.16V2036l.82-3.03 2.15-2.15 3.03-.82h13.17" stroke="#5e5e5e" stroke-width="3" fill="none"/><use xlink:href="#e" transform="matrix(1,0,0,1,148.75,2035) translate(36.15555555555555 43.55902777777778)"/><path d="M241.16 2306.16c0 11.68-9.48 21.15-21.16 21.15s-21.16-9.46-21.16-21.14c0-11.7 9.48-21.16 21.16-21.16s21.16 9.47 21.16 21.16z" stroke="#5e5e5e" stroke-width="3" fill="#fff"/><path d="M220 2327.3v53.25c0 3.3 1.43 8.28 3.2 11.08l39.3 62.62m-42.5-67.7l-42.5 67.7m0-105.78h85" stroke="#5e5e5e" stroke-width="3" fill="none"/><path d="M177.5 2291c0-3.3 2.7-6 6-6h73c3.3 0 6 2.7 6 6v179.25c0 3.3-2.7 6-6 6h-73c-3.3 0-6-2.7-6-6z" fill="none"/><use xlink:href="#f" transform="matrix(1,0,0,1,97.5,2454.25) translate(92.2 17.77777777777778)"/><path d="M1683.66 2161.16c0 11.68-9.48 21.15-21.16 21.15s-21.16-9.46-21.16-21.14c0-11.7 9.48-21.16 21.16-21.16s21.16 9.47 21.16 21.16z" stroke="#5e5e5e" stroke-width="3" fill="#fff"/><path d="M1662.5 2182.3v53.25c0 3.3 1.43 8.28 3.2 11.08l39.3 62.62m-42.5-67.7l-42.5 67.7m0-105.78h85" stroke="#5e5e5e" stroke-width="3" fill="none"/><path d="M1620 2146c0-3.3 2.7-6 6-6h73c3.3 0 6 2.7 6 6v179.25c0 3.3-2.7 6-6 6h-73c-3.3 0-6-2.7-6-6z" fill="none"/><use xlink:href="#g" transform="matrix(1,0,0,1,1540,2309.25) translate(63.44444444444444 17.77777777777778)"/><path d="M801.4 2086c0-3.3 2.67-6 6-6H1434c3.3 0 6 2.7 6 6v288c0 3.3-2.7 6-6 6H807.4c-3.33 0-6-2.7-6-6z" fill-opacity="0"/><path d="M837.23 2080h29.83m14.92 0h29.84m14.92 0h29.84m14.92 0h29.84m14.92 0h29.84m14.92 0h29.84m14.9 0h29.85m14.93 0h29.84m14.92 0h29.83m14.92 0h29.84m14.9 0h29.85m14.9 0h29.85m14.92 0h29.84m14.92 0H1434l3.03.82 2.15 2.15.82 3.03v16m0 16v32m0 16v32m0 16v32m0 16v32m0 16v32m0 16v16l-.82 3.03-2.15 2.15-3.03.82h-14.92m-14.92 0h-29.84m-14.92 0h-29.84m-14.9 0h-29.85m-14.9 0h-29.85m-14.92 0h-29.84m-14.93 0h-29.84m-14.92 0h-29.83m-14.9 0H1061m-14.92 0h-29.84m-14.92 0H971.5m-14.92 0h-29.84m-14.92 0h-29.84m-14.92 0h-29.83m-14.92 0h-14.9l-3.04-.82-2.15-2.15-.8-3.03v-16m0-16v-32m0-16v-32m0-16v-32m0-16v-32m0-16v-32m0-16v-16l.8-3.03 2.16-2.15 3.03-.82h14.9" stroke="#5e5e5e" stroke-width="3" fill="none"/><use xlink:href="#h" transform="matrix(1,0,0,1,806.3875598086129,2085) translate(1.01 290.8391409777778)"/><use xlink:href="#i" transform="matrix(1,0,0,1,806.3875598086129,2085) translate(114.78777777777778 290.8391409777778)"/><path d="M1006 2190c18.78 0 34 19.03 34 42.5s-15.22 42.5-34 42.5H904c-18.78 0-34-19.03-34-42.5s15.22-42.5 34-42.5z" stroke="#5e5e5e" stroke-width="3" fill="#fff"/><use xlink:href="#j" transform="matrix(1,0,0,1,875,2195) translate(28.36055555555555 22.46527777777778)"/><use xlink:href="#k" transform="matrix(1,0,0,1,875,2195) translate(29.55555555555555 44.6875)"/><use xlink:href="#l" transform="matrix(1,0,0,1,875,2195) translate(40.027222222222214 66.90972222222223)"/><path d="M1356 2190c18.78 0 34 17.9 34 40s-15.22 40-34 40h-102c-18.78 0-34-17.9-34-40s15.22-40 34-40z" stroke="#5e5e5e" stroke-width="3" fill="#fff"/><use xlink:href="#m" transform="matrix(1,0,0,1,1225,2195) translate(33.03833333333333 30.90277777777778)"/><use xlink:href="#l" transform="matrix(1,0,0,1,1225,2195) translate(40.027222222222214 53.125)"/><path d="M1474.84 2231H1410v-2h64.84m185.16-3.58h-57.93v-2H1660" fill="#5e5e5e"/><path d="M1664 2225.42h-4.03v-2h4.03M1409 2234.64l-14.26-4.64 14.26-4.64z" fill="#5e5e5e"/><path d="M1410 2236l-18.5-6 18.5-6m-12.03 6l10.03 3.26v-6.52" fill="#5e5e5e"/><use xlink:href="#n" transform="matrix(1,0,0,1,1474.835883741358,2215.5264582663553) translate(0 14.222222222222223)"/><use xlink:href="#o" transform="matrix(1,0,0,1,1474.835883741358,2215.5264582663553) translate(84.64000000000001 14.222222222222223)"/><path d="M676 2190c18.78 0 34 19.03 34 42.5s-15.22 42.5-34 42.5H574c-18.78 0-34-19.03-34-42.5s15.22-42.5 34-42.5z" stroke="#5e5e5e" stroke-width="3" fill="#fff"/><use xlink:href="#j" transform="matrix(1,0,0,1,545,2195) translate(28.355555555555554 34.18402777777778)"/><use xlink:href="#p" transform="matrix(1,0,0,1,545,2195) translate(26.138333333333332 56.40625)"/><path d="M734.77 2233.5H712.5v-2h22.27" fill="#5e5e5e"/><path d="M712.53 2233.5h-1.1l.07-.97-.02-1.03h1.05M865.26 2232.5l-3.25 1.06v-2.12z" fill="#5e5e5e"/><path d="M868.5 2232.5l-6.5 2.1v-2.1h.03-.02v-2.1" fill="#5e5e5e"/><use xlink:href="#n" transform="matrix(1,0,0,1,734.7742112456449,2223.6111111111113) translate(0 14.222222222222223)"/><use xlink:href="#o" transform="matrix(1,0,0,1,734.7742112456449,2223.6111111111113) translate(84.64000000000001 14.222222222222223)"/><path d="M558.66 2341.16c0 11.68-9.48 21.15-21.16 21.15s-21.16-9.46-21.16-21.14c0-11.7 9.48-21.16 21.16-21.16s21.16 9.47 21.16 21.16z" stroke="#5e5e5e" stroke-width="3" fill="#fff"/><path d="M537.5 2362.3v53.25c0 3.3 1.43 8.28 3.2 11.08l39.3 62.62m-42.5-67.7l-42.5 67.7m0-105.78h85" stroke="#5e5e5e" stroke-width="3" fill="none"/><path d="M495 2326c0-3.3 2.7-6 6-6h73c3.3 0 6 2.7 6 6v179.25c0 3.3-2.7 6-6 6h-73c-3.3 0-6-2.7-6-6z" fill="none"/><use xlink:href="#q" transform="matrix(1,0,0,1,415,2489.25) translate(60.37777777777778 17.77777777777778)"/><path d="M543.66 1961.16c0 11.68-9.48 21.15-21.16 21.15s-21.16-9.46-21.16-21.14c0-11.7 9.48-21.16 21.16-21.16s21.16 9.47 21.16 21.16z" stroke="#5e5e5e" stroke-width="3" fill="#fff"/><path d="M522.5 1982.3v53.25c0 3.3 1.43 8.28 3.2 11.08l39.3 62.62m-42.5-67.7l-42.5 67.7m0-105.78h85" stroke="#5e5e5e" stroke-width="3" fill="none"/><path d="M480 1946c0-3.3 2.7-6 6-6h73c3.3 0 6 2.7 6 6v179.25c0 3.3-2.7 6-6 6h-73c-3.3 0-6-2.7-6-6z" fill="none"/><use xlink:href="#r" transform="matrix(1,0,0,1,400,2109.25) translate(94.3111111111111 17.77777777777778)"/><path d="M629.08 2170h-2v-24.33h2m-3.45-121.33l2.53 2.53.92 3.4v97.62h-2v-97.35l-.7-2.64-1.8-1.77-2.63-.7H525v-2h97.22" fill="#5e5e5e"/><path d="M525.03 2025.42H521v-2h4.03M628.08 2185.26l-4.63-14.26h9.27z" fill="#5e5e5e"/><path d="M628.08 2188.5l-6-18.5h12.02m-9.27 2l3.25 10.03 3.26-10.03" fill="#5e5e5e"/><use xlink:href="#n" transform="matrix(1,0,0,1,564.4668750671921,2127.8920771671246) translate(0 14.222222222222223)"/><use xlink:href="#o" transform="matrix(1,0,0,1,564.4668750671921,2127.8920771671246) translate(84.64000000000001 14.222222222222223)"/><path d="M626 2398.55l-.92 3.4-2.53 2.54-3.42.92H540v-2h78.87l2.64-.72 1.8-1.77.7-2.65v-78.32h2m0-17.78h-2V2295h2" fill="#5e5e5e"/><path d="M540.03 2405.42H536v-2h4.03M629.64 2294h-9.28l4.64-14.26z" fill="#5e5e5e"/><path d="M631 2295h-12l6-18.5m-3.26 16.5h6.52l-3.26-10.03" fill="#5e5e5e"/><use xlink:href="#n" transform="matrix(1,0,0,1,561.3822222222223,2302.1832708767315) translate(0 14.222222222222223)"/><use xlink:href="#o" transform="matrix(1,0,0,1,561.3822222222223,2302.1832708767315) translate(84.64000000000001 14.222222222222223)"/><path d="M1523.66 1901.16c0 11.68-9.48 21.15-21.16 21.15s-21.16-9.46-21.16-21.14c0-11.7 9.48-21.16 21.16-21.16s21.16 9.47 21.16 21.16z" stroke="#5e5e5e" stroke-width="3" fill="#fff"/><path d="M1502.5 1922.3v53.25c0 3.3 1.43 8.28 3.2 11.08l39.3 62.62m-42.5-67.7l-42.5 67.7m0-105.78h85" stroke="#5e5e5e" stroke-width="3" fill="none"/><path d="M1460 1886c0-3.3 2.7-6 6-6h73c3.3 0 6 2.7 6 6v179.25c0 3.3-2.7 6-6 6h-73c-3.3 0-6-2.7-6-6z" fill="none"/><use xlink:href="#s" transform="matrix(1,0,0,1,1380,2049.25) translate(89.04444444444444 17.77777777777778)"/><path d="M1306 2170h-2v-185.5h2m153-7.88h-40.2v-2h40.2" fill="#5e5e5e"/><path d="M1463 1976.63h-4.03v-2h4.03M1305 2185.26l-4.64-14.26h9.28z" fill="#5e5e5e"/><path d="M1305 2188.5l-6-18.5h12m-9.26 2l3.26 10.03 3.26-10.03" fill="#5e5e5e"/><use xlink:href="#t" transform="matrix(1,0,0,1,1257.9956860173045,1966.736111111111) translate(0 14.222222222222223)"/><use xlink:href="#u" transform="matrix(1,0,0,1,1257.9956860173045,1966.736111111111) translate(73.08444444444444 14.222222222222223)"/><path d="M1100.82 2231h-40.88v-2h40.88m116.68 2h-3.38v-2h3.38" fill="#5e5e5e"/><path d="M1218.5 2229.98l.03 1.02h-1.06v-2h1.1M1058.94 2234.64l-14.27-4.64 14.27-4.64z" fill="#5e5e5e"/><path d="M1059.94 2236l-18.5-6 18.5-6m-12.03 6l10.04 3.26v-6.52" fill="#5e5e5e"/><g><use xlink:href="#v" transform="matrix(1,0,0,1,1100.8207595185459,2221.1111111111113) translate(0 14.222222222222223)"/><use xlink:href="#w" transform="matrix(1,0,0,1,1100.8207595185459,2221.1111111111113) translate(73.42222222222222 14.222222222222223)"/></g><path d="M1139.75 2459.75c0 10.9-8.84 19.75-19.75 19.75-10.9 0-19.75-8.84-19.75-19.75 0-10.9 8.84-19.75 19.75-19.75 10.9 0 19.75 8.84 19.75 19.75z" stroke="#5e5e5e" stroke-width="3" fill="#fff"/><path d="M1120 2479.5v49.3c0 3.3 1.44 8.27 3.2 11.07L1160 2598m-40-63.2l-40 63.2m0-98.75h80" stroke="#5e5e5e" stroke-width="3" fill="none"/><path d="M1080 2446c0-3.3 2.7-6 6-6h68c3.3 0 6 2.7 6 6v168c0 3.3-2.7 6-6 6h-68c-3.3 0-6-2.7-6-6z" fill="none"/><g><use xlink:href="#h" transform="matrix(1,0,0,1,1000,2598) translate(0 17.77777777777778)"/><use xlink:href="#x" transform="matrix(1,0,0,1,1000,2598) translate(113.77777777777777 17.77777777777778)"/></g><path d="M1211.74 2531h-89.04v-2h89.04m89.26-7.9h-2V2290h2" fill="#5e5e5e"/><path d="M1122.73 2531h-4.03v-2h4.03M1304.64 2289h-9.28l4.64-14.26z" fill="#5e5e5e"/><path d="M1306 2290h-12l6-18.5m-3.26 16.5h6.52l-3.26-10.03" fill="#5e5e5e"/><g><use xlink:href="#t" transform="matrix(1,0,0,1,1211.7399597870963,2521.1111111111113) translate(0 14.222222222222223)"/><use xlink:href="#y" transform="matrix(1,0,0,1,1211.7399597870963,2521.1111111111113) translate(73.08444444444444 14.222222222222223)"/></g><defs><path fill="#333" d="M96-711h178v604h231V0H96v-711" id="z"/><path fill="#333" d="M519 0H101v-711h413v107H279v191h200v106H279v200h240V0" id="A"/><path fill="#333" d="M237-356c0 156 21 263 155 263 21 0 47-7 78-20v-185h-67v-89h245v338C548-8 463 13 392 13 140 11 59-98 59-356s82-368 333-368c86 0 152 11 197 32v115c-65-27-131-41-197-41-134 0-155 106-155 262" id="B"/><path fill="#333" d="M92-711h256l205 535v-535h134V0H431L226-536V0H92v-711" id="C"/><path fill="#333" d="M376-98c81 0 122-86 122-258 0-171-41-257-122-257h-98v515h98zm300-258C676-116 604 0 376 0H100v-711h293c216 5 283 124 283 355" id="D"/><g id="a"><use transform="matrix(0.03333333333333332,0,0,0.03333333333333332,0,0)" xlink:href="#z"/><use transform="matrix(0.03333333333333332,0,0,0.03333333333333332,17.799999999999994,0)" xlink:href="#A"/><use transform="matrix(0.03333333333333332,0,0,0.03333333333333332,36.466666666666654,0)" xlink:href="#B"/><use transform="matrix(0.03333333333333332,0,0,0.03333333333333332,59.89999999999998,0)" xlink:href="#A"/><use transform="matrix(0.03333333333333332,0,0,0.03333333333333332,78.56666666666663,0)" xlink:href="#C"/><use transform="matrix(0.03333333333333332,0,0,0.03333333333333332,104.33333333333329,0)" xlink:href="#D"/></g><path fill="#333" d="M218-356c0 169 29 274 178 274 60 0 120-22 180-67v107C513-8 453 9 396 9 168 6 93-118 93-356c0-239 76-360 303-364 61 0 118 16 171 49v111c-47-46-104-69-171-69-149 0-178 104-178 273" id="E"/><path fill="#333" d="M304-544c158 0 237 92 237 277S462 11 304 11C145 11 66-82 66-267s79-277 238-277zm0 471c103 0 122-75 122-194s-20-193-122-193-123 74-123 193c0 120 20 194 123 194" id="F"/><path fill="#333" d="M385-333c-6-91-1-117-87-118-35 0-70 14-104 42V0H78v-533h107v60c45-46 103-69 175-69 93 0 140 62 140 186V0H385v-333" id="G"/><path fill="#333" d="M285 9C153 3 120-40 121-182v-267H59v-84h62v-111l115-45v156h114v84H236v267c0 85 11 102 89 106 9 0 19-2 29-5v79c-28 7-51 11-69 11" id="H"/><path fill="#333" d="M178-224c4 93 28 148 115 148 53 0 113-14 180-42v82C408-6 340 9 271 9 130 9 60-83 60-267c0-178 55-272 220-275 139-3 208 80 208 244v74H178zm195-85c0-98-11-149-93-149-89 0-98 49-102 149h195" id="I"/><path fill="#333" d="M255-196L142 0H45l161-280L60-533h132l98 169 98-169h97L339-280 501 0H368" id="J"/><g id="b"><use transform="matrix(0.05333333333333333,0,0,0.05333333333333333,0,0)" xlink:href="#E"/><use transform="matrix(0.05333333333333333,0,0,0.05333333333333333,35.46666666666666,0)" xlink:href="#F"/><use transform="matrix(0.05333333333333333,0,0,0.05333333333333333,67.25333333333333,0)" xlink:href="#G"/><use transform="matrix(0.05333333333333333,0,0,0.05333333333333333,98.24,0)" xlink:href="#H"/><use transform="matrix(0.05333333333333333,0,0,0.05333333333333333,119.73333333333332,0)" xlink:href="#I"/><use transform="matrix(0.05333333333333333,0,0,0.05333333333333333,149.54666666666665,0)" xlink:href="#J"/><use transform="matrix(0.05333333333333333,0,0,0.05333333333333333,178.45333333333332,0)" xlink:href="#H"/></g><path fill="#333" d="M196-258c0 109 5 174 93 174 31 0 66-15 107-45v-318c-21-7-53-11-94-11-105 0-106 73-106 200zm-120 0c0-186 56-281 231-284 25 0 55 5 89 15v-184h115V0H404v-62C353-15 301 9 249 9 134 9 76-80 76-258" id="K"/><path fill="#333" d="M95-689c0-36 31-67 67-67s66 31 66 67-30 66-66 66-67-30-67-66zm8 689v-533h116V0H103" id="L"/><path fill="#333" d="M278-249c-67 0-94 14-94 76 0 59 14 81 74 80 26 0 61-13 106-40v-120c-28 3-57 4-86 4zM67-173c0-123 64-160 195-160 41 0 75 1 102 4v-84c-3-27-30-40-80-40-47 0-106 16-177 49v-94c53-29 113-44 182-44 127 0 191 53 191 158V0H373v-64C319-15 266 9 213 9 116 9 67-52 67-173" id="M"/><path fill="#333" d="M302-462c-101 0-106 66-106 182 0 109-2 160 93 160 31 0 66-15 107-44v-287c-21-7-53-11-94-11zM76-276c0-174 63-264 231-266 25 0 93 3 204 9v462c2 157-67 258-211 258-87 0-145-13-175-38V66c37 24 89 36 158 36 92 0 128-79 121-200-51 47-103 71-155 71C123-27 75-136 76-276" id="N"/><path fill="#333" d="M354-440c-73-24-111-10-153 58V0H85v-533h107v75c56-68 84-93 162-78v96" id="O"/><path fill="#333" d="M368-333c-7-89 4-117-78-118-32 0-64 14-95 42V0H79v-533h107v60c58-77 241-108 280 3 33-38 107-72 173-72 87 0 131 62 131 186V0H655v-333c-7-89 4-117-78-118-31 0-64 14-97 42 9 128 2 274 4 409H368v-333" id="P"/><g id="c"><use transform="matrix(0.05333333333333333,0,0,0.05333333333333333,0,0)" xlink:href="#K"/><use transform="matrix(0.05333333333333333,0,0,0.05333333333333333,32.37333333333333,0)" xlink:href="#L"/><use transform="matrix(0.05333333333333333,0,0,0.05333333333333333,48.8,0)" xlink:href="#M"/><use transform="matrix(0.05333333333333333,0,0,0.05333333333333333,78.45333333333333,0)" xlink:href="#N"/><use transform="matrix(0.05333333333333333,0,0,0.05333333333333333,109.91999999999999,0)" xlink:href="#O"/><use transform="matrix(0.05333333333333333,0,0,0.05333333333333333,130.4,0)" xlink:href="#M"/><use transform="matrix(0.05333333333333333,0,0,0.05333333333333333,160.05333333333334,0)" xlink:href="#P"/><use transform="matrix(0.05333333333333333,0,0,0.05333333333333333,203.89333333333335,0)" xlink:href="#P"/><use transform="matrix(0.05333333333333333,0,0,0.05333333333333333,247.73333333333338,0)" xlink:href="#I"/></g><path fill="#333" d="M110 0v-711h162V0H110" id="Q"/><path fill="#333" d="M222-222c2 98 18 133 107 133 63 0 123-16 180-49v102C444-3 377 13 307 13 136 13 51-80 51-267c0-184 66-280 242-280 209 0 233 93 236 325H222zm74-222c-63 0-75 56-74 133h147c0-49-2-78-5-89-9-29-31-44-68-44" id="R"/><path fill="#333" d="M709-542c99-2 180 48 180 142V0H727v-364c0-45-22-67-67-67-23 0-52 11-89 33V0H409v-364c0-88-103-78-156-34V0H91v-533h153v55c46-43 95-64 147-64 78 0 132 24 161 72 48-48 100-72 157-72" id="S"/><path fill="#333" d="M391-542c99-2 180 48 180 142V0H409v-364c0-88-103-78-156-34V0H91v-533h153v55c46-43 95-64 147-64" id="T"/><path fill="#333" d="M273-178c-6 81 35 104 111 85V9c-44 3-73 4-86 4-152-5-187-36-187-191v-258H35v-97h76v-111l162-45v156h124v97H273v258" id="U"/><g id="d"><use transform="matrix(0.022222222222222223,0,0,0.022222222222222223,0,0)" xlink:href="#A"/><use transform="matrix(0.022222222222222223,0,0,0.022222222222222223,12.444444444444445,0)" xlink:href="#Q"/><use transform="matrix(0.022222222222222223,0,0,0.022222222222222223,20.511111111111113,0)" xlink:href="#R"/><use transform="matrix(0.022222222222222223,0,0,0.022222222222222223,33.24444444444445,0)" xlink:href="#S"/><use transform="matrix(0.022222222222222223,0,0,0.022222222222222223,54.800000000000004,0)" xlink:href="#R"/><use transform="matrix(0.022222222222222223,0,0,0.022222222222222223,67.53333333333333,0)" xlink:href="#T"/><use transform="matrix(0.022222222222222223,0,0,0.022222222222222223,81.82222222222222,0)" xlink:href="#U"/></g><path fill="#333" d="M250-358c0 155 22 260 156 260 54 0 111-18 170-53v118C530-5 473 9 406 9 156 6 72-102 72-358s84-363 334-366c55 0 107 9 156 28v116c-53-25-105-38-156-38-134 0-156 106-156 260" id="V"/><path fill="#333" d="M316-547c179 0 268 93 268 280S495 13 316 13 47-80 47-267s90-280 269-280zm0 458c93 0 106-65 106-178 0-112-12-177-106-177s-107 65-107 177c0 114 13 178 107 178" id="W"/><path fill="#333" d="M308-404l74-129h142L378-282 541 0H354l-91-158L172 0H30l162-280L45-533h189" id="X"/><g id="e"><use transform="matrix(0.022222222222222223,0,0,0.022222222222222223,0,0)" xlink:href="#V"/><use transform="matrix(0.022222222222222223,0,0,0.022222222222222223,14.244444444444445,0)" xlink:href="#W"/><use transform="matrix(0.022222222222222223,0,0,0.022222222222222223,28.333333333333336,0)" xlink:href="#T"/><use transform="matrix(0.022222222222222223,0,0,0.022222222222222223,42.62222222222223,0)" xlink:href="#U"/><use transform="matrix(0.022222222222222223,0,0,0.022222222222222223,52.44444444444445,0)" xlink:href="#R"/><use transform="matrix(0.022222222222222223,0,0,0.022222222222222223,65.17777777777778,0)" xlink:href="#X"/><use transform="matrix(0.022222222222222223,0,0,0.022222222222222223,77.86666666666667,0)" xlink:href="#U"/></g><path fill="#333" d="M407-267l-83-302-84 302h167zM210-160L165 0H27l205-711h228L665 0H480l-44-160H210" id="Y"/><path fill="#333" d="M211-267c0 109 10 183 98 183 51 0 102-18 153-54v102c-43 33-94 49-153 49C136 14 49-91 49-267c0-175 87-281 260-280 57 0 105 15 144 45v102c-54-33-102-49-144-49-87 0-99 73-98 182" id="Z"/><path fill="#333" d="M390-425c-62-19-102-5-147 52V0H81v-533h153v71c45-61 87-90 156-76v113" id="aa"/><g id="f"><use transform="matrix(0.022222222222222223,0,0,0.022222222222222223,0,0)" xlink:href="#Y"/><use transform="matrix(0.022222222222222223,0,0,0.022222222222222223,15.822222222222223,0)" xlink:href="#Z"/><use transform="matrix(0.022222222222222223,0,0,0.022222222222222223,27.511111111111113,0)" xlink:href="#U"/><use transform="matrix(0.022222222222222223,0,0,0.022222222222222223,37.333333333333336,0)" xlink:href="#W"/><use transform="matrix(0.022222222222222223,0,0,0.022222222222222223,51.422222222222224,0)" xlink:href="#aa"/></g><path fill="#333" d="M256 9C157 11 76-39 76-133v-400h162v364c0 89 103 78 155 33v-397h163V0H402v-56C357-13 308 9 256 9" id="ab"/><path fill="#333" d="M60-376c0-114 86-173 209-171 58 0 109 11 154 34v109c-32-30-85-45-159-45-43 0-64 18-64 53 0 18 22 34 66 47 119 36 188 67 188 191 0 114-73 171-220 171-60 0-115-16-164-49v-115c43 43 93 64 150 64 47 0 79-8 87-42 15-60-182-101-183-115-43-29-64-73-64-132" id="ac"/><g id="g"><use transform="matrix(0.022222222222222223,0,0,0.022222222222222223,0,0)" xlink:href="#V"/><use transform="matrix(0.022222222222222223,0,0,0.022222222222222223,14.244444444444445,0)" xlink:href="#ab"/><use transform="matrix(0.022222222222222223,0,0,0.022222222222222223,28.333333333333336,0)" xlink:href="#ac"/><use transform="matrix(0.022222222222222223,0,0,0.022222222222222223,39.53333333333334,0)" xlink:href="#U"/><use transform="matrix(0.022222222222222223,0,0,0.022222222222222223,49.355555555555554,0)" xlink:href="#W"/><use transform="matrix(0.022222222222222223,0,0,0.022222222222222223,63.44444444444445,0)" xlink:href="#S"/><use transform="matrix(0.022222222222222223,0,0,0.022222222222222223,85,0)" xlink:href="#R"/><use transform="matrix(0.022222222222222223,0,0,0.022222222222222223,97.73333333333333,0)" xlink:href="#aa"/><use transform="matrix(0.022222222222222223,0,0,0.022222222222222223,106.91111111111111,0)" xlink:href="#ac"/></g><path fill="#333" d="M960-711V0H783v-553L616 0H414L249-553V0H116v-711h272l149 563 155-563h268" id="ad"/><path fill="#333" d="M359-249c-89 3-134 7-134 80 0 45 18 67 54 67 18 0 45-13 80-38v-109zM54-156c0-173 104-171 305-182 6-73-5-106-87-106-48 0-107 18-178 54v-103c53-36 113-54 182-54 145 0 245 32 245 160V0H368v-58c-55 47-110 71-167 71-98 0-147-56-147-169" id="ae"/><path fill="#333" d="M182-756c59 0 89 25 89 76s-30 76-89 76-89-25-89-76 30-76 89-76zM98 0v-533h162V0H98" id="af"/><g id="h"><use transform="matrix(0.022222222222222223,0,0,0.022222222222222223,0,0)" xlink:href="#ad"/><use transform="matrix(0.022222222222222223,0,0,0.022222222222222223,23.733333333333334,0)" xlink:href="#ae"/><use transform="matrix(0.022222222222222223,0,0,0.022222222222222223,36.733333333333334,0)" xlink:href="#aa"/><use transform="matrix(0.022222222222222223,0,0,0.022222222222222223,45.91111111111111,0)" xlink:href="#ac"/><use transform="matrix(0.022222222222222223,0,0,0.022222222222222223,57.111111111111114,0)" xlink:href="#S"/><use transform="matrix(0.022222222222222223,0,0,0.022222222222222223,78.66666666666667,0)" xlink:href="#af"/><use transform="matrix(0.022222222222222223,0,0,0.022222222222222223,86.55555555555556,0)" xlink:href="#Q"/><use transform="matrix(0.022222222222222223,0,0,0.022222222222222223,94.62222222222222,0)" xlink:href="#R"/></g><path fill="#333" d="M390-267c0-95-3-155-71-155-19 0-45 10-76 31v293c19 9 42 14 67 14 74 0 80-81 80-183zm171 0C561-73 508 9 323 13c-21 0-48-6-80-17v182H81v-711h153v62c54-51 104-76 151-76 143 0 176 115 176 280" id="ag"/><path fill="#333" d="M327-194L210-533H39L207-44c28 78 0 136-98 133v98c202-7 228-28 282-187l182-533H444" id="ah"/><g id="i"><use transform="matrix(0.022222222222222223,0,0,0.022222222222222223,0,0)" xlink:href="#Z"/><use transform="matrix(0.022222222222222223,0,0,0.022222222222222223,11.68888888888889,0)" xlink:href="#W"/><use transform="matrix(0.022222222222222223,0,0,0.022222222222222223,25.77777777777778,0)" xlink:href="#S"/><use transform="matrix(0.022222222222222223,0,0,0.022222222222222223,47.333333333333336,0)" xlink:href="#ag"/><use transform="matrix(0.022222222222222223,0,0,0.022222222222222223,60.93333333333334,0)" xlink:href="#ae"/><use transform="matrix(0.022222222222222223,0,0,0.022222222222222223,73.93333333333334,0)" xlink:href="#T"/><use transform="matrix(0.022222222222222223,0,0,0.022222222222222223,88.22222222222223,0)" xlink:href="#ah"/></g><path fill="#333" d="M66-356c0-241 79-368 311-368s311 127 311 368c0 242-79 369-311 369S66-114 66-356zm414 201c34-69 34-332 0-401-39-79-167-79-206 0-34 69-34 332 0 401 39 79 167 79 206 0" id="ai"/><path fill="#333" d="M280-231H84v-71h196v71" id="aj"/><path fill="#333" d="M303-84c96 0 89-62 89-183 0-49-1-81-4-97-13-90-91-69-143-27v302c11 3 31 5 58 5zm260-183c0 195-79 278-273 280-73 0-142-16-207-49v-675h162v231c48-45 93-67 134-67 150 0 184 110 184 280" id="ak"/><path fill="#333" d="M238-267c0 95 2 156 71 156 19 0 44-10 75-31v-294c-19-9-41-13-66-13-74 0-80 80-80 182zm-171 0c0-195 53-275 237-280 22 0 49 6 80 18v-182h163V0H393v-62c-53 50-104 75-151 75C98 13 67-101 67-267" id="al"/><g id="j"><use transform="matrix(0.022222222222222223,0,0,0.022222222222222223,0,0)" xlink:href="#ai"/><use transform="matrix(0.022222222222222223,0,0,0.022222222222222223,16.57777777777778,0)" xlink:href="#T"/><use transform="matrix(0.022222222222222223,0,0,0.022222222222222223,30.866666666666667,0)" xlink:href="#aj"/><use transform="matrix(0.022222222222222223,0,0,0.022222222222222223,39.08888888888889,0)" xlink:href="#ak"/><use transform="matrix(0.022222222222222223,0,0,0.022222222222222223,53,0)" xlink:href="#W"/><use transform="matrix(0.022222222222222223,0,0,0.022222222222222223,67.08888888888889,0)" xlink:href="#ae"/><use transform="matrix(0.022222222222222223,0,0,0.022222222222222223,80.08888888888889,0)" xlink:href="#aa"/><use transform="matrix(0.022222222222222223,0,0,0.022222222222222223,89.26666666666667,0)" xlink:href="#al"/></g><path fill="#333" d="M130-533c2-153 79-185 240-191 12 0 28 1 49 4v96c-47-6-100-6-116 25-7 13-11 35-11 66h98v97h-98V0H130v-436H55v-97h75" id="am"/><path fill="#333" d="M420-533h158l114 403 103-403h127L779 0H580L479-347 378 0H180L37-533h168l103 403" id="an"/><g id="k"><use transform="matrix(0.022222222222222223,0,0,0.022222222222222223,0,0)" xlink:href="#ac"/><use transform="matrix(0.022222222222222223,0,0,0.022222222222222223,11.200000000000001,0)" xlink:href="#W"/><use transform="matrix(0.022222222222222223,0,0,0.022222222222222223,25.28888888888889,0)" xlink:href="#am"/><use transform="matrix(0.022222222222222223,0,0,0.022222222222222223,35.22222222222223,0)" xlink:href="#U"/><use transform="matrix(0.022222222222222223,0,0,0.022222222222222223,45.04444444444445,0)" xlink:href="#an"/><use transform="matrix(0.022222222222222223,0,0,0.022222222222222223,65.97777777777779,0)" xlink:href="#ae"/><use transform="matrix(0.022222222222222223,0,0,0.022222222222222223,78.97777777777779,0)" xlink:href="#aa"/><use transform="matrix(0.022222222222222223,0,0,0.022222222222222223,88.15555555555557,0)" xlink:href="#R"/></g><g id="l"><use transform="matrix(0.022222222222222223,0,0,0.022222222222222223,0,0)" xlink:href="#ac"/><use transform="matrix(0.022222222222222223,0,0,0.022222222222222223,11.200000000000001,0)" xlink:href="#ah"/><use transform="matrix(0.022222222222222223,0,0,0.022222222222222223,24.644444444444446,0)" xlink:href="#ac"/><use transform="matrix(0.022222222222222223,0,0,0.022222222222222223,35.84444444444445,0)" xlink:href="#U"/><use transform="matrix(0.022222222222222223,0,0,0.022222222222222223,45.66666666666667,0)" xlink:href="#R"/><use transform="matrix(0.022222222222222223,0,0,0.022222222222222223,58.400000000000006,0)" xlink:href="#S"/></g><path fill="#333" d="M278-98c103 7 180-5 180-106 0-103-74-120-180-112v218zm69-315c53 3 85-49 85-103 0-92-63-104-154-97v200h69zm293 217C633-35 532 0 352 0H100v-711h265c166 0 249 62 249 187 0 81-46 134-138 160 85 14 167 75 164 168" id="ao"/><path fill="#333" d="M429-533h173L416-347 616 0H429L297-228l-51 51V0H84v-711h162v360" id="ap"/><path fill="#333" d="M238-289c0 82 7 138 71 138 19 0 44-13 75-40v-242c-11-12-36-18-75-18-47 0-71 54-71 162zm66-258c69 0 164 19 243 14v444c0 187-86 280-258 280-61 0-121-15-182-44V44c53 30 112 45 175 45 105 0 104-89 102-196-47 51-95 76-142 76-117 0-175-86-175-258 0-180 62-258 237-258" id="aq"/><g id="m"><use transform="matrix(0.022222222222222223,0,0,0.022222222222222223,0,0)" xlink:href="#ao"/><use transform="matrix(0.022222222222222223,0,0,0.022222222222222223,15.311111111111112,0)" xlink:href="#W"/><use transform="matrix(0.022222222222222223,0,0,0.022222222222222223,29.399999999999995,0)" xlink:href="#W"/><use transform="matrix(0.022222222222222223,0,0,0.022222222222222223,43.48888888888889,0)" xlink:href="#ap"/><use transform="matrix(0.022222222222222223,0,0,0.022222222222222223,57.88888888888888,0)" xlink:href="#af"/><use transform="matrix(0.022222222222222223,0,0,0.022222222222222223,65.77777777777777,0)" xlink:href="#T"/><use transform="matrix(0.022222222222222223,0,0,0.022222222222222223,80.06666666666666,0)" xlink:href="#aq"/></g><path fill="#333" d="M262-711V0H84v-711h178" id="ar"/><g id="n"><use transform="matrix(0.017777777777777778,0,0,0.017777777777777778,0,0)" xlink:href="#ar"/><use transform="matrix(0.017777777777777778,0,0,0.017777777777777778,6.115555555555556,0)" xlink:href="#T"/><use transform="matrix(0.017777777777777778,0,0,0.017777777777777778,17.546666666666667,0)" xlink:href="#U"/><use transform="matrix(0.017777777777777778,0,0,0.017777777777777778,25.404444444444444,0)" xlink:href="#R"/><use transform="matrix(0.017777777777777778,0,0,0.017777777777777778,35.59111111111111,0)" xlink:href="#aa"/><use transform="matrix(0.017777777777777778,0,0,0.017777777777777778,42.93333333333333,0)" xlink:href="#ae"/><use transform="matrix(0.017777777777777778,0,0,0.017777777777777778,53.333333333333336,0)" xlink:href="#Z"/><use transform="matrix(0.017777777777777778,0,0,0.017777777777777778,62.684444444444445,0)" xlink:href="#U"/><use transform="matrix(0.017777777777777778,0,0,0.017777777777777778,70.54222222222222,0)" xlink:href="#ac"/></g><path fill="#333" d="M391-542c99-2 180 48 180 142V0H409v-364c0-88-103-78-156-34V0H91v-711h153v233c46-43 95-64 147-64" id="as"/><g id="o"><use transform="matrix(0.017777777777777778,0,0,0.017777777777777778,0,0)" xlink:href="#an"/><use transform="matrix(0.017777777777777778,0,0,0.017777777777777778,16.746666666666666,0)" xlink:href="#af"/><use transform="matrix(0.017777777777777778,0,0,0.017777777777777778,23.057777777777776,0)" xlink:href="#U"/><use transform="matrix(0.017777777777777778,0,0,0.017777777777777778,30.915555555555553,0)" xlink:href="#as"/></g><g id="p"><use transform="matrix(0.022222222222222223,0,0,0.022222222222222223,0,0)" xlink:href="#U"/><use transform="matrix(0.022222222222222223,0,0,0.022222222222222223,9.822222222222223,0)" xlink:href="#R"/><use transform="matrix(0.022222222222222223,0,0,0.022222222222222223,22.555555555555557,0)" xlink:href="#aa"/><use transform="matrix(0.022222222222222223,0,0,0.022222222222222223,31.733333333333334,0)" xlink:href="#S"/><use transform="matrix(0.022222222222222223,0,0,0.022222222222222223,53.28888888888889,0)" xlink:href="#af"/><use transform="matrix(0.022222222222222223,0,0,0.022222222222222223,61.17777777777778,0)" xlink:href="#T"/><use transform="matrix(0.022222222222222223,0,0,0.022222222222222223,75.46666666666667,0)" xlink:href="#ae"/><use transform="matrix(0.022222222222222223,0,0,0.022222222222222223,88.46666666666667,0)" xlink:href="#Q"/><use transform="matrix(0.022222222222222223,0,0,0.022222222222222223,96.53333333333333,0)" xlink:href="#ac"/></g><path fill="#333" d="M348-396c67 1 104-41 106-108 3-101-72-117-175-109v217h69zm22-315c168 2 256 50 262 207 6 159-142 219-353 206V0H101v-711h269" id="at"/><g id="q"><use transform="matrix(0.022222222222222223,0,0,0.022222222222222223,0,0)" xlink:href="#at"/><use transform="matrix(0.022222222222222223,0,0,0.022222222222222223,14.844444444444445,0)" xlink:href="#ae"/><use transform="matrix(0.022222222222222223,0,0,0.022222222222222223,27.844444444444445,0)" xlink:href="#ac"/><use transform="matrix(0.022222222222222223,0,0,0.022222222222222223,39.044444444444444,0)" xlink:href="#ac"/><use transform="matrix(0.022222222222222223,0,0,0.022222222222222223,50.24444444444445,0)" xlink:href="#R"/><use transform="matrix(0.022222222222222223,0,0,0.022222222222222223,62.97777777777778,0)" xlink:href="#T"/><use transform="matrix(0.022222222222222223,0,0,0.022222222222222223,77.26666666666667,0)" xlink:href="#aq"/><use transform="matrix(0.022222222222222223,0,0,0.022222222222222223,91.13333333333331,0)" xlink:href="#R"/><use transform="matrix(0.022222222222222223,0,0,0.022222222222222223,103.86666666666665,0)" xlink:href="#aa"/><use transform="matrix(0.022222222222222223,0,0,0.022222222222222223,113.04444444444442,0)" xlink:href="#ac"/></g><path fill="#333" d="M552-209C550-56 453 14 294 14 233 14 164-7 85-48v-127c73 55 140 82 199 82 69 0 104-22 104-67 0-30-27-57-81-81-77-35-126-62-149-82-54-47-81-114-81-201 0-133 91-201 231-200 79 0 144 14 195 42v122c-47-39-111-58-192-58-51 0-77 22-77 67 0 27 27 52 82 77 79 36 131 63 154 82 55 45 82 106 82 183" id="au"/><g id="r"><use transform="matrix(0.022222222222222223,0,0,0.022222222222222223,0,0)" xlink:href="#au"/><use transform="matrix(0.022222222222222223,0,0,0.022222222222222223,13.68888888888889,0)" xlink:href="#U"/><use transform="matrix(0.022222222222222223,0,0,0.022222222222222223,23.511111111111113,0)" xlink:href="#ae"/><use transform="matrix(0.022222222222222223,0,0,0.022222222222222223,36.51111111111111,0)" xlink:href="#am"/><use transform="matrix(0.022222222222222223,0,0,0.022222222222222223,46.44444444444444,0)" xlink:href="#am"/></g><g id="s"><use transform="matrix(0.022222222222222223,0,0,0.022222222222222223,0,0)" xlink:href="#au"/><use transform="matrix(0.022222222222222223,0,0,0.022222222222222223,13.68888888888889,0)" xlink:href="#U"/><use transform="matrix(0.022222222222222223,0,0,0.022222222222222223,23.511111111111113,0)" xlink:href="#aa"/><use transform="matrix(0.022222222222222223,0,0,0.022222222222222223,32.68888888888889,0)" xlink:href="#af"/><use transform="matrix(0.022222222222222223,0,0,0.022222222222222223,40.57777777777778,0)" xlink:href="#ag"/><use transform="matrix(0.022222222222222223,0,0,0.022222222222222223,54.17777777777778,0)" xlink:href="#R"/></g><g id="t"><use transform="matrix(0.017777777777777778,0,0,0.017777777777777778,0,0)" xlink:href="#at"/><use transform="matrix(0.017777777777777778,0,0,0.017777777777777778,11.875555555555556,0)" xlink:href="#aa"/><use transform="matrix(0.017777777777777778,0,0,0.017777777777777778,19.217777777777776,0)" xlink:href="#W"/><use transform="matrix(0.017777777777777778,0,0,0.017777777777777778,30.488888888888887,0)" xlink:href="#Z"/><use transform="matrix(0.017777777777777778,0,0,0.017777777777777778,39.84,0)" xlink:href="#R"/><use transform="matrix(0.017777777777777778,0,0,0.017777777777777778,50.026666666666664,0)" xlink:href="#ac"/><use transform="matrix(0.017777777777777778,0,0,0.017777777777777778,58.986666666666665,0)" xlink:href="#ac"/></g><g id="u"><use transform="matrix(0.017777777777777778,0,0,0.017777777777777778,0,0)" xlink:href="#ag"/><use transform="matrix(0.017777777777777778,0,0,0.017777777777777778,10.88,0)" xlink:href="#ae"/><use transform="matrix(0.017777777777777778,0,0,0.017777777777777778,21.28,0)" xlink:href="#ah"/><use transform="matrix(0.017777777777777778,0,0,0.017777777777777778,32.03555555555556,0)" xlink:href="#S"/><use transform="matrix(0.017777777777777778,0,0,0.017777777777777778,49.28,0)" xlink:href="#R"/><use transform="matrix(0.017777777777777778,0,0,0.017777777777777778,59.46666666666667,0)" xlink:href="#T"/><use transform="matrix(0.017777777777777778,0,0,0.017777777777777778,70.89777777777778,0)" xlink:href="#U"/><use transform="matrix(0.017777777777777778,0,0,0.017777777777777778,78.75555555555556,0)" xlink:href="#ac"/></g><path fill="#333" d="M406-533h127L390 0H171L28-533h168l105 392" id="av"/><g id="v"><use transform="matrix(0.017777777777777778,0,0,0.017777777777777778,0,0)" xlink:href="#at"/><use transform="matrix(0.017777777777777778,0,0,0.017777777777777778,11.875555555555556,0)" xlink:href="#aa"/><use transform="matrix(0.017777777777777778,0,0,0.017777777777777778,19.217777777777776,0)" xlink:href="#W"/><use transform="matrix(0.017777777777777778,0,0,0.017777777777777778,30.488888888888887,0)" xlink:href="#av"/><use transform="matrix(0.017777777777777778,0,0,0.017777777777777778,40.568888888888885,0)" xlink:href="#af"/><use transform="matrix(0.017777777777777778,0,0,0.017777777777777778,46.87999999999999,0)" xlink:href="#al"/><use transform="matrix(0.017777777777777778,0,0,0.017777777777777778,58.09777777777777,0)" xlink:href="#R"/></g><g id="w"><use transform="matrix(0.017777777777777778,0,0,0.017777777777777778,0,0)" xlink:href="#al"/><use transform="matrix(0.017777777777777778,0,0,0.017777777777777778,11.217777777777778,0)" xlink:href="#ae"/><use transform="matrix(0.017777777777777778,0,0,0.017777777777777778,21.61777777777778,0)" xlink:href="#U"/><use transform="matrix(0.017777777777777778,0,0,0.017777777777777778,29.475555555555555,0)" xlink:href="#ae"/></g><g id="x"><use transform="matrix(0.022222222222222223,0,0,0.022222222222222223,0,0)" xlink:href="#A"/><use transform="matrix(0.022222222222222223,0,0,0.022222222222222223,12.444444444444445,0)" xlink:href="#S"/><use transform="matrix(0.022222222222222223,0,0,0.022222222222222223,34,0)" xlink:href="#ag"/><use transform="matrix(0.022222222222222223,0,0,0.022222222222222223,47.6,0)" xlink:href="#Q"/><use transform="matrix(0.022222222222222223,0,0,0.022222222222222223,55.66666666666667,0)" xlink:href="#W"/><use transform="matrix(0.022222222222222223,0,0,0.022222222222222223,69.75555555555556,0)" xlink:href="#ah"/><use transform="matrix(0.022222222222222223,0,0,0.022222222222222223,83.2,0)" xlink:href="#R"/><use transform="matrix(0.022222222222222223,0,0,0.022222222222222223,95.93333333333334,0)" xlink:href="#R"/><use transform="matrix(0.022222222222222223,0,0,0.022222222222222223,108.66666666666667,0)" xlink:href="#ac"/></g><g id="y"><use transform="matrix(0.017777777777777778,0,0,0.017777777777777778,0,0)" xlink:href="#ak"/><use transform="matrix(0.017777777777777778,0,0,0.017777777777777778,11.12888888888889,0)" xlink:href="#W"/><use transform="matrix(0.017777777777777778,0,0,0.017777777777777778,22.4,0)" xlink:href="#W"/><use transform="matrix(0.017777777777777778,0,0,0.017777777777777778,33.67111111111111,0)" xlink:href="#ap"/><use transform="matrix(0.017777777777777778,0,0,0.017777777777777778,45.19111111111111,0)" xlink:href="#af"/><use transform="matrix(0.017777777777777778,0,0,0.017777777777777778,51.50222222222222,0)" xlink:href="#T"/><use transform="matrix(0.017777777777777778,0,0,0.017777777777777778,62.93333333333333,0)" xlink:href="#aq"/><use transform="matrix(0.017777777777777778,0,0,0.017777777777777778,74.02666666666667,0)" xlink:href="#ac"/></g></defs></g></svg>