<svg xmlns="http://www.w3.org/2000/svg" xmlns:xlink="http://www.w3.org/1999/xlink" xmlns:lucid="lucid" width="1810" height="982"><g transform="translate(-1981 -1872)" lucid:page-tab-id="0_0"><path d="M0 0h5484.6v3840.5H0z" fill="#fff"/><path d="M2140 1986c0-3.3 2.7-6 6-6h268c3.3 0 6 2.7 6 6v748c0 3.3-2.7 6-6 6h-268c-3.3 0-6-2.7-6-6z" stroke="#5e5e5e" stroke-width="3" fill-opacity="0"/><use xlink:href="#a" transform="matrix(1,0,0,1,2148,1988) translate(0 26.666666666666657)"/><path d="M3100 1666c0-3.3 2.7-6 6-6h1058c3.3 0 6 2.7 6 6v220.22c0 3.32-2.7 6-6 6H3106c-3.3 0-6-2.68-6-6z" stroke="#000" stroke-opacity="0" stroke-width="3" fill="#fff" fill-opacity="0"/><use xlink:href="#b" transform="matrix(1,0,0,1,3105,1665) translate(97.75999999999999 126.29166666666666)"/><use xlink:href="#c" transform="matrix(1,0,0,1,3105,1665) translate(657.12 126.29166666666666)"/><path d="M2340 2668c0 6.63-26.86 12-60 12s-60-5.37-60-12v-96c0-6.63 26.86-12 60-12s60 5.37 60 12z" stroke="#5e5e5e" stroke-width="3" fill="#fff"/><path d="M2340 2572c0 6.63-26.86 12-60 12s-60-5.37-60-12" stroke="#5e5e5e" stroke-width="3" fill="none"/><use xlink:href="#d" transform="matrix(1,0,0,1,2225,2589) translate(3.611111111111107 50.02777777777778)"/><path d="M2336 2192.5c18.78 0 34 19.03 34 42.5s-15.22 42.5-34 42.5h-102c-18.78 0-34-19.03-34-42.5s15.22-42.5 34-42.5z" stroke="#5e5e5e" stroke-width="3" fill="#fff"/><use xlink:href="#e" transform="matrix(1,0,0,1,2205,2197.5) translate(34.17777777777778 43.55902777777778)"/><path d="M2203.75 2071c0-3.3 2.7-6 6-6h158c3.3 0 6 2.7 6 6v73c0 3.3-2.7 6-6 6h-158c-3.3 0-6-2.7-6-6z" fill-opacity="0"/><path d="M2236.08 2065h26.34m13.16 0h26.34m13.16 0h26.34m13.16 0h13.17l3.03.82 2.15 2.15.82 3.03v12.17m0 12.16v24.34m0 12.16V2144l-.82 3.03-2.15 2.15-3.03.82h-13.17m-13.16 0h-26.34m-13.16 0h-26.34m-13.16 0h-26.34m-13.16 0h-13.17l-3.03-.82-2.15-2.15-.82-3.03v-12.17m0-12.16v-24.34m0-12.16V2071l.82-3.03 2.15-2.15 3.03-.82h13.17" stroke="#5e5e5e" stroke-width="3" fill="none"/><use xlink:href="#f" transform="matrix(1,0,0,1,2208.75,2070) translate(36.15555555555555 43.55902777777778)"/><path d="M2301.16 2341.16c0 11.68-9.48 21.15-21.16 21.15s-21.16-9.46-21.16-21.14c0-11.7 9.48-21.16 21.16-21.16s21.16 9.47 21.16 21.16z" stroke="#5e5e5e" stroke-width="3" fill="#fff"/><path d="M2280 2362.3v53.25c0 3.3 1.43 8.28 3.2 11.08l39.3 62.62m-42.5-67.7l-42.5 67.7m0-105.78h85" stroke="#5e5e5e" stroke-width="3" fill="none"/><path d="M2237.5 2326c0-3.3 2.7-6 6-6h73c3.3 0 6 2.7 6 6v179.25c0 3.3-2.7 6-6 6h-73c-3.3 0-6-2.7-6-6z" fill="none"/><use xlink:href="#g" transform="matrix(1,0,0,1,2157.5,2489.25) translate(92.2 17.77777777777778)"/><path d="M2740 2018.22c0-3.3 2.7-6 6-6h708c3.3 0 6 2.7 6 6V2634c0 3.3-2.7 6-6 6h-708c-3.3 0-6-2.7-6-6z" fill-opacity="0"/><path d="M2775.5 2012.22h29.5m14.75 0h29.5m14.75 0h29.5m14.75 0h29.5m14.75 0h29.5m14.75 0h29.5m14.75 0h29.5m14.75 0h29.5m14.75 0h29.5m14.75 0h29.5m14.75 0h29.5m14.75 0h29.5m14.75 0h29.5m14.75 0h29.5m14.75 0h29.5m14.75 0H3454l3.03.82 2.15 2.15.82 3.02v14.66m0 14.66v29.33m0 14.66v29.32m0 14.66v29.34m0 14.66v29.32m0 14.66v29.32m0 14.67v29.32m0 14.65v29.32m0 14.66v29.33m0 14.66v29.32m0 14.66v29.32m0 14.67v29.3m0 14.67v29.32m0 14.65v29.33m0 14.66V2634l-.82 3.03-2.15 2.15-3.03.82h-14.75m-14.75 0H3395m-14.75 0h-29.5m-14.75 0h-29.5m-14.75 0h-29.5m-14.75 0H3218m-14.75 0h-29.5m-14.75 0h-29.5m-14.75 0h-29.5m-14.75 0H3041m-14.75 0h-29.5m-14.75 0h-29.5m-14.75 0h-29.5m-14.75 0H2864m-14.75 0h-29.5m-14.75 0h-29.5m-14.75 0H2746l-3.03-.82-2.15-2.15-.82-3.03v-14.66m0-14.66v-29.33m0-14.66v-29.33m0-14.66v-29.3m0-14.68v-29.32m0-14.66v-29.32m0-14.66v-29.33m0-14.66v-29.32m0-14.66v-29.33m0-14.67v-29.32m0-14.66v-29.32m0-14.66v-29.33m0-14.65v-29.32m0-14.66v-29.33m0-14.66v-14.66l.82-3.03 2.15-2.16 3.03-.82h14.75" stroke="#5e5e5e" stroke-width="3" fill="none"/><use xlink:href="#h" transform="matrix(1,0,0,1,2745,2017.2222222222224) translate(0 617.0573415537777)"/><use xlink:href="#i" transform="matrix(1,0,0,1,2745,2017.2222222222224) translate(109.71111111111111 617.0573415537777)"/><use xlink:href="#j" transform="matrix(1,0,0,1,2745,2017.2222222222224) translate(217.02222222222224 617.0573415537777)"/><path d="M3056 2380c18.78 0 34 19.03 34 42.5s-15.22 42.5-34 42.5h-102c-18.78 0-34-19.03-34-42.5s15.22-42.5 34-42.5z" stroke="#5e5e5e" stroke-width="3" fill="#fff"/><use xlink:href="#k" transform="matrix(1,0,0,1,2925,2385) translate(23.482777777777777 22.46527777777778)"/><use xlink:href="#l" transform="matrix(1,0,0,1,2925,2385) translate(40.02222222222222 44.6875)"/><use xlink:href="#m" transform="matrix(1,0,0,1,2925,2385) translate(29.371666666666663 66.90972222222223)"/><path d="M3346 2220c18.78 0 34 17.9 34 40s-15.22 40-34 40h-102c-18.78 0-34-17.9-34-40s15.22-40 34-40z" stroke="#5e5e5e" stroke-width="3" fill="#fff"/><use xlink:href="#n" transform="matrix(1,0,0,1,3215,2225) translate(28.360555555555553 30.90277777777778)"/><use xlink:href="#o" transform="matrix(1,0,0,1,3215,2225) translate(46.19388888888888 53.125)"/><path d="M3076 2220c18.78 0 34 19.03 34 42.5s-15.22 42.5-34 42.5h-102c-18.78 0-34-19.03-34-42.5s15.22-42.5 34-42.5z" stroke="#5e5e5e" stroke-width="3" fill="#fff"/><use xlink:href="#p" transform="matrix(1,0,0,1,2945,2225) translate(43.216111111111104 22.46527777777778)"/><use xlink:href="#l" transform="matrix(1,0,0,1,2945,2225) translate(40.02222222222222 44.6875)"/><use xlink:href="#m" transform="matrix(1,0,0,1,2945,2225) translate(29.371666666666663 66.90972222222223)"/><path fill="#5e5e5e"/><path fill="#5e5e5e"/><path fill="#5e5e5e"/><path fill="#5e5e5e"/><use xlink:href="#q" transform="matrix(1,0,0,1,3107.1903595220756,2253.6111111111113) translate(0 14.222222222222223)"/><use xlink:href="#r" transform="matrix(1,0,0,1,3107.1903595220756,2253.6111111111113) translate(35.78666666666666 14.222222222222223)"/><path d="M2543.66 2326.16c0 11.68-9.48 21.15-21.16 21.15s-21.16-9.46-21.16-21.14c0-11.7 9.48-21.16 21.16-21.16s21.16 9.47 21.16 21.16z" stroke="#5e5e5e" stroke-width="3" fill="#fff"/><path d="M2522.5 2347.3v53.25c0 3.3 1.43 8.28 3.2 11.08l39.3 62.62m-42.5-67.7l-42.5 67.7m0-105.78h85" stroke="#5e5e5e" stroke-width="3" fill="none"/><path d="M2480 2311c0-3.3 2.7-6 6-6h73c3.3 0 6 2.7 6 6v179.25c0 3.3-2.7 6-6 6h-73c-3.3 0-6-2.7-6-6z" fill="none"/><use xlink:href="#s" transform="matrix(1,0,0,1,2400,2474.25) translate(60.37777777777778 17.77777777777778)"/><path d="M2558.66 2049.9c0 11.7-9.48 21.16-21.16 21.16s-21.16-9.47-21.16-21.15c0-11.68 9.48-21.15 21.16-21.15s21.16 9.47 21.16 21.16z" stroke="#5e5e5e" stroke-width="3" fill="#fff"/><path d="M2537.5 2071.06v53.24c0 3.3 1.43 8.28 3.2 11.08L2580 2198m-42.5-67.7L2495 2198m0-105.78h85" stroke="#5e5e5e" stroke-width="3" fill="none"/><path d="M2495 2034.75c0-3.3 2.7-6 6-6h73c3.3 0 6 2.7 6 6V2214c0 3.3-2.7 6-6 6h-73c-3.3 0-6-2.7-6-6z" fill="none"/><use xlink:href="#t" transform="matrix(1,0,0,1,2415,2198) translate(94.3111111111111 17.77777777777778)"/><path d="M2636 2240h-2v-117.95h2m-96-7.88v-2h74.2v2" fill="#5e5e5e"/><path d="M2540.03 2114.17H2536v-2h4.03M2635 2255.26l-4.64-14.26h9.28z" fill="#5e5e5e"/><path d="M2635 2258.5l-6-18.5h12m-9.26 2l3.26 10.03 3.26-10.03" fill="#5e5e5e"/><use xlink:href="#u" transform="matrix(1,0,0,1,2614.2093868803795,2104.276458266142) translate(0 14.222222222222223)"/><path d="M2570.65 2390.42H2525v-2h45.65m68.52-4.87l-.93 3.4-2.53 2.54-3.4.92h-22.27v-2h22l2.65-.72 1.77-1.77.72-2.65V2365h2" fill="#5e5e5e"/><path d="M2525.03 2390.42H2521v-2h4.03M2642.8 2364h-9.27l4.64-14.26z" fill="#5e5e5e"/><path d="M2644.18 2365h-12.03l6.02-18.5m-3.26 16.5h6.52l-3.25-10.03" fill="#5e5e5e"/><use xlink:href="#u" transform="matrix(1,0,0,1,2570.651234856546,2380.5264582661416) translate(0 14.222222222222223)"/><path d="M3203.55 2426h-111.2v-2h111.2m92.45-7.9h-2V2320h2" fill="#5e5e5e"/><path d="M3092.38 2426h-1.08l.1-2h.98M3299.64 2319h-9.28l4.64-14.26z" fill="#5e5e5e"/><path d="M3301 2320h-12l6-18.5m-3.26 16.5h6.52l-3.26-10.03" fill="#5e5e5e"/><use xlink:href="#q" transform="matrix(1,0,0,1,3203.5503097301107,2416.1111111111113) translate(0 14.222222222222223)"/><use xlink:href="#r" transform="matrix(1,0,0,1,3203.5503097301107,2416.1111111111113) translate(35.78666666666666 14.222222222222223)"/><path d="M2686 2260c18.78 0 34 19.03 34 42.5s-15.22 42.5-34 42.5h-102c-18.78 0-34-19.03-34-42.5s15.22-42.5 34-42.5z" stroke="#5e5e5e" stroke-width="3" fill="#fff"/><use xlink:href="#n" transform="matrix(1,0,0,1,2555,2265) translate(28.355555555555554 34.18402777777778)"/><use xlink:href="#v" transform="matrix(1,0,0,1,2555,2265) translate(26.138333333333332 56.40625)"/><path d="M2920.14 2261h-83.94l-2.64.7-1.77 1.8-.73 2.63v27.48h-2v-27.73l.93-3.42 2.53-2.53 3.4-.92h84.2" fill="#5e5e5e"/><path fill="#5e5e5e"/><path d="M2935.4 2260l-14.26 4.64v-9.28z" fill="#5e5e5e"/><path d="M2938.64 2260l-18.5 6v-12m2 9.26l10.03-3.26-10.03-3.26" fill="#5e5e5e"/><use xlink:href="#w" transform="matrix(1,0,0,1,2720.2750420796324,2293.6111111111113) translate(0 14.222222222222223)"/><use xlink:href="#x" transform="matrix(1,0,0,1,2720.2750420796324,2293.6111111111113) translate(84.83555555555554 14.222222222222223)"/><path d="M2822.5 2433.87l.72 2.64 1.77 1.8 2.64.7H2903v2h-75.63l-3.4-.92-2.54-2.53-.93-3.4v-122.76h2" fill="#5e5e5e"/><path fill="#5e5e5e"/><path d="M2918.27 2440l-14.27 4.64v-9.27z" fill="#5e5e5e"/><path d="M2921.5 2440l-18.5 6.02V2434m2 9.26l10.03-3.26-10.03-3.25" fill="#5e5e5e"/><path d="M3180 2188c0 6.63-26.86 12-60 12s-60-5.37-60-12v-96c0-6.63 26.86-12 60-12s60 5.37 60 12z" stroke="#5e5e5e" stroke-width="3" fill="#fff"/><path d="M3180 2092c0 6.63-26.86 12-60 12s-60-5.37-60-12" stroke="#5e5e5e" stroke-width="3" fill="none"/><use xlink:href="#n" transform="matrix(1,0,0,1,3065,2109) translate(3.3555555555555543 39.27777777777778)"/><use xlink:href="#y" transform="matrix(1,0,0,1,3065,2109) translate(4.6555555555555515 61.5)"/><path d="M3296 2217.5h-2v-58.4h2m-3.45-19.18l1.4 1.4h-3.88l-1.2-.32H3200v-2h89.13M3199 2144.64l-14.26-4.64 14.26-4.64z" fill="#5e5e5e"/><path d="M3200 2146l-18.5-6 18.5-6m-12.03 6l10.03 3.26v-6.52M3296 2218.5h-2v-1.03h2" fill="#5e5e5e"/><use xlink:href="#z" transform="matrix(1,0,0,1,3245.2044444444446,2141.3254648567613) translate(0 14.222222222222223)"/><use xlink:href="#A" transform="matrix(1,0,0,1,3245.2044444444446,2141.3254648567613) translate(59.715555555555554 14.222222222222223)"/><path d="M3716 2220c18.78 0 34 17.9 34 40s-15.22 40-34 40h-102c-18.78 0-34-17.9-34-40s15.22-40 34-40z" stroke="#5e5e5e" stroke-width="3" fill="#fff"/><g><use xlink:href="#B" transform="matrix(1,0,0,1,3585,2225) translate(33.03833333333333 30.90277777777778)"/><use xlink:href="#j" transform="matrix(1,0,0,1,3585,2225) translate(40.027222222222214 53.125)"/></g><path d="M3447.74 2262.1h-47.8v-2h47.8m129.76.9h-7.5v-2h7.5" fill="#5e5e5e"/><path d="M3578.5 2259.98l.03 1.02h-1.06v-2h1.1M3398.94 2265.75l-14.27-4.64 14.27-4.62z" fill="#5e5e5e"/><path d="M3399.94 2267.12l-18.5-6 18.5-6.02m-12.03 6l10.04 3.27v-6.52" fill="#5e5e5e"/><g><use xlink:href="#C" transform="matrix(1,0,0,1,3447.743478233017,2251.1111111111113) translate(0 14.222222222222223)"/><use xlink:href="#A" transform="matrix(1,0,0,1,3447.743478233017,2251.1111111111113) translate(82.38222222222223 14.222222222222223)"/></g><path d="M3236 2507.78c18.78 0 34 17.9 34 40s-15.22 40-34 40h-102c-18.78 0-34-17.9-34-40s15.22-40 34-40z" stroke="#5e5e5e" stroke-width="3" fill="#fff"/><g><use xlink:href="#D" transform="matrix(1,0,0,1,3105,2512.777777777778) translate(-0.9333333333333371 30.555555555555557)"/><use xlink:href="#o" transform="matrix(1,0,0,1,3105,2512.777777777778) translate(46.18888888888888 52.77777777777778)"/></g><path d="M3080 2546.78v2h-17.5v-2m-56.5-7.9h-2v-71.38h2" fill="#5e5e5e"/><path d="M3006 2467.53h-2v-1.03h2M3095.26 2547.78l-14.26 4.63v-9.26z" fill="#5e5e5e"/><path d="M3098.5 2547.78l-18.5 6v-12m2 9.26l10.03-3.26-10.03-3.26" fill="#5e5e5e"/><g><use xlink:href="#q" transform="matrix(1,0,0,1,2959.7328663295357,2538.888888888889) translate(0 14.222222222222223)"/><use xlink:href="#r" transform="matrix(1,0,0,1,2959.7328663295357,2538.888888888889) translate(35.78666666666666 14.222222222222223)"/></g><defs><path fill="#333" d="M96-711h178v604h231V0H96v-711" id="E"/><path fill="#333" d="M519 0H101v-711h413v107H279v191h200v106H279v200h240V0" id="F"/><path fill="#333" d="M237-356c0 156 21 263 155 263 21 0 47-7 78-20v-185h-67v-89h245v338C548-8 463 13 392 13 140 11 59-98 59-356s82-368 333-368c86 0 152 11 197 32v115c-65-27-131-41-197-41-134 0-155 106-155 262" id="G"/><path fill="#333" d="M92-711h256l205 535v-535h134V0H431L226-536V0H92v-711" id="H"/><path fill="#333" d="M376-98c81 0 122-86 122-258 0-171-41-257-122-257h-98v515h98zm300-258C676-116 604 0 376 0H100v-711h293c216 5 283 124 283 355" id="I"/><g id="a"><use transform="matrix(0.03333333333333332,0,0,0.03333333333333332,0,0)" xlink:href="#E"/><use transform="matrix(0.03333333333333332,0,0,0.03333333333333332,17.799999999999994,0)" xlink:href="#F"/><use transform="matrix(0.03333333333333332,0,0,0.03333333333333332,36.466666666666654,0)" xlink:href="#G"/><use transform="matrix(0.03333333333333332,0,0,0.03333333333333332,59.89999999999998,0)" xlink:href="#F"/><use transform="matrix(0.03333333333333332,0,0,0.03333333333333332,78.56666666666663,0)" xlink:href="#H"/><use transform="matrix(0.03333333333333332,0,0,0.03333333333333332,104.33333333333329,0)" xlink:href="#I"/></g><path fill="#333" d="M500-356c0-165-23-259-168-266H216v533h98c157-6 186-92 186-267zm123 0C623-115 547-3 314 0H96v-711h236c220 4 291 124 291 355" id="J"/><path fill="#333" d="M178-224c4 93 28 148 115 148 53 0 113-14 180-42v82C408-6 340 9 271 9 130 9 60-83 60-267c0-178 55-272 220-275 139-3 208 80 208 244v74H178zm195-85c0-98-11-149-93-149-89 0-98 49-102 149h195" id="K"/><path fill="#333" d="M409-276c0-108-5-173-93-173-30 0-66 15-107 45v308c21 13 52 20 93 20 104 0 107-74 107-200zM93 178v-711h107v62c51-47 103-71 156-71 115 0 173 89 173 266C529-86 452 9 298 9c-26 0-56-7-89-20v189H93" id="L"/><path fill="#333" d="M97 0v-711h116V0H97" id="M"/><path fill="#333" d="M304-544c158 0 237 92 237 277S462 11 304 11C145 11 66-82 66-267s79-277 238-277zm0 471c103 0 122-75 122-194s-20-193-122-193-123 74-123 193c0 120 20 194 123 194" id="N"/><path fill="#333" d="M178-34L17-533h122l137 422 136-422h89L341-44c-33 101-64 163-90 192-27 30-100 43-163 34v-82c53 7 106 1 106-56 0-20-5-46-16-78" id="O"/><path fill="#333" d="M278-249c-67 0-94 14-94 76 0 59 14 81 74 80 26 0 61-13 106-40v-120c-28 3-57 4-86 4zM67-173c0-123 64-160 195-160 41 0 75 1 102 4v-84c-3-27-30-40-80-40-47 0-106 16-177 49v-94c53-29 113-44 182-44 127 0 191 53 191 158V0H373v-64C319-15 266 9 213 9 116 9 67-52 67-173" id="P"/><path fill="#333" d="M400-267c0-110-5-184-93-184-30 0-66 14-107 42v313c31 17 62 25 93 25 102 0 107-72 107-196zm120-9C519-93 461 9 289 9 223 9 155-7 84-38v-673h116v231c45-41 94-62 147-62 115 0 173 89 173 266" id="Q"/><path fill="#333" d="M92 188l-51-15 259-901 51 15" id="R"/><path fill="#333" d="M218-356c0 169 29 274 178 274 60 0 120-22 180-67v107C513-8 453 9 396 9 168 6 93-118 93-356c0-239 76-360 303-364 61 0 118 16 171 49v111c-47-46-104-69-171-69-149 0-178 104-178 273" id="S"/><path fill="#333" d="M385-333c-6-91-1-117-87-118-35 0-70 14-104 42V0H78v-533h107v60c45-46 103-69 175-69 93 0 140 62 140 186V0H385v-333" id="T"/><path fill="#333" d="M285 9C153 3 120-40 121-182v-267H59v-84h62v-111l115-45v156h114v84H236v267c0 85 11 102 89 106 9 0 19-2 29-5v79c-28 7-51 11-69 11" id="U"/><path fill="#333" d="M95-689c0-36 31-67 67-67s66 31 66 67-30 66-66 66-67-30-67-66zm8 689v-533h116V0H103" id="V"/><path fill="#333" d="M354-440c-73-24-111-10-153 58V0H85v-533h107v75c56-68 84-93 162-78v96" id="W"/><g id="b"><use transform="matrix(0.05333333333333333,0,0,0.05333333333333333,0,0)" xlink:href="#J"/><use transform="matrix(0.05333333333333333,0,0,0.05333333333333333,36.586666666666666,0)" xlink:href="#K"/><use transform="matrix(0.05333333333333333,0,0,0.05333333333333333,66.4,0)" xlink:href="#L"/><use transform="matrix(0.05333333333333333,0,0,0.05333333333333333,97.76,0)" xlink:href="#M"/><use transform="matrix(0.05333333333333333,0,0,0.05333333333333333,113.76000000000002,0)" xlink:href="#N"/><use transform="matrix(0.05333333333333333,0,0,0.05333333333333333,145.54666666666668,0)" xlink:href="#O"/><use transform="matrix(0.05333333333333333,0,0,0.05333333333333333,173.2266666666667,0)" xlink:href="#P"/><use transform="matrix(0.05333333333333333,0,0,0.05333333333333333,202.88000000000002,0)" xlink:href="#Q"/><use transform="matrix(0.05333333333333333,0,0,0.05333333333333333,234.24000000000004,0)" xlink:href="#M"/><use transform="matrix(0.05333333333333333,0,0,0.05333333333333333,250.24000000000004,0)" xlink:href="#K"/><use transform="matrix(0.05333333333333333,0,0,0.05333333333333333,280.05333333333334,0)" xlink:href="#R"/><use transform="matrix(0.05333333333333333,0,0,0.05333333333333333,300.4266666666667,0)" xlink:href="#S"/><use transform="matrix(0.05333333333333333,0,0,0.05333333333333333,335.8933333333333,0)" xlink:href="#N"/><use transform="matrix(0.05333333333333333,0,0,0.05333333333333333,367.68,0)" xlink:href="#T"/><use transform="matrix(0.05333333333333333,0,0,0.05333333333333333,398.6666666666667,0)" xlink:href="#U"/><use transform="matrix(0.05333333333333333,0,0,0.05333333333333333,420.16,0)" xlink:href="#P"/><use transform="matrix(0.05333333333333333,0,0,0.05333333333333333,449.8133333333333,0)" xlink:href="#V"/><use transform="matrix(0.05333333333333333,0,0,0.05333333333333333,466.23999999999995,0)" xlink:href="#T"/><use transform="matrix(0.05333333333333333,0,0,0.05333333333333333,497.22666666666674,0)" xlink:href="#K"/><use transform="matrix(0.05333333333333333,0,0,0.05333333333333333,527.04,0)" xlink:href="#W"/></g><path fill="#333" d="M196-258c0 109 5 174 93 174 31 0 66-15 107-45v-318c-21-7-53-11-94-11-105 0-106 73-106 200zm-120 0c0-186 56-281 231-284 25 0 55 5 89 15v-184h115V0H404v-62C353-15 301 9 249 9 134 9 76-80 76-258" id="X"/><path fill="#333" d="M302-462c-101 0-106 66-106 182 0 109-2 160 93 160 31 0 66-15 107-44v-287c-21-7-53-11-94-11zM76-276c0-174 63-264 231-266 25 0 93 3 204 9v462c2 157-67 258-211 258-87 0-145-13-175-38V66c37 24 89 36 158 36 92 0 128-79 121-200-51 47-103 71-155 71C123-27 75-136 76-276" id="Y"/><path fill="#333" d="M368-333c-7-89 4-117-78-118-32 0-64 14-95 42V0H79v-533h107v60c58-77 241-108 280 3 33-38 107-72 173-72 87 0 131 62 131 186V0H655v-333c-7-89 4-117-78-118-31 0-64 14-97 42 9 128 2 274 4 409H368v-333" id="Z"/><path fill="#333" d="M443-162C443-52 367 10 254 9 191 9 131-6 76-36v-89c61 33 113 49 156 49 136 0 120-102 33-132-42-15-86-28-126-47-47-23-67-70-67-129 1-104 68-159 177-158 57 0 109 13 156 38l1 89c-40-29-88-43-143-43-58 0-87 19-87 56-15 59 199 100 198 113 46 29 69 71 69 127" id="aa"/><g id="c"><use transform="matrix(0.05333333333333333,0,0,0.05333333333333333,0,0)" xlink:href="#X"/><use transform="matrix(0.05333333333333333,0,0,0.05333333333333333,32.37333333333333,0)" xlink:href="#V"/><use transform="matrix(0.05333333333333333,0,0,0.05333333333333333,48.8,0)" xlink:href="#P"/><use transform="matrix(0.05333333333333333,0,0,0.05333333333333333,78.45333333333333,0)" xlink:href="#Y"/><use transform="matrix(0.05333333333333333,0,0,0.05333333333333333,109.91999999999999,0)" xlink:href="#W"/><use transform="matrix(0.05333333333333333,0,0,0.05333333333333333,130.4,0)" xlink:href="#P"/><use transform="matrix(0.05333333333333333,0,0,0.05333333333333333,160.05333333333334,0)" xlink:href="#Z"/><use transform="matrix(0.05333333333333333,0,0,0.05333333333333333,203.89333333333335,0)" xlink:href="#Z"/><use transform="matrix(0.05333333333333333,0,0,0.05333333333333333,247.73333333333338,0)" xlink:href="#K"/><use transform="matrix(0.05333333333333333,0,0,0.05333333333333333,277.5466666666667,0)" xlink:href="#aa"/></g><path fill="#333" d="M359-249c-89 3-134 7-134 80 0 45 18 67 54 67 18 0 45-13 80-38v-109zM54-156c0-173 104-171 305-182 6-73-5-106-87-106-48 0-107 18-178 54v-103c53-36 113-54 182-54 145 0 245 32 245 160V0H368v-58c-55 47-110 71-167 71-98 0-147-56-147-169" id="ab"/><path fill="#333" d="M273-178c-6 81 35 104 111 85V9c-44 3-73 4-86 4-152-5-187-36-187-191v-258H35v-97h76v-111l162-45v156h124v97H273v258" id="ac"/><path fill="#333" d="M303-84c96 0 89-62 89-183 0-49-1-81-4-97-13-90-91-69-143-27v302c11 3 31 5 58 5zm260-183c0 195-79 278-273 280-73 0-142-16-207-49v-675h162v231c48-45 93-67 134-67 150 0 184 110 184 280" id="ad"/><path fill="#333" d="M60-376c0-114 86-173 209-171 58 0 109 11 154 34v109c-32-30-85-45-159-45-43 0-64 18-64 53 0 18 22 34 66 47 119 36 188 67 188 191 0 114-73 171-220 171-60 0-115-16-164-49v-115c43 43 93 64 150 64 47 0 79-8 87-42 15-60-182-101-183-115-43-29-64-73-64-132" id="ae"/><path fill="#333" d="M222-222c2 98 18 133 107 133 63 0 123-16 180-49v102C444-3 377 13 307 13 136 13 51-80 51-267c0-184 66-280 242-280 209 0 233 93 236 325H222zm74-222c-63 0-75 56-74 133h147c0-49-2-78-5-89-9-29-31-44-68-44" id="af"/><g id="d"><use transform="matrix(0.022222222222222223,0,0,0.022222222222222223,0,0)" xlink:href="#I"/><use transform="matrix(0.022222222222222223,0,0,0.022222222222222223,16.11111111111111,0)" xlink:href="#ab"/><use transform="matrix(0.022222222222222223,0,0,0.022222222222222223,29.11111111111111,0)" xlink:href="#ac"/><use transform="matrix(0.022222222222222223,0,0,0.022222222222222223,38.93333333333334,0)" xlink:href="#ab"/><use transform="matrix(0.022222222222222223,0,0,0.022222222222222223,51.93333333333334,0)" xlink:href="#ad"/><use transform="matrix(0.022222222222222223,0,0,0.022222222222222223,65.84444444444445,0)" xlink:href="#ab"/><use transform="matrix(0.022222222222222223,0,0,0.022222222222222223,78.84444444444445,0)" xlink:href="#ae"/><use transform="matrix(0.022222222222222223,0,0,0.022222222222222223,90.04444444444445,0)" xlink:href="#af"/></g><path fill="#333" d="M110 0v-711h162V0H110" id="ag"/><path fill="#333" d="M709-542c99-2 180 48 180 142V0H727v-364c0-45-22-67-67-67-23 0-52 11-89 33V0H409v-364c0-88-103-78-156-34V0H91v-533h153v55c46-43 95-64 147-64 78 0 132 24 161 72 48-48 100-72 157-72" id="ah"/><path fill="#333" d="M391-542c99-2 180 48 180 142V0H409v-364c0-88-103-78-156-34V0H91v-533h153v55c46-43 95-64 147-64" id="ai"/><g id="e"><use transform="matrix(0.022222222222222223,0,0,0.022222222222222223,0,0)" xlink:href="#F"/><use transform="matrix(0.022222222222222223,0,0,0.022222222222222223,12.444444444444445,0)" xlink:href="#ag"/><use transform="matrix(0.022222222222222223,0,0,0.022222222222222223,20.511111111111113,0)" xlink:href="#af"/><use transform="matrix(0.022222222222222223,0,0,0.022222222222222223,33.24444444444445,0)" xlink:href="#ah"/><use transform="matrix(0.022222222222222223,0,0,0.022222222222222223,54.800000000000004,0)" xlink:href="#af"/><use transform="matrix(0.022222222222222223,0,0,0.022222222222222223,67.53333333333333,0)" xlink:href="#ai"/><use transform="matrix(0.022222222222222223,0,0,0.022222222222222223,81.82222222222222,0)" xlink:href="#ac"/></g><path fill="#333" d="M250-358c0 155 22 260 156 260 54 0 111-18 170-53v118C530-5 473 9 406 9 156 6 72-102 72-358s84-363 334-366c55 0 107 9 156 28v116c-53-25-105-38-156-38-134 0-156 106-156 260" id="aj"/><path fill="#333" d="M316-547c179 0 268 93 268 280S495 13 316 13 47-80 47-267s90-280 269-280zm0 458c93 0 106-65 106-178 0-112-12-177-106-177s-107 65-107 177c0 114 13 178 107 178" id="ak"/><path fill="#333" d="M308-404l74-129h142L378-282 541 0H354l-91-158L172 0H30l162-280L45-533h189" id="al"/><g id="f"><use transform="matrix(0.022222222222222223,0,0,0.022222222222222223,0,0)" xlink:href="#aj"/><use transform="matrix(0.022222222222222223,0,0,0.022222222222222223,14.244444444444445,0)" xlink:href="#ak"/><use transform="matrix(0.022222222222222223,0,0,0.022222222222222223,28.333333333333336,0)" xlink:href="#ai"/><use transform="matrix(0.022222222222222223,0,0,0.022222222222222223,42.62222222222223,0)" xlink:href="#ac"/><use transform="matrix(0.022222222222222223,0,0,0.022222222222222223,52.44444444444445,0)" xlink:href="#af"/><use transform="matrix(0.022222222222222223,0,0,0.022222222222222223,65.17777777777778,0)" xlink:href="#al"/><use transform="matrix(0.022222222222222223,0,0,0.022222222222222223,77.86666666666667,0)" xlink:href="#ac"/></g><path fill="#333" d="M407-267l-83-302-84 302h167zM210-160L165 0H27l205-711h228L665 0H480l-44-160H210" id="am"/><path fill="#333" d="M211-267c0 109 10 183 98 183 51 0 102-18 153-54v102c-43 33-94 49-153 49C136 14 49-91 49-267c0-175 87-281 260-280 57 0 105 15 144 45v102c-54-33-102-49-144-49-87 0-99 73-98 182" id="an"/><path fill="#333" d="M390-425c-62-19-102-5-147 52V0H81v-533h153v71c45-61 87-90 156-76v113" id="ao"/><g id="g"><use transform="matrix(0.022222222222222223,0,0,0.022222222222222223,0,0)" xlink:href="#am"/><use transform="matrix(0.022222222222222223,0,0,0.022222222222222223,15.822222222222223,0)" xlink:href="#an"/><use transform="matrix(0.022222222222222223,0,0,0.022222222222222223,27.511111111111113,0)" xlink:href="#ac"/><use transform="matrix(0.022222222222222223,0,0,0.022222222222222223,37.333333333333336,0)" xlink:href="#ak"/><use transform="matrix(0.022222222222222223,0,0,0.022222222222222223,51.422222222222224,0)" xlink:href="#ao"/></g><path fill="#333" d="M66-356c0-241 79-368 311-368s311 127 311 368c0 242-79 369-311 369S66-114 66-356zm414 201c34-69 34-332 0-401-39-79-167-79-206 0-34 69-34 332 0 401 39 79 167 79 206 0" id="ap"/><path fill="#333" d="M280-231H84v-71h196v71" id="aq"/><path fill="#333" d="M238-267c0 95 2 156 71 156 19 0 44-10 75-31v-294c-19-9-41-13-66-13-74 0-80 80-80 182zm-171 0c0-195 53-275 237-280 22 0 49 6 80 18v-182h163V0H393v-62c-53 50-104 75-151 75C98 13 67-101 67-267" id="ar"/><g id="h"><use transform="matrix(0.022222222222222223,0,0,0.022222222222222223,0,0)" xlink:href="#ap"/><use transform="matrix(0.022222222222222223,0,0,0.022222222222222223,16.57777777777778,0)" xlink:href="#ai"/><use transform="matrix(0.022222222222222223,0,0,0.022222222222222223,30.866666666666667,0)" xlink:href="#aq"/><use transform="matrix(0.022222222222222223,0,0,0.022222222222222223,39.08888888888889,0)" xlink:href="#ad"/><use transform="matrix(0.022222222222222223,0,0,0.022222222222222223,53,0)" xlink:href="#ak"/><use transform="matrix(0.022222222222222223,0,0,0.022222222222222223,67.08888888888889,0)" xlink:href="#ab"/><use transform="matrix(0.022222222222222223,0,0,0.022222222222222223,80.08888888888889,0)" xlink:href="#ao"/><use transform="matrix(0.022222222222222223,0,0,0.022222222222222223,89.26666666666667,0)" xlink:href="#ar"/></g><path fill="#333" d="M130-533c2-153 79-185 240-191 12 0 28 1 49 4v96c-47-6-100-6-116 25-7 13-11 35-11 66h98v97h-98V0H130v-436H55v-97h75" id="as"/><path fill="#333" d="M420-533h158l114 403 103-403h127L779 0H580L479-347 378 0H180L37-533h168l103 403" id="at"/><g id="i"><use transform="matrix(0.022222222222222223,0,0,0.022222222222222223,0,0)" xlink:href="#ae"/><use transform="matrix(0.022222222222222223,0,0,0.022222222222222223,11.200000000000001,0)" xlink:href="#ak"/><use transform="matrix(0.022222222222222223,0,0,0.022222222222222223,25.28888888888889,0)" xlink:href="#as"/><use transform="matrix(0.022222222222222223,0,0,0.022222222222222223,35.22222222222223,0)" xlink:href="#ac"/><use transform="matrix(0.022222222222222223,0,0,0.022222222222222223,45.04444444444445,0)" xlink:href="#at"/><use transform="matrix(0.022222222222222223,0,0,0.022222222222222223,65.97777777777779,0)" xlink:href="#ab"/><use transform="matrix(0.022222222222222223,0,0,0.022222222222222223,78.97777777777779,0)" xlink:href="#ao"/><use transform="matrix(0.022222222222222223,0,0,0.022222222222222223,88.15555555555557,0)" xlink:href="#af"/></g><path fill="#333" d="M327-194L210-533H39L207-44c28 78 0 136-98 133v98c202-7 228-28 282-187l182-533H444" id="au"/><g id="j"><use transform="matrix(0.022222222222222223,0,0,0.022222222222222223,0,0)" xlink:href="#ae"/><use transform="matrix(0.022222222222222223,0,0,0.022222222222222223,11.200000000000001,0)" xlink:href="#au"/><use transform="matrix(0.022222222222222223,0,0,0.022222222222222223,24.644444444444446,0)" xlink:href="#ae"/><use transform="matrix(0.022222222222222223,0,0,0.022222222222222223,35.84444444444445,0)" xlink:href="#ac"/><use transform="matrix(0.022222222222222223,0,0,0.022222222222222223,45.66666666666667,0)" xlink:href="#af"/><use transform="matrix(0.022222222222222223,0,0,0.022222222222222223,58.400000000000006,0)" xlink:href="#ah"/></g><path fill="#333" d="M348-396c67 1 104-41 106-108 3-101-72-117-175-109v217h69zm22-315c168 2 256 50 262 207 6 159-142 219-353 206V0H101v-711h269" id="av"/><path fill="#333" d="M238-289c0 82 7 138 71 138 19 0 44-13 75-40v-242c-11-12-36-18-75-18-47 0-71 54-71 162zm66-258c69 0 164 19 243 14v444c0 187-86 280-258 280-61 0-121-15-182-44V44c53 30 112 45 175 45 105 0 104-89 102-196-47 51-95 76-142 76-117 0-175-86-175-258 0-180 62-258 237-258" id="aw"/><g id="k"><use transform="matrix(0.022222222222222223,0,0,0.022222222222222223,0,0)" xlink:href="#av"/><use transform="matrix(0.022222222222222223,0,0,0.022222222222222223,14.844444444444445,0)" xlink:href="#ab"/><use transform="matrix(0.022222222222222223,0,0,0.022222222222222223,27.844444444444445,0)" xlink:href="#ae"/><use transform="matrix(0.022222222222222223,0,0,0.022222222222222223,39.044444444444444,0)" xlink:href="#ae"/><use transform="matrix(0.022222222222222223,0,0,0.022222222222222223,50.24444444444445,0)" xlink:href="#af"/><use transform="matrix(0.022222222222222223,0,0,0.022222222222222223,62.97777777777778,0)" xlink:href="#ai"/><use transform="matrix(0.022222222222222223,0,0,0.022222222222222223,77.26666666666667,0)" xlink:href="#aw"/><use transform="matrix(0.022222222222222223,0,0,0.022222222222222223,91.13333333333331,0)" xlink:href="#af"/><use transform="matrix(0.022222222222222223,0,0,0.022222222222222223,103.86666666666665,0)" xlink:href="#ao"/></g><g id="l"><use transform="matrix(0.022222222222222223,0,0,0.022222222222222223,0,0)" xlink:href="#ae"/><use transform="matrix(0.022222222222222223,0,0,0.022222222222222223,11.200000000000001,0)" xlink:href="#au"/><use transform="matrix(0.022222222222222223,0,0,0.022222222222222223,24.644444444444446,0)" xlink:href="#ae"/><use transform="matrix(0.022222222222222223,0,0,0.022222222222222223,35.84444444444445,0)" xlink:href="#ac"/><use transform="matrix(0.022222222222222223,0,0,0.022222222222222223,45.66666666666667,0)" xlink:href="#af"/><use transform="matrix(0.022222222222222223,0,0,0.022222222222222223,58.400000000000006,0)" xlink:href="#ah"/></g><path fill="#333" d="M182-756c59 0 89 25 89 76s-30 76-89 76-89-25-89-76 30-76 89-76zM98 0v-533h162V0H98" id="ax"/><g id="m"><use transform="matrix(0.022222222222222223,0,0,0.022222222222222223,0,0)" xlink:href="#ax"/><use transform="matrix(0.022222222222222223,0,0,0.022222222222222223,7.888888888888889,0)" xlink:href="#ai"/><use transform="matrix(0.022222222222222223,0,0,0.022222222222222223,22.177777777777777,0)" xlink:href="#ac"/><use transform="matrix(0.022222222222222223,0,0,0.022222222222222223,32,0)" xlink:href="#af"/><use transform="matrix(0.022222222222222223,0,0,0.022222222222222223,44.733333333333334,0)" xlink:href="#ao"/><use transform="matrix(0.022222222222222223,0,0,0.022222222222222223,53.91111111111111,0)" xlink:href="#as"/><use transform="matrix(0.022222222222222223,0,0,0.022222222222222223,63.84444444444445,0)" xlink:href="#ab"/><use transform="matrix(0.022222222222222223,0,0,0.022222222222222223,76.84444444444445,0)" xlink:href="#an"/><use transform="matrix(0.022222222222222223,0,0,0.022222222222222223,88.53333333333333,0)" xlink:href="#af"/></g><g id="n"><use transform="matrix(0.022222222222222223,0,0,0.022222222222222223,0,0)" xlink:href="#ap"/><use transform="matrix(0.022222222222222223,0,0,0.022222222222222223,16.57777777777778,0)" xlink:href="#ai"/><use transform="matrix(0.022222222222222223,0,0,0.022222222222222223,30.866666666666667,0)" xlink:href="#aq"/><use transform="matrix(0.022222222222222223,0,0,0.022222222222222223,39.08888888888889,0)" xlink:href="#ad"/><use transform="matrix(0.022222222222222223,0,0,0.022222222222222223,53,0)" xlink:href="#ak"/><use transform="matrix(0.022222222222222223,0,0,0.022222222222222223,67.08888888888889,0)" xlink:href="#ab"/><use transform="matrix(0.022222222222222223,0,0,0.022222222222222223,80.08888888888889,0)" xlink:href="#ao"/><use transform="matrix(0.022222222222222223,0,0,0.022222222222222223,89.26666666666667,0)" xlink:href="#ar"/></g><path fill="#333" d="M406-533h127L390 0H171L28-533h168l105 392" id="ay"/><g id="o"><use transform="matrix(0.022222222222222223,0,0,0.022222222222222223,0,0)" xlink:href="#ae"/><use transform="matrix(0.022222222222222223,0,0,0.022222222222222223,11.200000000000001,0)" xlink:href="#af"/><use transform="matrix(0.022222222222222223,0,0,0.022222222222222223,23.93333333333334,0)" xlink:href="#ao"/><use transform="matrix(0.022222222222222223,0,0,0.022222222222222223,33.111111111111114,0)" xlink:href="#ay"/><use transform="matrix(0.022222222222222223,0,0,0.022222222222222223,45.711111111111116,0)" xlink:href="#af"/><use transform="matrix(0.022222222222222223,0,0,0.022222222222222223,58.44444444444445,0)" xlink:href="#ao"/></g><g id="p"><use transform="matrix(0.022222222222222223,0,0,0.022222222222222223,0,0)" xlink:href="#am"/><use transform="matrix(0.022222222222222223,0,0,0.022222222222222223,15.822222222222223,0)" xlink:href="#ar"/><use transform="matrix(0.022222222222222223,0,0,0.022222222222222223,29.844444444444445,0)" xlink:href="#ah"/><use transform="matrix(0.022222222222222223,0,0,0.022222222222222223,51.4,0)" xlink:href="#ax"/><use transform="matrix(0.022222222222222223,0,0,0.022222222222222223,59.28888888888889,0)" xlink:href="#ai"/></g><path fill="#333" d="M262-711V0H84v-711h178" id="az"/><g id="q"><use transform="matrix(0.017777777777777778,0,0,0.017777777777777778,0,0)" xlink:href="#am"/><use transform="matrix(0.017777777777777778,0,0,0.017777777777777778,12.657777777777778,0)" xlink:href="#av"/><use transform="matrix(0.017777777777777778,0,0,0.017777777777777778,24.533333333333335,0)" xlink:href="#az"/></g><path fill="#333" d="M235-267c0 95 2 156 71 156 19 0 44-10 75-31v-291c-19-12-41-18-66-18-74 0-80 82-80 184zm66-280c64 0 171 19 243 14v711H381V-62c-47 50-95 75-142 75C95 13 64-101 64-267c0-195 53-280 237-280" id="aA"/><path fill="#333" d="M256 9C157 11 76-39 76-133v-400h162v364c0 89 103 78 155 33v-397h163V0H402v-56C357-13 308 9 256 9" id="aB"/><g id="r"><use transform="matrix(0.017777777777777778,0,0,0.017777777777777778,0,0)" xlink:href="#ao"/><use transform="matrix(0.017777777777777778,0,0,0.017777777777777778,7.342222222222222,0)" xlink:href="#af"/><use transform="matrix(0.017777777777777778,0,0,0.017777777777777778,17.52888888888889,0)" xlink:href="#aA"/><use transform="matrix(0.017777777777777778,0,0,0.017777777777777778,28.69333333333333,0)" xlink:href="#aB"/><use transform="matrix(0.017777777777777778,0,0,0.017777777777777778,39.964444444444446,0)" xlink:href="#af"/><use transform="matrix(0.017777777777777778,0,0,0.017777777777777778,50.15111111111111,0)" xlink:href="#ae"/><use transform="matrix(0.017777777777777778,0,0,0.017777777777777778,59.111111111111114,0)" xlink:href="#ac"/></g><g id="s"><use transform="matrix(0.022222222222222223,0,0,0.022222222222222223,0,0)" xlink:href="#av"/><use transform="matrix(0.022222222222222223,0,0,0.022222222222222223,14.844444444444445,0)" xlink:href="#ab"/><use transform="matrix(0.022222222222222223,0,0,0.022222222222222223,27.844444444444445,0)" xlink:href="#ae"/><use transform="matrix(0.022222222222222223,0,0,0.022222222222222223,39.044444444444444,0)" xlink:href="#ae"/><use transform="matrix(0.022222222222222223,0,0,0.022222222222222223,50.24444444444445,0)" xlink:href="#af"/><use transform="matrix(0.022222222222222223,0,0,0.022222222222222223,62.97777777777778,0)" xlink:href="#ai"/><use transform="matrix(0.022222222222222223,0,0,0.022222222222222223,77.26666666666667,0)" xlink:href="#aw"/><use transform="matrix(0.022222222222222223,0,0,0.022222222222222223,91.13333333333331,0)" xlink:href="#af"/><use transform="matrix(0.022222222222222223,0,0,0.022222222222222223,103.86666666666665,0)" xlink:href="#ao"/><use transform="matrix(0.022222222222222223,0,0,0.022222222222222223,113.04444444444442,0)" xlink:href="#ae"/></g><path fill="#333" d="M552-209C550-56 453 14 294 14 233 14 164-7 85-48v-127c73 55 140 82 199 82 69 0 104-22 104-67 0-30-27-57-81-81-77-35-126-62-149-82-54-47-81-114-81-201 0-133 91-201 231-200 79 0 144 14 195 42v122c-47-39-111-58-192-58-51 0-77 22-77 67 0 27 27 52 82 77 79 36 131 63 154 82 55 45 82 106 82 183" id="aC"/><g id="t"><use transform="matrix(0.022222222222222223,0,0,0.022222222222222223,0,0)" xlink:href="#aC"/><use transform="matrix(0.022222222222222223,0,0,0.022222222222222223,13.68888888888889,0)" xlink:href="#ac"/><use transform="matrix(0.022222222222222223,0,0,0.022222222222222223,23.511111111111113,0)" xlink:href="#ab"/><use transform="matrix(0.022222222222222223,0,0,0.022222222222222223,36.51111111111111,0)" xlink:href="#as"/><use transform="matrix(0.022222222222222223,0,0,0.022222222222222223,46.44444444444444,0)" xlink:href="#as"/></g><g id="u"><use transform="matrix(0.017777777777777778,0,0,0.017777777777777778,0,0)" xlink:href="#aB"/><use transform="matrix(0.017777777777777778,0,0,0.017777777777777778,11.27111111111111,0)" xlink:href="#ae"/><use transform="matrix(0.017777777777777778,0,0,0.017777777777777778,20.23111111111111,0)" xlink:href="#af"/><use transform="matrix(0.017777777777777778,0,0,0.017777777777777778,30.41777777777778,0)" xlink:href="#ae"/></g><g id="v"><use transform="matrix(0.022222222222222223,0,0,0.022222222222222223,0,0)" xlink:href="#ac"/><use transform="matrix(0.022222222222222223,0,0,0.022222222222222223,9.822222222222223,0)" xlink:href="#af"/><use transform="matrix(0.022222222222222223,0,0,0.022222222222222223,22.555555555555557,0)" xlink:href="#ao"/><use transform="matrix(0.022222222222222223,0,0,0.022222222222222223,31.733333333333334,0)" xlink:href="#ah"/><use transform="matrix(0.022222222222222223,0,0,0.022222222222222223,53.28888888888889,0)" xlink:href="#ax"/><use transform="matrix(0.022222222222222223,0,0,0.022222222222222223,61.17777777777778,0)" xlink:href="#ai"/><use transform="matrix(0.022222222222222223,0,0,0.022222222222222223,75.46666666666667,0)" xlink:href="#ab"/><use transform="matrix(0.022222222222222223,0,0,0.022222222222222223,88.46666666666667,0)" xlink:href="#ag"/><use transform="matrix(0.022222222222222223,0,0,0.022222222222222223,96.53333333333333,0)" xlink:href="#ae"/></g><g id="w"><use transform="matrix(0.017777777777777778,0,0,0.017777777777777778,0,0)" xlink:href="#ax"/><use transform="matrix(0.017777777777777778,0,0,0.017777777777777778,6.311111111111111,0)" xlink:href="#ai"/><use transform="matrix(0.017777777777777778,0,0,0.017777777777777778,17.74222222222222,0)" xlink:href="#ac"/><use transform="matrix(0.017777777777777778,0,0,0.017777777777777778,25.599999999999994,0)" xlink:href="#af"/><use transform="matrix(0.017777777777777778,0,0,0.017777777777777778,35.78666666666666,0)" xlink:href="#ao"/><use transform="matrix(0.017777777777777778,0,0,0.017777777777777778,43.12888888888888,0)" xlink:href="#ab"/><use transform="matrix(0.017777777777777778,0,0,0.017777777777777778,53.52888888888888,0)" xlink:href="#an"/><use transform="matrix(0.017777777777777778,0,0,0.017777777777777778,62.87999999999999,0)" xlink:href="#ac"/><use transform="matrix(0.017777777777777778,0,0,0.017777777777777778,70.73777777777777,0)" xlink:href="#ae"/></g><path fill="#333" d="M391-542c99-2 180 48 180 142V0H409v-364c0-88-103-78-156-34V0H91v-711h153v233c46-43 95-64 147-64" id="aD"/><g id="x"><use transform="matrix(0.017777777777777778,0,0,0.017777777777777778,0,0)" xlink:href="#at"/><use transform="matrix(0.017777777777777778,0,0,0.017777777777777778,16.746666666666666,0)" xlink:href="#ax"/><use transform="matrix(0.017777777777777778,0,0,0.017777777777777778,23.057777777777776,0)" xlink:href="#ac"/><use transform="matrix(0.017777777777777778,0,0,0.017777777777777778,30.915555555555553,0)" xlink:href="#aD"/></g><g id="y"><use transform="matrix(0.022222222222222223,0,0,0.022222222222222223,0,0)" xlink:href="#ar"/><use transform="matrix(0.022222222222222223,0,0,0.022222222222222223,14.022222222222222,0)" xlink:href="#ab"/><use transform="matrix(0.022222222222222223,0,0,0.022222222222222223,27.022222222222222,0)" xlink:href="#ac"/><use transform="matrix(0.022222222222222223,0,0,0.022222222222222223,36.84444444444445,0)" xlink:href="#ab"/><use transform="matrix(0.022222222222222223,0,0,0.022222222222222223,49.84444444444445,0)" xlink:href="#ad"/><use transform="matrix(0.022222222222222223,0,0,0.022222222222222223,63.75555555555556,0)" xlink:href="#ab"/><use transform="matrix(0.022222222222222223,0,0,0.022222222222222223,76.75555555555556,0)" xlink:href="#ae"/><use transform="matrix(0.022222222222222223,0,0,0.022222222222222223,87.95555555555556,0)" xlink:href="#af"/></g><g id="z"><use transform="matrix(0.017777777777777778,0,0,0.017777777777777778,0,0)" xlink:href="#ae"/><use transform="matrix(0.017777777777777778,0,0,0.017777777777777778,8.96,0)" xlink:href="#ac"/><use transform="matrix(0.017777777777777778,0,0,0.017777777777777778,16.817777777777778,0)" xlink:href="#ak"/><use transform="matrix(0.017777777777777778,0,0,0.017777777777777778,28.08888888888889,0)" xlink:href="#ao"/><use transform="matrix(0.017777777777777778,0,0,0.017777777777777778,35.43111111111111,0)" xlink:href="#af"/><use transform="matrix(0.017777777777777778,0,0,0.017777777777777778,45.617777777777775,0)" xlink:href="#ae"/></g><g id="A"><use transform="matrix(0.017777777777777778,0,0,0.017777777777777778,0,0)" xlink:href="#ar"/><use transform="matrix(0.017777777777777778,0,0,0.017777777777777778,11.217777777777778,0)" xlink:href="#ab"/><use transform="matrix(0.017777777777777778,0,0,0.017777777777777778,21.61777777777778,0)" xlink:href="#ac"/><use transform="matrix(0.017777777777777778,0,0,0.017777777777777778,29.475555555555555,0)" xlink:href="#ab"/></g><path fill="#333" d="M278-98c103 7 180-5 180-106 0-103-74-120-180-112v218zm69-315c53 3 85-49 85-103 0-92-63-104-154-97v200h69zm293 217C633-35 532 0 352 0H100v-711h265c166 0 249 62 249 187 0 81-46 134-138 160 85 14 167 75 164 168" id="aE"/><path fill="#333" d="M429-533h173L416-347 616 0H429L297-228l-51 51V0H84v-711h162v360" id="aF"/><g id="B"><use transform="matrix(0.022222222222222223,0,0,0.022222222222222223,0,0)" xlink:href="#aE"/><use transform="matrix(0.022222222222222223,0,0,0.022222222222222223,15.311111111111112,0)" xlink:href="#ak"/><use transform="matrix(0.022222222222222223,0,0,0.022222222222222223,29.399999999999995,0)" xlink:href="#ak"/><use transform="matrix(0.022222222222222223,0,0,0.022222222222222223,43.48888888888889,0)" xlink:href="#aF"/><use transform="matrix(0.022222222222222223,0,0,0.022222222222222223,57.88888888888888,0)" xlink:href="#ax"/><use transform="matrix(0.022222222222222223,0,0,0.022222222222222223,65.77777777777777,0)" xlink:href="#ai"/><use transform="matrix(0.022222222222222223,0,0,0.022222222222222223,80.06666666666666,0)" xlink:href="#aw"/></g><g id="C"><use transform="matrix(0.017777777777777778,0,0,0.017777777777777778,0,0)" xlink:href="#av"/><use transform="matrix(0.017777777777777778,0,0,0.017777777777777778,11.875555555555556,0)" xlink:href="#ao"/><use transform="matrix(0.017777777777777778,0,0,0.017777777777777778,19.217777777777776,0)" xlink:href="#ak"/><use transform="matrix(0.017777777777777778,0,0,0.017777777777777778,30.488888888888887,0)" xlink:href="#ay"/><use transform="matrix(0.017777777777777778,0,0,0.017777777777777778,40.568888888888885,0)" xlink:href="#ax"/><use transform="matrix(0.017777777777777778,0,0,0.017777777777777778,46.87999999999999,0)" xlink:href="#ar"/><use transform="matrix(0.017777777777777778,0,0,0.017777777777777778,58.09777777777777,0)" xlink:href="#af"/><use transform="matrix(0.017777777777777778,0,0,0.017777777777777778,68.28444444444443,0)" xlink:href="#ae"/></g><g id="D"><use transform="matrix(0.022222222222222223,0,0,0.022222222222222223,0,0)" xlink:href="#F"/><use transform="matrix(0.022222222222222223,0,0,0.022222222222222223,12.444444444444445,0)" xlink:href="#ai"/><use transform="matrix(0.022222222222222223,0,0,0.022222222222222223,26.733333333333334,0)" xlink:href="#ac"/><use transform="matrix(0.022222222222222223,0,0,0.022222222222222223,36.55555555555556,0)" xlink:href="#af"/><use transform="matrix(0.022222222222222223,0,0,0.022222222222222223,49.28888888888889,0)" xlink:href="#ao"/><use transform="matrix(0.022222222222222223,0,0,0.022222222222222223,58.46666666666667,0)" xlink:href="#ac"/><use transform="matrix(0.022222222222222223,0,0,0.022222222222222223,68.28888888888889,0)" xlink:href="#ab"/><use transform="matrix(0.022222222222222223,0,0,0.022222222222222223,81.28888888888889,0)" xlink:href="#ax"/><use transform="matrix(0.022222222222222223,0,0,0.022222222222222223,89.17777777777778,0)" xlink:href="#ai"/><use transform="matrix(0.022222222222222223,0,0,0.022222222222222223,103.46666666666667,0)" xlink:href="#ah"/><use transform="matrix(0.022222222222222223,0,0,0.022222222222222223,125.02222222222223,0)" xlink:href="#af"/><use transform="matrix(0.022222222222222223,0,0,0.022222222222222223,137.75555555555556,0)" xlink:href="#ai"/><use transform="matrix(0.022222222222222223,0,0,0.022222222222222223,152.04444444444445,0)" xlink:href="#ac"/></g></defs></g></svg>