<svg xmlns="http://www.w3.org/2000/svg" xmlns:xlink="http://www.w3.org/1999/xlink" xmlns:lucid="lucid" width="1803" height="831"><g transform="translate(0 0)" lucid:page-tab-id="0_0"><path d="M0 0h5484.6v3840.5H0z" fill="#fff"/><path d="M80 11c0-3.3 2.7-6 6-6h648c3.3 0 6 2.7 6 6v158c0 3.3-2.7 6-6 6H86c-3.3 0-6-2.7-6-6z" stroke="#000" stroke-opacity="0" stroke-width="3" fill="#fff" fill-opacity="0"/><use xlink:href="#a" transform="matrix(1,0,0,1,85,10.000000000000071) translate(23.58666666666693 97.66666666666663)"/><use xlink:href="#b" transform="matrix(1,0,0,1,85,10.000000000000071) translate(307.05333333333334 97.66666666666663)"/><use xlink:href="#c" transform="matrix(1,0,0,1,85,10.000000000000071) translate(444.38666666666654 97.66666666666663)"/><use xlink:href="#d" transform="matrix(1,0,0,1,85,10.000000000000071) translate(485.8799999999998 97.66666666666663)"/><path d="M148 180c17.67 0 32 17.9 32 40s-14.33 40-32 40H52c-17.67 0-32-17.9-32-40s14.33-40 32-40z" stroke="#5e5e5e" stroke-width="3" fill="#fff"/><use xlink:href="#e" transform="matrix(1,0,0,1,25,185) translate(25.877777777777773 41.84027777777778)"/><use xlink:href="#f" transform="matrix(1,0,0,1,25,185) translate(85.63333333333333 41.84027777777778)"/><path d="M1375.2 243.6c2.65-2 6.95-2 9.6 0l70.4 52.8c2.65 2 2.65 5.2 0 7.2l-70.4 52.8c-2.65 2-6.95 2-9.6 0l-70.4-52.8c-2.65-2-2.65-5.2 0-7.2z" stroke="#5e5e5e" stroke-width="3" fill="#fff"/><use xlink:href="#g" transform="matrix(1,0,0,1,1305,245) translate(30.16666666666667 50.55555555555556)"/><use xlink:href="#h" transform="matrix(1,0,0,1,1305,245) translate(12.311111111111103 72.77777777777777)"/><path d="M1375.2 473.6c2.65-2 6.95-2 9.6 0l70.4 52.8c2.65 2 2.65 5.2 0 7.2l-70.4 52.8c-2.65 2-6.95 2-9.6 0l-70.4-52.8c-2.65-2-2.65-5.2 0-7.2z" stroke="#5e5e5e" stroke-width="3" fill="#fff"/><use xlink:href="#i" transform="matrix(1,0,0,1,1305,475) translate(45.63833333333333 45.27777777777778)"/><use xlink:href="#j" transform="matrix(1,0,0,1,1305,475) translate(24.327222222222215 67.5)"/><path d="M655.2 583.6c2.65-2 6.95-2 9.6 0l70.4 52.8c2.65 2 2.65 5.2 0 7.2l-70.4 52.8c-2.65 2-6.95 2-9.6 0l-70.4-52.8c-2.65-2-2.65-5.2 0-7.2z" stroke="#5e5e5e" stroke-width="3" fill="#fff"/><use xlink:href="#k" transform="matrix(1,0,0,1,585,585) translate(39.33833333333334 52.15277777777778)"/><use xlink:href="#l" transform="matrix(1,0,0,1,585,585) translate(39.98277777777777 74.375)"/><path d="M375.2 183.6c2.65-2 6.95-2 9.6 0l70.4 52.8c2.65 2 2.65 5.2 0 7.2l-70.4 52.8c-2.65 2-6.95 2-9.6 0l-70.4-52.8c-2.65-2-2.65-5.2 0-7.2z" stroke="#5e5e5e" stroke-width="3" fill="#fff"/><use xlink:href="#m" transform="matrix(1,0,0,1,305,185) translate(43.538333333333334 62.46527777777778)"/><use xlink:href="#n" transform="matrix(1,0,0,1,305,185) translate(86.7161111111111 62.46527777777778)"/><path d="M1428 100c17.67 0 32 17.9 32 40s-14.33 40-32 40h-96c-17.67 0-32-17.9-32-40s14.33-40 32-40z" stroke="#5e5e5e" stroke-width="3" fill="#fff"/><use xlink:href="#o" transform="matrix(1,0,0,1,1305,105) translate(31.977777777777774 30.90277777777778)"/><use xlink:href="#p" transform="matrix(1,0,0,1,1305,105) translate(18.233333333333327 53.125)"/><path d="M1568 700c17.67 0 32 17.9 32 40s-14.33 40-32 40h-96c-17.67 0-32-17.9-32-40s14.33-40 32-40z" stroke="#5e5e5e" stroke-width="3" fill="#fff"/><use xlink:href="#o" transform="matrix(1,0,0,1,1445,705) translate(31.977777777777774 30.90277777777778)"/><use xlink:href="#q" transform="matrix(1,0,0,1,1445,705) translate(33.96666666666666 53.125)"/><path d="M300 586c0-3.3 2.7-6 6-6h148c3.3 0 6 2.7 6 6v108c0 3.3-2.7 6-6 6H306c-3.3 0-6-2.7-6-6z" stroke="#5e5e5e" stroke-width="3" fill="#fff"/><use xlink:href="#r" transform="matrix(1,0,0,1,312,592) translate(8.62222222222222 44.77777777777778)"/><use xlink:href="#s" transform="matrix(1,0,0,1,312,592) translate(68.82222222222222 44.77777777777778)"/><use xlink:href="#t" transform="matrix(1,0,0,1,312,592) translate(31.888888888888893 67)"/><path d="M640 186c0-3.3 2.7-6 6-6h148c3.3 0 6 2.7 6 6v108c0 3.3-2.7 6-6 6H646c-3.3 0-6-2.7-6-6z" stroke="#5e5e5e" stroke-width="3" fill="#fff"/><use xlink:href="#u" transform="matrix(1,0,0,1,652,192) translate(24.08888888888889 53.77777777777778)"/><path d="M1100 107.5c0-3.3 2.7-6 6-6h148c3.3 0 6 2.7 6 6v108c0 3.3-2.7 6-6 6h-148c-3.3 0-6-2.7-6-6z" stroke="#5e5e5e" stroke-width="3" fill="#fff"/><use xlink:href="#v" transform="matrix(1,0,0,1,1112,113.5) translate(23.16666666666667 53.77777777777778)"/><path d="M870 106c0-3.3 2.7-6 6-6h148c3.3 0 6 2.7 6 6v108c0 3.3-2.7 6-6 6H876c-3.3 0-6-2.7-6-6z" stroke="#5e5e5e" stroke-width="3" fill="#fff"/><use xlink:href="#w" transform="matrix(1,0,0,1,882,112) translate(25.52222222222222 44.77777777777778)"/><use xlink:href="#x" transform="matrix(1,0,0,1,882,112) translate(25.422222222222217 67)"/><path d="M880 586c0-3.3 2.7-6 6-6h148c3.3 0 6 2.7 6 6v108c0 3.3-2.7 6-6 6H886c-3.3 0-6-2.7-6-6z" stroke="#5e5e5e" stroke-width="3" fill="#fff"/><use xlink:href="#y" transform="matrix(1,0,0,1,892,592) translate(3.311111111111103 53.77777777777778)"/><use xlink:href="#z" transform="matrix(1,0,0,1,892,592) translate(74.13333333333333 53.77777777777778)"/><path d="M182.5 220h52.94c3.32 0 6 2.7 6 6v8c0 3.3 2.7 6 6 6h35.45" stroke="#5e5e5e" stroke-width="2" fill="none"/><path d="M182.53 221h-1.1l.07-.98-.03-1.02h1.06" fill="#5e5e5e"/><path d="M298.15 240l-14.26 4.64v-9.28z" stroke="#5e5e5e" stroke-width="2" fill="#5e5e5e"/><path d="M381 560h-2V447.8h2m0-17.77h-2v-129.7h2" fill="#5e5e5e"/><path d="M381 299.35v1h-2v-1.04M380 575.26L375.36 561h9.28z" fill="#5e5e5e"/><path d="M380 578.5l-6-18.5h12m-9.26 2l3.26 10.03 3.26-10.03" fill="#5e5e5e"/><use xlink:href="#A" transform="matrix(1,0,0,1,331.36,430.0258270929835) translate(0.005000000000002558 14.222222222222223)"/><use xlink:href="#B" transform="matrix(1,0,0,1,331.36,430.0258270929835) translate(44.147222222222226 14.222222222222223)"/><path d="M482.07 241H459.6v-2h22.47M620 241h-4.96v-2H620" fill="#5e5e5e"/><path d="M459.64 241h-1.1l.18-.4-.28-1.6h1.2M635.26 240L621 244.64v-9.28z" fill="#5e5e5e"/><path d="M638.5 240l-18.5 6v-12m2 9.26l10.03-3.26-10.03-3.26" fill="#5e5e5e"/><use xlink:href="#A" transform="matrix(1,0,0,1,482.06667363090486,231.11111111111111) translate(0.0049999999999954525 14.222222222222223)"/><use xlink:href="#C" transform="matrix(1,0,0,1,482.06667363090486,231.11111111111111) translate(44.14722222222222 14.222222222222223)"/><use xlink:href="#B" transform="matrix(1,0,0,1,482.06667363090486,231.11111111111111) translate(79.845 14.222222222222223)"/><path d="M720 177.5v-33c0-3.3-2.7-6-6-6H386c-3.3 0-6 2.7-6 6v17.67" stroke="#5e5e5e" stroke-width="2" fill="none"/><path d="M721 178.5h-2v-1.03h2" fill="#5e5e5e"/><path d="M380 177.43l-4.64-14.26h9.28z" stroke="#5e5e5e" stroke-width="2" fill="#5e5e5e"/><path d="M462.5 640h100.4" stroke="#5e5e5e" stroke-width="2" fill="none"/><path d="M462.53 641h-1.03v-2h1.03" fill="#5e5e5e"/><path d="M578.15 640l-14.26 4.64v-9.28z" stroke="#5e5e5e" stroke-width="2" fill="#5e5e5e"/><path d="M748.25 641h-8.64v-2h8.65" fill="#5e5e5e"/><path d="M739.64 641h-1.1l.18-.4-.28-1.6h1.2M875.26 640l-6.4 2.08v-4.16z" fill="#5e5e5e"/><path d="M878.5 640l-9.64 3.13v-2.1l3.17-1.03-3.17-1.03v-2.1" fill="#5e5e5e"/><use xlink:href="#D" transform="matrix(1,0,0,1,748.2533402975715,631.1111111111111) translate(0.005000000000002558 14.222222222222223)"/><use xlink:href="#B" transform="matrix(1,0,0,1,748.2533402975715,631.1111111111111) translate(67.47166666666666 14.222222222222223)"/><path d="M657.55 538.42l2.53 2.53.92 3.42v35.3h-2v-35.04l-.7-2.64-1.8-1.8-2.63-.7h-58.42v-2h58.68m-207.4 2h-60.6l-2.64.7-1.8 1.8-.7 2.63V560h-2v-15.63l.92-3.42 2.53-2.53 3.42-.92h60.85" fill="#5e5e5e"/><path d="M661 580.7l-2-.05v-1h2M380 575.26L375.36 561h9.28z" fill="#5e5e5e"/><path d="M380 578.5l-6-18.5h12m-9.26 2l3.26 10.03 3.26-10.03" fill="#5e5e5e"/><use xlink:href="#E" transform="matrix(1,0,0,1,446.7208395736832,529.6111111111111) translate(0.0049999999999954525 14.222222222222223)"/><use xlink:href="#F" transform="matrix(1,0,0,1,446.7208395736832,529.6111111111111) translate(30.15611111111111 14.222222222222223)"/><use xlink:href="#B" transform="matrix(1,0,0,1,446.7208395736832,529.6111111111111) translate(95.5961111111111 14.222222222222223)"/><path d="M1032.5 160h47.5" stroke="#5e5e5e" stroke-width="2" fill="none"/><path d="M1032.53 161h-1.03v-2h1.03" fill="#5e5e5e"/><path d="M1095.26 160l-14.26 4.64v-9.28z" stroke="#5e5e5e" stroke-width="2" fill="#5e5e5e"/><path d="M1262.5 161.5h12.94c3.32 0 6 2.7 6 6v131.06c0 .8.65 1.44 1.45 1.44" stroke="#5e5e5e" stroke-width="2" fill="none"/><path d="M1262.53 162.5h-1.03v-2h1.03" fill="#5e5e5e"/><path d="M1298.15 300l-14.26 4.64v-9.28z" stroke="#5e5e5e" stroke-width="2" fill="#5e5e5e"/><path d="M1381 239.67h-2v-19.7h2m0-17.77h-2V200h2" fill="#5e5e5e"/><path d="M1381 240.7l-2-.05v-1h2M1384.64 199h-9.28l4.64-14.26z" fill="#5e5e5e"/><path d="M1386 200h-12l6-18.5m-3.26 16.5h6.52l-3.26-10.03" fill="#5e5e5e"/><use xlink:href="#G" transform="matrix(1,0,0,1,1364.6755555555555,202.1963951292387) translate(0.005000000000000782 14.222222222222223)"/><path d="M1381 452.17h-2V423.9h2m0-17.8h-2v-45.77h2" fill="#5e5e5e"/><path d="M1381 359.35v1h-2v-1.04M1380 467.43l-4.64-14.26h9.28z" fill="#5e5e5e"/><path d="M1380 470.67l-6-18.5h12m-9.26 2l3.26 10.03 3.26-10.03" fill="#5e5e5e"/><use xlink:href="#H" transform="matrix(1,0,0,1,1367.4933333333333,406.1111111111111) translate(0.005000000000000782 14.222222222222223)"/><path d="M1381 733.87l.7 2.64 1.8 1.8 2.63.7H1420v2h-34.13l-3.42-.92-2.53-2.53-.92-3.42V702.8h2m0-17.77h-2v-94.7h2" fill="#5e5e5e"/><path d="M1381 589.35v1h-2v-1.04M1435.26 740l-14.26 4.64v-9.28z" fill="#5e5e5e"/><path d="M1438.5 740l-18.5 6v-12m2 9.26l10.03-3.26-10.03-3.26" fill="#5e5e5e"/><use xlink:href="#G" transform="matrix(1,0,0,1,1364.6755555555555,685.0253604290878) translate(0.005000000000000782 14.222222222222223)"/><path d="M1499.6 524.13l-.9 3.42-2.54 2.53-3.42.92h-33.13v-2h32.88l2.64-.7 1.78-1.8.7-2.63V423.9h2m-3.44-123.98l2.53 2.53.9 3.42V406.1h-2v-99.97l-.7-2.64-1.78-1.8-2.64-.7h-15.37v-2h15.64" fill="#5e5e5e"/><path d="M1459.64 531h-1.1l.18-.4-.28-1.6h1.2M1476.1 304.64l-14.25-4.64 14.26-4.64z" fill="#5e5e5e"/><path d="M1477.1 306l-18.5-6 18.5-6m-12.02 6l10.03 3.26v-6.52" fill="#5e5e5e"/><g><use xlink:href="#H" transform="matrix(1,0,0,1,1486.1044583729208,406.1111111111111) translate(0.005000000000000782 14.222222222222223)"/></g><path d="M80 762.67c0-3.32 2.7-6 6-6h648c3.3 0 6 2.68 6 6V974c0 3.3-2.7 6-6 6H86c-3.3 0-6-2.7-6-6z" stroke="#000" stroke-opacity="0" stroke-width="3" fill="#fff" fill-opacity="0"/><g><use xlink:href="#I" transform="matrix(1,0,0,1,85,761.6666666666666) translate(49.453333333333376 122.91666666666666)"/><use xlink:href="#J" transform="matrix(1,0,0,1,85,761.6666666666666) translate(332.92 122.91666666666666)"/><use xlink:href="#K" transform="matrix(1,0,0,1,85,761.6666666666666) translate(479.6933333333333 122.91666666666666)"/></g><path d="M960 762.67c0-3.32 2.7-6 6-6h708c3.3 0 6 2.68 6 6v254c0 3.3-2.7 6-6 6H966c-3.3 0-6-2.7-6-6z" stroke="#000" stroke-opacity="0" stroke-width="3" fill="#fff" fill-opacity="0"/><g><use xlink:href="#L" transform="matrix(1,0,0,1,965,761.6666666666666) translate(22.86666666666696 146.66666666666663)"/><use xlink:href="#M" transform="matrix(1,0,0,1,965,761.6666666666666) translate(306.33333333333337 146.66666666666663)"/><use xlink:href="#N" transform="matrix(1,0,0,1,965,761.6666666666666) translate(482.7599999999999 146.66666666666663)"/></g><path d="M880 426c0-3.3 2.7-6 6-6h148c3.3 0 6 2.7 6 6v108c0 3.3-2.7 6-6 6H886c-3.3 0-6-2.7-6-6z" stroke="#5e5e5e" stroke-width="3" fill="#fff"/><g><use xlink:href="#y" transform="matrix(1,0,0,1,892,432) translate(3.311111111111103 44.77777777777778)"/><use xlink:href="#s" transform="matrix(1,0,0,1,892,432) translate(74.13333333333333 44.77777777777778)"/><use xlink:href="#O" transform="matrix(1,0,0,1,892,432) translate(40.94444444444444 67)"/></g><path d="M880 261c0-3.3 2.7-6 6-6h148c3.3 0 6 2.7 6 6v108c0 3.3-2.7 6-6 6H886c-3.3 0-6-2.7-6-6z" stroke="#5e5e5e" stroke-width="3" fill="#fff"/><g><use xlink:href="#y" transform="matrix(1,0,0,1,892,267) translate(4.233333333333334 53.77777777777778)"/><use xlink:href="#P" transform="matrix(1,0,0,1,892,267) translate(75.05555555555556 53.77777777777778)"/></g><path d="M960 577.5V560" stroke="#5e5e5e" stroke-width="2" fill="none"/><path d="M961 578.5h-2v-1.03h2" fill="#5e5e5e"/><path d="M960 544.74l4.64 14.26h-9.28z" stroke="#5e5e5e" stroke-width="2" fill="#5e5e5e"/><path d="M960 417.5V395" stroke="#5e5e5e" stroke-width="2" fill="none"/><path d="M961 418.5h-2v-1.03h2" fill="#5e5e5e"/><path d="M960 379.74l4.64 14.26h-9.28z" stroke="#5e5e5e" stroke-width="2" fill="#5e5e5e"/><path d="M960 252.5V240" stroke="#5e5e5e" stroke-width="2" fill="none"/><path d="M961 253.5h-2v-1.03h2" fill="#5e5e5e"/><path d="M960 224.74l4.64 14.26h-9.28z" stroke="#5e5e5e" stroke-width="2" fill="#5e5e5e"/><defs><path fill="#333" d="M121 0v-711h367v89H241v213h214v89H241V0H121" id="Q"/><path fill="#333" d="M97 0v-711h116V0H97" id="R"/><path fill="#333" d="M304-544c158 0 237 92 237 277S462 11 304 11C145 11 66-82 66-267s79-277 238-277zm0 471c103 0 122-75 122-194s-20-193-122-193-123 74-123 193c0 120 20 194 123 194" id="S"/><path fill="#333" d="M543 0L433-380 324 0H180L26-533h121l121 423 121-423h121l120 423 122-423h88L687 0H543" id="T"/><path fill="#333" d="M306-453c-94 0-117 78-116 186 0 127 37 191 111 191 47 0 102-14 167-42v85C407-5 344 9 279 9 140 9 70-83 70-267c0-183 77-275 231-275 69 0 122 11 160 34v91c-41-24-92-36-155-36" id="U"/><path fill="#333" d="M380-333c-6-91-1-117-87-118-35 0-70 14-104 42V0H73v-711h116v231c45-41 100-62 167-62 93 0 140 62 140 186V0H380v-333" id="V"/><path fill="#333" d="M278-249c-67 0-94 14-94 76 0 59 14 81 74 80 26 0 61-13 106-40v-120c-28 3-57 4-86 4zM67-173c0-123 64-160 195-160 41 0 75 1 102 4v-84c-3-27-30-40-80-40-47 0-106 16-177 49v-94c53-29 113-44 182-44 127 0 191 53 191 158V0H373v-64C319-15 266 9 213 9 116 9 67-52 67-173" id="W"/><path fill="#333" d="M354-440c-73-24-111-10-153 58V0H85v-533h107v75c56-68 84-93 162-78v96" id="X"/><path fill="#333" d="M285 9C153 3 120-40 121-182v-267H59v-84h62v-111l115-45v156h114v84H236v267c0 85 11 102 89 106 9 0 19-2 29-5v79c-28 7-51 11-69 11" id="Y"/><path fill="#333" d="M100-58c0-36 30-66 66-66s67 30 67 66-31 67-67 67-66-31-66-67zm0-418c0-35 30-66 66-66s67 31 67 66c0 36-31 67-67 67s-66-31-66-67" id="Z"/><g id="a"><use transform="matrix(0.05333333333333329,0,0,0.05333333333333329,0,0)" xlink:href="#Q"/><use transform="matrix(0.05333333333333329,0,0,0.05333333333333329,29.546666666666642,0)" xlink:href="#R"/><use transform="matrix(0.05333333333333329,0,0,0.05333333333333329,45.546666666666624,0)" xlink:href="#S"/><use transform="matrix(0.05333333333333329,0,0,0.05333333333333329,77.33333333333326,0)" xlink:href="#T"/><use transform="matrix(0.05333333333333329,0,0,0.05333333333333329,123.14666666666656,0)" xlink:href="#U"/><use transform="matrix(0.05333333333333329,0,0,0.05333333333333329,152.2133333333332,0)" xlink:href="#V"/><use transform="matrix(0.05333333333333329,0,0,0.05333333333333329,182.45333333333318,0)" xlink:href="#W"/><use transform="matrix(0.05333333333333329,0,0,0.05333333333333329,212.10666666666648,0)" xlink:href="#X"/><use transform="matrix(0.05333333333333329,0,0,0.05333333333333329,232.58666666666647,0)" xlink:href="#Y"/><use transform="matrix(0.05333333333333329,0,0,0.05333333333333329,254.07999999999979,0)" xlink:href="#Z"/></g><path fill="#333" d="M400-267c0-110-5-184-93-184-30 0-66 14-107 42v313c31 17 62 25 93 25 102 0 107-72 107-196zm120-9C519-93 461 9 289 9 223 9 155-7 84-38v-673h116v231c45-41 94-62 147-62 115 0 173 89 173 266" id="aa"/><path fill="#333" d="M202-222V0H87v-711h115v370l192-192h119L329-349 532 0H398L246-266" id="ab"/><g id="b"><use transform="matrix(0.05333333333333329,0,0,0.05333333333333329,0,0)" xlink:href="#aa"/><use transform="matrix(0.05333333333333329,0,0,0.05333333333333329,31.359999999999975,0)" xlink:href="#S"/><use transform="matrix(0.05333333333333329,0,0,0.05333333333333329,63.14666666666661,0)" xlink:href="#S"/><use transform="matrix(0.05333333333333329,0,0,0.05333333333333329,94.93333333333325,0)" xlink:href="#ab"/></g><use transform="matrix(0.05333333333333329,0,0,0.05333333333333329,0,0)" xlink:href="#W" id="c"/><path fill="#333" d="M158-533c-1-144 30-181 164-187 16 0 39 2 69 7v80c-36-7-93 0-103 13-9 11-15 40-15 87h111v84H273V0H158v-449H78v-84h80" id="ac"/><path fill="#333" d="M95-689c0-36 31-67 67-67s66 31 66 67-30 66-66 66-67-30-67-66zm8 689v-533h116V0H103" id="ad"/><path fill="#333" d="M302-462c-101 0-106 66-106 182 0 109-2 160 93 160 31 0 66-15 107-44v-287c-21-7-53-11-94-11zM76-276c0-174 63-264 231-266 25 0 93 3 204 9v462c2 157-67 258-211 258-87 0-145-13-175-38V66c37 24 89 36 158 36 92 0 128-79 121-200-51 47-103 71-155 71C123-27 75-136 76-276" id="ae"/><g id="d"><use transform="matrix(0.05333333333333329,0,0,0.05333333333333329,0,0)" xlink:href="#ac"/><use transform="matrix(0.05333333333333329,0,0,0.05333333333333329,24.906666666666645,0)" xlink:href="#R"/><use transform="matrix(0.05333333333333329,0,0,0.05333333333333329,40.90666666666663,0)" xlink:href="#ad"/><use transform="matrix(0.05333333333333329,0,0,0.05333333333333329,57.333333333333286,0)" xlink:href="#ae"/><use transform="matrix(0.05333333333333329,0,0,0.05333333333333329,88.79999999999993,0)" xlink:href="#V"/><use transform="matrix(0.05333333333333329,0,0,0.05333333333333329,119.03999999999989,0)" xlink:href="#Y"/></g><path fill="#333" d="M78-356c0-233 75-365 294-365s293 134 293 365c0 233-75 366-293 366S78-123 78-356zM372-82c143 0 168-108 168-274 0-167-25-273-168-273-144 0-169 107-169 273S228-82 372-82" id="af"/><path fill="#333" d="M409-276c0-108-5-173-93-173-30 0-66 15-107 45v308c21 13 52 20 93 20 104 0 107-74 107-200zM93 178v-711h107v62c51-47 103-71 156-71 115 0 173 89 173 266C529-86 452 9 298 9c-26 0-56-7-89-20v189H93" id="ag"/><path fill="#333" d="M178-224c4 93 28 148 115 148 53 0 113-14 180-42v82C408-6 340 9 271 9 130 9 60-83 60-267c0-178 55-272 220-275 139-3 208 80 208 244v74H178zm195-85c0-98-11-149-93-149-89 0-98 49-102 149h195" id="ah"/><path fill="#333" d="M385-333c-6-91-1-117-87-118-35 0-70 14-104 42V0H78v-533h107v60c45-46 103-69 175-69 93 0 140 62 140 186V0H385v-333" id="ai"/><g id="e"><use transform="matrix(0.022222222222222223,0,0,0.022222222222222223,0,0)" xlink:href="#af"/><use transform="matrix(0.022222222222222223,0,0,0.022222222222222223,16.422222222222224,0)" xlink:href="#ag"/><use transform="matrix(0.022222222222222223,0,0,0.022222222222222223,29.48888888888889,0)" xlink:href="#ah"/><use transform="matrix(0.022222222222222223,0,0,0.022222222222222223,41.91111111111111,0)" xlink:href="#ai"/></g><g id="f"><use transform="matrix(0.022222222222222223,0,0,0.022222222222222223,0,0)" xlink:href="#W"/><use transform="matrix(0.022222222222222223,0,0,0.022222222222222223,12.355555555555556,0)" xlink:href="#ag"/><use transform="matrix(0.022222222222222223,0,0,0.022222222222222223,25.422222222222224,0)" xlink:href="#ag"/></g><path fill="#333" d="M424-498c0-85-30-124-116-124h-82v249h69c95-3 129-29 129-125zM106 0v-711h211c154 0 231 71 231 213 0 167-125 228-322 214V0H106" id="aj"/><path fill="#333" d="M178-34L17-533h122l137 422 136-422h89L341-44c-33 101-64 163-90 192-27 30-100 43-163 34v-82c53 7 106 1 106-56 0-20-5-46-16-78" id="ak"/><path fill="#333" d="M368-333c-7-89 4-117-78-118-32 0-64 14-95 42V0H79v-533h107v60c58-77 241-108 280 3 33-38 107-72 173-72 87 0 131 62 131 186V0H655v-333c-7-89 4-117-78-118-31 0-64 14-97 42 9 128 2 274 4 409H368v-333" id="al"/><g id="g"><use transform="matrix(0.022222222222222223,0,0,0.022222222222222223,0,0)" xlink:href="#aj"/><use transform="matrix(0.022222222222222223,0,0,0.022222222222222223,13.222222222222223,0)" xlink:href="#W"/><use transform="matrix(0.022222222222222223,0,0,0.022222222222222223,25.57777777777778,0)" xlink:href="#ak"/><use transform="matrix(0.022222222222222223,0,0,0.022222222222222223,37.111111111111114,0)" xlink:href="#al"/><use transform="matrix(0.022222222222222223,0,0,0.022222222222222223,55.37777777777778,0)" xlink:href="#ah"/><use transform="matrix(0.022222222222222223,0,0,0.022222222222222223,67.8,0)" xlink:href="#ai"/><use transform="matrix(0.022222222222222223,0,0,0.022222222222222223,80.71111111111111,0)" xlink:href="#Y"/></g><path fill="#333" d="M443-162C443-52 367 10 254 9 191 9 131-6 76-36v-89c61 33 113 49 156 49 136 0 120-102 33-132-42-15-86-28-126-47-47-23-67-70-67-129 1-104 68-159 177-158 57 0 109 13 156 38l1 89c-40-29-88-43-143-43-58 0-87 19-87 56-15 59 199 100 198 113 46 29 69 71 69 127" id="am"/><path fill="#333" d="M196-200c6 91 1 117 87 118 35 0 70-14 104-42v-409h116V0H396v-60C351-14 293 9 220 9 127 9 80-53 80-178v-355h116v333" id="an"/><path fill="#333" d="M154-58c0-36 31-66 67-66s67 30 67 66-31 67-67 67-67-31-67-67zm189-433c0-107-4-145-102-145-55 0-110 16-165 47v-84c48-31 103-47 165-47 163 0 214 54 216 220 2 131-70 222-194 224v65h-89v-145h78c61 0 91-45 91-135" id="ao"/><g id="h"><use transform="matrix(0.022222222222222223,0,0,0.022222222222222223,0,0)" xlink:href="#am"/><use transform="matrix(0.022222222222222223,0,0,0.022222222222222223,11.488888888888889,0)" xlink:href="#an"/><use transform="matrix(0.022222222222222223,0,0,0.022222222222222223,24.177777777777777,0)" xlink:href="#U"/><use transform="matrix(0.022222222222222223,0,0,0.022222222222222223,36.28888888888889,0)" xlink:href="#U"/><use transform="matrix(0.022222222222222223,0,0,0.022222222222222223,48.4,0)" xlink:href="#ah"/><use transform="matrix(0.022222222222222223,0,0,0.022222222222222223,60.82222222222224,0)" xlink:href="#am"/><use transform="matrix(0.022222222222222223,0,0,0.022222222222222223,72.31111111111112,0)" xlink:href="#am"/><use transform="matrix(0.022222222222222223,0,0,0.022222222222222223,83.80000000000001,0)" xlink:href="#ac"/><use transform="matrix(0.022222222222222223,0,0,0.022222222222222223,94.17777777777778,0)" xlink:href="#an"/><use transform="matrix(0.022222222222222223,0,0,0.022222222222222223,106.86666666666667,0)" xlink:href="#R"/><use transform="matrix(0.022222222222222223,0,0,0.022222222222222223,113.53333333333333,0)" xlink:href="#ao"/></g><path fill="#333" d="M198-182L143 0H49l218-711h126L611 0H485l-56-182H198zm206-85l-90-293-90 293h180" id="ap"/><g id="i"><use transform="matrix(0.022222222222222223,0,0,0.022222222222222223,0,0)" xlink:href="#ap"/><use transform="matrix(0.022222222222222223,0,0,0.022222222222222223,14.933333333333334,0)" xlink:href="#aa"/><use transform="matrix(0.022222222222222223,0,0,0.022222222222222223,28,0)" xlink:href="#S"/><use transform="matrix(0.022222222222222223,0,0,0.022222222222222223,41.24444444444445,0)" xlink:href="#X"/><use transform="matrix(0.022222222222222223,0,0,0.022222222222222223,49.77777777777778,0)" xlink:href="#Y"/></g><g id="j"><use transform="matrix(0.022222222222222223,0,0,0.022222222222222223,0,0)" xlink:href="#ag"/><use transform="matrix(0.022222222222222223,0,0,0.022222222222222223,13.066666666666666,0)" xlink:href="#W"/><use transform="matrix(0.022222222222222223,0,0,0.022222222222222223,25.422222222222224,0)" xlink:href="#ak"/><use transform="matrix(0.022222222222222223,0,0,0.022222222222222223,36.955555555555556,0)" xlink:href="#al"/><use transform="matrix(0.022222222222222223,0,0,0.022222222222222223,55.22222222222222,0)" xlink:href="#ah"/><use transform="matrix(0.022222222222222223,0,0,0.022222222222222223,67.64444444444445,0)" xlink:href="#ai"/><use transform="matrix(0.022222222222222223,0,0,0.022222222222222223,80.55555555555556,0)" xlink:href="#Y"/><use transform="matrix(0.022222222222222223,0,0,0.022222222222222223,89.51111111111112,0)" xlink:href="#ao"/></g><path fill="#333" d="M537-218C537-84 425 10 292 9 210 9 139-12 80-54l-1-103c85 50 154 75 207 75 69 1 130-30 130-94 0-45-29-80-88-105-54-23-111-40-163-67-61-32-88-95-88-172 0-125 94-200 228-200 64 0 124 18 181 53v115c-65-51-127-77-186-77-72 0-108 28-108 85 0 45 29 81 89 106 55 23 113 40 167 66 61 30 89 86 89 154" id="aq"/><g id="k"><use transform="matrix(0.022222222222222223,0,0,0.022222222222222223,0,0)" xlink:href="#aq"/><use transform="matrix(0.022222222222222223,0,0,0.022222222222222223,13.311111111111112,0)" xlink:href="#ah"/><use transform="matrix(0.022222222222222223,0,0,0.022222222222222223,25.733333333333334,0)" xlink:href="#W"/><use transform="matrix(0.022222222222222223,0,0,0.022222222222222223,38.08888888888889,0)" xlink:href="#X"/><use transform="matrix(0.022222222222222223,0,0,0.022222222222222223,46.62222222222223,0)" xlink:href="#U"/><use transform="matrix(0.022222222222222223,0,0,0.022222222222222223,58.733333333333334,0)" xlink:href="#V"/></g><g id="l"><use transform="matrix(0.022222222222222223,0,0,0.022222222222222223,0,0)" xlink:href="#ac"/><use transform="matrix(0.022222222222222223,0,0,0.022222222222222223,10.377777777777778,0)" xlink:href="#R"/><use transform="matrix(0.022222222222222223,0,0,0.022222222222222223,17.044444444444444,0)" xlink:href="#ad"/><use transform="matrix(0.022222222222222223,0,0,0.022222222222222223,23.88888888888889,0)" xlink:href="#ae"/><use transform="matrix(0.022222222222222223,0,0,0.022222222222222223,37,0)" xlink:href="#V"/><use transform="matrix(0.022222222222222223,0,0,0.022222222222222223,49.6,0)" xlink:href="#Y"/><use transform="matrix(0.022222222222222223,0,0,0.022222222222222223,58.55555555555556,0)" xlink:href="#am"/></g><path fill="#333" d="M484 0H131v-711h120v622h233V0" id="ar"/><g id="m"><use transform="matrix(0.022222222222222223,0,0,0.022222222222222223,0,0)" xlink:href="#ar"/><use transform="matrix(0.022222222222222223,0,0,0.022222222222222223,11.88888888888889,0)" xlink:href="#S"/><use transform="matrix(0.022222222222222223,0,0,0.022222222222222223,25.133333333333333,0)" xlink:href="#ae"/></g><g id="n"><use transform="matrix(0.022222222222222223,0,0,0.022222222222222223,0,0)" xlink:href="#ad"/><use transform="matrix(0.022222222222222223,0,0,0.022222222222222223,6.844444444444445,0)" xlink:href="#ai"/></g><path fill="#333" d="M307-89c88 0 132-36 132-107 0-83-40-124-119-124h-87v231h74zm110-435c0-53-31-98-84-98H233v213c108 8 184-7 184-115zm-9 160c88 9 153 73 153 168C561-65 476 0 307 0H113v-711h225c134 0 201 62 201 187 0 93-44 146-131 160" id="as"/><g id="o"><use transform="matrix(0.022222222222222223,0,0,0.022222222222222223,0,0)" xlink:href="#as"/><use transform="matrix(0.022222222222222223,0,0,0.022222222222222223,13.955555555555556,0)" xlink:href="#S"/><use transform="matrix(0.022222222222222223,0,0,0.022222222222222223,27.2,0)" xlink:href="#S"/><use transform="matrix(0.022222222222222223,0,0,0.022222222222222223,40.44444444444445,0)" xlink:href="#ab"/><use transform="matrix(0.022222222222222223,0,0,0.022222222222222223,53.17777777777778,0)" xlink:href="#ad"/><use transform="matrix(0.022222222222222223,0,0,0.022222222222222223,60.022222222222226,0)" xlink:href="#ai"/><use transform="matrix(0.022222222222222223,0,0,0.022222222222222223,72.93333333333334,0)" xlink:href="#ae"/></g><g id="p"><use transform="matrix(0.022222222222222223,0,0,0.022222222222222223,0,0)" xlink:href="#am"/><use transform="matrix(0.022222222222222223,0,0,0.022222222222222223,11.488888888888889,0)" xlink:href="#an"/><use transform="matrix(0.022222222222222223,0,0,0.022222222222222223,24.177777777777777,0)" xlink:href="#U"/><use transform="matrix(0.022222222222222223,0,0,0.022222222222222223,36.28888888888889,0)" xlink:href="#U"/><use transform="matrix(0.022222222222222223,0,0,0.022222222222222223,48.4,0)" xlink:href="#ah"/><use transform="matrix(0.022222222222222223,0,0,0.022222222222222223,60.82222222222224,0)" xlink:href="#am"/><use transform="matrix(0.022222222222222223,0,0,0.022222222222222223,72.31111111111112,0)" xlink:href="#am"/><use transform="matrix(0.022222222222222223,0,0,0.022222222222222223,83.80000000000001,0)" xlink:href="#ac"/><use transform="matrix(0.022222222222222223,0,0,0.022222222222222223,94.17777777777778,0)" xlink:href="#an"/><use transform="matrix(0.022222222222222223,0,0,0.022222222222222223,106.86666666666667,0)" xlink:href="#R"/></g><path fill="#333" d="M196-258c0 109 5 174 93 174 31 0 66-15 107-45v-318c-21-7-53-11-94-11-105 0-106 73-106 200zm-120 0c0-186 56-281 231-284 25 0 55 5 89 15v-184h115V0H404v-62C353-15 301 9 249 9 134 9 76-80 76-258" id="at"/><g id="q"><use transform="matrix(0.022222222222222223,0,0,0.022222222222222223,0,0)" xlink:href="#W"/><use transform="matrix(0.022222222222222223,0,0,0.022222222222222223,12.355555555555556,0)" xlink:href="#aa"/><use transform="matrix(0.022222222222222223,0,0,0.022222222222222223,25.422222222222224,0)" xlink:href="#S"/><use transform="matrix(0.022222222222222223,0,0,0.022222222222222223,38.66666666666667,0)" xlink:href="#X"/><use transform="matrix(0.022222222222222223,0,0,0.022222222222222223,47.2,0)" xlink:href="#Y"/><use transform="matrix(0.022222222222222223,0,0,0.022222222222222223,56.15555555555556,0)" xlink:href="#ah"/><use transform="matrix(0.022222222222222223,0,0,0.022222222222222223,68.57777777777778,0)" xlink:href="#at"/></g><path fill="#333" d="M450-409v89H236v231h252V0H116v-711h367v89H236v213h214" id="au"/><g id="r"><use transform="matrix(0.022222222222222223,0,0,0.022222222222222223,0,0)" xlink:href="#au"/><use transform="matrix(0.022222222222222223,0,0,0.022222222222222223,12.444444444444445,0)" xlink:href="#ai"/><use transform="matrix(0.022222222222222223,0,0,0.022222222222222223,25.355555555555558,0)" xlink:href="#Y"/><use transform="matrix(0.022222222222222223,0,0,0.022222222222222223,34.31111111111111,0)" xlink:href="#ah"/><use transform="matrix(0.022222222222222223,0,0,0.022222222222222223,46.733333333333334,0)" xlink:href="#X"/></g><g id="s"><use transform="matrix(0.022222222222222223,0,0,0.022222222222222223,0,0)" xlink:href="#ac"/><use transform="matrix(0.022222222222222223,0,0,0.022222222222222223,10.377777777777778,0)" xlink:href="#R"/><use transform="matrix(0.022222222222222223,0,0,0.022222222222222223,17.044444444444444,0)" xlink:href="#ad"/><use transform="matrix(0.022222222222222223,0,0,0.022222222222222223,23.88888888888889,0)" xlink:href="#ae"/><use transform="matrix(0.022222222222222223,0,0,0.022222222222222223,37,0)" xlink:href="#V"/><use transform="matrix(0.022222222222222223,0,0,0.022222222222222223,49.6,0)" xlink:href="#Y"/></g><g id="t"><use transform="matrix(0.022222222222222223,0,0,0.022222222222222223,0,0)" xlink:href="#at"/><use transform="matrix(0.022222222222222223,0,0,0.022222222222222223,13.488888888888889,0)" xlink:href="#ah"/><use transform="matrix(0.022222222222222223,0,0,0.022222222222222223,25.91111111111111,0)" xlink:href="#Y"/><use transform="matrix(0.022222222222222223,0,0,0.022222222222222223,34.86666666666667,0)" xlink:href="#W"/><use transform="matrix(0.022222222222222223,0,0,0.022222222222222223,47.22222222222222,0)" xlink:href="#ad"/><use transform="matrix(0.022222222222222223,0,0,0.022222222222222223,54.066666666666656,0)" xlink:href="#R"/><use transform="matrix(0.022222222222222223,0,0,0.022222222222222223,60.73333333333333,0)" xlink:href="#am"/></g><path fill="#333" d="M417-524c0-53-31-98-84-98H224v213c111 8 193-3 193-115zm122 0c0 81-62 145-131 161 34 12 67 62 99 149L586 0H457l-79-217c-40-96-55-111-154-103V0H104v-711h234c134 0 201 62 201 187" id="av"/><g id="u"><use transform="matrix(0.022222222222222223,0,0,0.022222222222222223,0,0)" xlink:href="#av"/><use transform="matrix(0.022222222222222223,0,0,0.022222222222222223,14.044444444444444,0)" xlink:href="#ah"/><use transform="matrix(0.022222222222222223,0,0,0.022222222222222223,26.46666666666667,0)" xlink:href="#ae"/><use transform="matrix(0.022222222222222223,0,0,0.022222222222222223,39.57777777777778,0)" xlink:href="#ad"/><use transform="matrix(0.022222222222222223,0,0,0.022222222222222223,46.42222222222223,0)" xlink:href="#am"/><use transform="matrix(0.022222222222222223,0,0,0.022222222222222223,57.911111111111126,0)" xlink:href="#Y"/><use transform="matrix(0.022222222222222223,0,0,0.022222222222222223,66.86666666666667,0)" xlink:href="#ah"/><use transform="matrix(0.022222222222222223,0,0,0.022222222222222223,79.28888888888889,0)" xlink:href="#X"/></g><g id="v"><use transform="matrix(0.022222222222222223,0,0,0.022222222222222223,0,0)" xlink:href="#aj"/><use transform="matrix(0.022222222222222223,0,0,0.022222222222222223,13.222222222222223,0)" xlink:href="#W"/><use transform="matrix(0.022222222222222223,0,0,0.022222222222222223,25.57777777777778,0)" xlink:href="#ak"/><use transform="matrix(0.022222222222222223,0,0,0.022222222222222223,37.111111111111114,0)" xlink:href="#al"/><use transform="matrix(0.022222222222222223,0,0,0.022222222222222223,55.37777777777778,0)" xlink:href="#ah"/><use transform="matrix(0.022222222222222223,0,0,0.022222222222222223,67.8,0)" xlink:href="#ai"/><use transform="matrix(0.022222222222222223,0,0,0.022222222222222223,80.71111111111111,0)" xlink:href="#Y"/></g><path fill="#333" d="M218-356c0 169 29 274 178 274 60 0 120-22 180-67v107C513-8 453 9 396 9 168 6 93-118 93-356c0-239 76-360 303-364 61 0 118 16 171 49v111c-47-46-104-69-171-69-149 0-178 104-178 273" id="aw"/><g id="w"><use transform="matrix(0.022222222222222223,0,0,0.022222222222222223,0,0)" xlink:href="#aw"/><use transform="matrix(0.022222222222222223,0,0,0.022222222222222223,14.777777777777779,0)" xlink:href="#S"/><use transform="matrix(0.022222222222222223,0,0,0.022222222222222223,28.022222222222222,0)" xlink:href="#ai"/><use transform="matrix(0.022222222222222223,0,0,0.022222222222222223,40.93333333333334,0)" xlink:href="#ac"/><use transform="matrix(0.022222222222222223,0,0,0.022222222222222223,51.31111111111111,0)" xlink:href="#ad"/><use transform="matrix(0.022222222222222223,0,0,0.022222222222222223,58.155555555555566,0)" xlink:href="#X"/><use transform="matrix(0.022222222222222223,0,0,0.022222222222222223,66.6888888888889,0)" xlink:href="#al"/></g><g id="x"><use transform="matrix(0.022222222222222223,0,0,0.022222222222222223,0,0)" xlink:href="#aa"/><use transform="matrix(0.022222222222222223,0,0,0.022222222222222223,13.066666666666666,0)" xlink:href="#S"/><use transform="matrix(0.022222222222222223,0,0,0.022222222222222223,26.311111111111114,0)" xlink:href="#S"/><use transform="matrix(0.022222222222222223,0,0,0.022222222222222223,39.55555555555556,0)" xlink:href="#ab"/><use transform="matrix(0.022222222222222223,0,0,0.022222222222222223,52.28888888888889,0)" xlink:href="#ad"/><use transform="matrix(0.022222222222222223,0,0,0.022222222222222223,59.13333333333333,0)" xlink:href="#ai"/><use transform="matrix(0.022222222222222223,0,0,0.022222222222222223,72.04444444444445,0)" xlink:href="#ae"/></g><g id="y"><use transform="matrix(0.022222222222222223,0,0,0.022222222222222223,0,0)" xlink:href="#aq"/><use transform="matrix(0.022222222222222223,0,0,0.022222222222222223,13.311111111111112,0)" xlink:href="#ah"/><use transform="matrix(0.022222222222222223,0,0,0.022222222222222223,25.733333333333334,0)" xlink:href="#R"/><use transform="matrix(0.022222222222222223,0,0,0.022222222222222223,32.4,0)" xlink:href="#ah"/><use transform="matrix(0.022222222222222223,0,0,0.022222222222222223,44.82222222222222,0)" xlink:href="#U"/><use transform="matrix(0.022222222222222223,0,0,0.022222222222222223,56.93333333333334,0)" xlink:href="#Y"/></g><g id="z"><use transform="matrix(0.022222222222222223,0,0,0.022222222222222223,0,0)" xlink:href="#ac"/><use transform="matrix(0.022222222222222223,0,0,0.022222222222222223,10.377777777777778,0)" xlink:href="#R"/><use transform="matrix(0.022222222222222223,0,0,0.022222222222222223,17.044444444444444,0)" xlink:href="#ad"/><use transform="matrix(0.022222222222222223,0,0,0.022222222222222223,23.88888888888889,0)" xlink:href="#ae"/><use transform="matrix(0.022222222222222223,0,0,0.022222222222222223,37,0)" xlink:href="#V"/><use transform="matrix(0.022222222222222223,0,0,0.022222222222222223,49.6,0)" xlink:href="#Y"/></g><path fill="#333" d="M347 13C175 13 76-71 76-240v-471h177v489c0 89 39 133 116 133s115-44 115-133v-489h134v471c0 169-99 253-271 253" id="ax"/><path fill="#333" d="M60-376c0-114 86-173 209-171 58 0 109 11 154 34v109c-32-30-85-45-159-45-43 0-64 18-64 53 0 18 22 34 66 47 119 36 188 67 188 191 0 114-73 171-220 171-60 0-115-16-164-49v-115c43 43 93 64 150 64 47 0 79-8 87-42 15-60-182-101-183-115-43-29-64-73-64-132" id="ay"/><path fill="#333" d="M222-222c2 98 18 133 107 133 63 0 123-16 180-49v102C444-3 377 13 307 13 136 13 51-80 51-267c0-184 66-280 242-280 209 0 233 93 236 325H222zm74-222c-63 0-75 56-74 133h147c0-49-2-78-5-89-9-29-31-44-68-44" id="az"/><path fill="#333" d="M390-425c-62-19-102-5-147 52V0H81v-533h153v71c45-61 87-90 156-76v113" id="aA"/><g id="A"><use transform="matrix(0.017777777777777778,0,0,0.017777777777777778,0,0)" xlink:href="#ax"/><use transform="matrix(0.017777777777777778,0,0,0.017777777777777778,12.515555555555556,0)" xlink:href="#ay"/><use transform="matrix(0.017777777777777778,0,0,0.017777777777777778,21.47555555555556,0)" xlink:href="#az"/><use transform="matrix(0.017777777777777778,0,0,0.017777777777777778,31.662222222222226,0)" xlink:href="#aA"/></g><path fill="#333" d="M130-533c2-153 79-185 240-191 12 0 28 1 49 4v96c-47-6-100-6-116 25-7 13-11 35-11 66h98v97h-98V0H130v-436H55v-97h75" id="aB"/><path fill="#333" d="M316-547c179 0 268 93 268 280S495 13 316 13 47-80 47-267s90-280 269-280zm0 458c93 0 106-65 106-178 0-112-12-177-106-177s-107 65-107 177c0 114 13 178 107 178" id="aC"/><path fill="#333" d="M256 9C157 11 76-39 76-133v-400h162v364c0 89 103 78 155 33v-397h163V0H402v-56C357-13 308 9 256 9" id="aD"/><path fill="#333" d="M391-542c99-2 180 48 180 142V0H409v-364c0-88-103-78-156-34V0H91v-533h153v55c46-43 95-64 147-64" id="aE"/><path fill="#333" d="M238-267c0 95 2 156 71 156 19 0 44-10 75-31v-294c-19-9-41-13-66-13-74 0-80 80-80 182zm-171 0c0-195 53-275 237-280 22 0 49 6 80 18v-182h163V0H393v-62c-53 50-104 75-151 75C98 13 67-101 67-267" id="aF"/><g id="B"><use transform="matrix(0.017777777777777778,0,0,0.017777777777777778,0,0)" xlink:href="#aB"/><use transform="matrix(0.017777777777777778,0,0,0.017777777777777778,7.946666666666666,0)" xlink:href="#aC"/><use transform="matrix(0.017777777777777778,0,0,0.017777777777777778,19.217777777777776,0)" xlink:href="#aD"/><use transform="matrix(0.017777777777777778,0,0,0.017777777777777778,30.488888888888887,0)" xlink:href="#aE"/><use transform="matrix(0.017777777777777778,0,0,0.017777777777777778,41.92,0)" xlink:href="#aF"/></g><path fill="#333" d="M273-178c-6 81 35 104 111 85V9c-44 3-73 4-86 4-152-5-187-36-187-191v-258H35v-97h76v-111l162-45v156h124v97H273v258" id="aG"/><g id="C"><use transform="matrix(0.017777777777777778,0,0,0.017777777777777778,0,0)" xlink:href="#aE"/><use transform="matrix(0.017777777777777778,0,0,0.017777777777777778,11.431111111111111,0)" xlink:href="#aC"/><use transform="matrix(0.017777777777777778,0,0,0.017777777777777778,22.702222222222222,0)" xlink:href="#aG"/></g><path fill="#333" d="M276 0H98v-711h413v107H276v191h200v106H276V0" id="aH"/><path fill="#333" d="M110 0v-711h162V0H110" id="aI"/><path fill="#333" d="M182-756c59 0 89 25 89 76s-30 76-89 76-89-25-89-76 30-76 89-76zM98 0v-533h162V0H98" id="aJ"/><path fill="#333" d="M238-289c0 82 7 138 71 138 19 0 44-13 75-40v-242c-11-12-36-18-75-18-47 0-71 54-71 162zm66-258c69 0 164 19 243 14v444c0 187-86 280-258 280-61 0-121-15-182-44V44c53 30 112 45 175 45 105 0 104-89 102-196-47 51-95 76-142 76-117 0-175-86-175-258 0-180 62-258 237-258" id="aK"/><path fill="#333" d="M391-542c99-2 180 48 180 142V0H409v-364c0-88-103-78-156-34V0H91v-711h153v233c46-43 95-64 147-64" id="aL"/><g id="D"><use transform="matrix(0.017777777777777778,0,0,0.017777777777777778,0,0)" xlink:href="#aH"/><use transform="matrix(0.017777777777777778,0,0,0.017777777777777778,9.973333333333333,0)" xlink:href="#aI"/><use transform="matrix(0.017777777777777778,0,0,0.017777777777777778,16.426666666666666,0)" xlink:href="#aJ"/><use transform="matrix(0.017777777777777778,0,0,0.017777777777777778,22.73777777777778,0)" xlink:href="#aK"/><use transform="matrix(0.017777777777777778,0,0,0.017777777777777778,33.83111111111111,0)" xlink:href="#aL"/><use transform="matrix(0.017777777777777778,0,0,0.017777777777777778,45.51111111111111,0)" xlink:href="#aG"/><use transform="matrix(0.017777777777777778,0,0,0.017777777777777778,53.36888888888889,0)" xlink:href="#ay"/></g><path fill="#333" d="M92-711h256l205 535v-535h134V0H431L226-536V0H92v-711" id="aM"/><g id="E"><use transform="matrix(0.017777777777777778,0,0,0.017777777777777778,0,0)" xlink:href="#aM"/><use transform="matrix(0.017777777777777778,0,0,0.017777777777777778,13.742222222222223,0)" xlink:href="#aC"/></g><g id="F"><use transform="matrix(0.017777777777777778,0,0,0.017777777777777778,0,0)" xlink:href="#aB"/><use transform="matrix(0.017777777777777778,0,0,0.017777777777777778,7.946666666666666,0)" xlink:href="#aI"/><use transform="matrix(0.017777777777777778,0,0,0.017777777777777778,14.399999999999999,0)" xlink:href="#aJ"/><use transform="matrix(0.017777777777777778,0,0,0.017777777777777778,20.71111111111111,0)" xlink:href="#aK"/><use transform="matrix(0.017777777777777778,0,0,0.017777777777777778,31.80444444444444,0)" xlink:href="#aL"/><use transform="matrix(0.017777777777777778,0,0,0.017777777777777778,43.48444444444444,0)" xlink:href="#aG"/><use transform="matrix(0.017777777777777778,0,0,0.017777777777777778,51.34222222222222,0)" xlink:href="#ay"/></g><path fill="#333" d="M235-320L27-711h201l122 229 119-229h150L413-321V0H235v-320" id="aN"/><g id="G"><use transform="matrix(0.017777777777777778,0,0,0.017777777777777778,0,0)" xlink:href="#aN"/><use transform="matrix(0.017777777777777778,0,0,0.017777777777777778,11.502222222222223,0)" xlink:href="#az"/><use transform="matrix(0.017777777777777778,0,0,0.017777777777777778,21.68888888888889,0)" xlink:href="#ay"/></g><g id="H"><use transform="matrix(0.017777777777777778,0,0,0.017777777777777778,0,0)" xlink:href="#aM"/><use transform="matrix(0.017777777777777778,0,0,0.017777777777777778,13.742222222222223,0)" xlink:href="#aC"/></g><g id="I"><use transform="matrix(0.05333333333333333,0,0,0.05333333333333333,0,0)" xlink:href="#Q"/><use transform="matrix(0.05333333333333333,0,0,0.05333333333333333,29.546666666666663,0)" xlink:href="#R"/><use transform="matrix(0.05333333333333333,0,0,0.05333333333333333,45.54666666666666,0)" xlink:href="#S"/><use transform="matrix(0.05333333333333333,0,0,0.05333333333333333,77.33333333333333,0)" xlink:href="#T"/><use transform="matrix(0.05333333333333333,0,0,0.05333333333333333,123.14666666666666,0)" xlink:href="#U"/><use transform="matrix(0.05333333333333333,0,0,0.05333333333333333,152.21333333333334,0)" xlink:href="#V"/><use transform="matrix(0.05333333333333333,0,0,0.05333333333333333,182.45333333333335,0)" xlink:href="#W"/><use transform="matrix(0.05333333333333333,0,0,0.05333333333333333,212.10666666666668,0)" xlink:href="#X"/><use transform="matrix(0.05333333333333333,0,0,0.05333333333333333,232.58666666666664,0)" xlink:href="#Y"/><use transform="matrix(0.05333333333333333,0,0,0.05333333333333333,254.08000000000004,0)" xlink:href="#Z"/></g><g id="J"><use transform="matrix(0.05333333333333333,0,0,0.05333333333333333,0,0)" xlink:href="#S"/><use transform="matrix(0.05333333333333333,0,0,0.05333333333333333,31.786666666666665,0)" xlink:href="#X"/><use transform="matrix(0.05333333333333333,0,0,0.05333333333333333,52.266666666666666,0)" xlink:href="#at"/><use transform="matrix(0.05333333333333333,0,0,0.05333333333333333,84.63999999999999,0)" xlink:href="#ah"/><use transform="matrix(0.05333333333333333,0,0,0.05333333333333333,114.45333333333332,0)" xlink:href="#X"/></g><g id="K"><use transform="matrix(0.05333333333333333,0,0,0.05333333333333333,0,0)" xlink:href="#ac"/><use transform="matrix(0.05333333333333333,0,0,0.05333333333333333,24.906666666666666,0)" xlink:href="#S"/><use transform="matrix(0.05333333333333333,0,0,0.05333333333333333,56.69333333333333,0)" xlink:href="#S"/><use transform="matrix(0.05333333333333333,0,0,0.05333333333333333,88.47999999999999,0)" xlink:href="#at"/></g><g id="L"><use transform="matrix(0.05333333333333329,0,0,0.05333333333333329,0,0)" xlink:href="#Q"/><use transform="matrix(0.05333333333333329,0,0,0.05333333333333329,29.546666666666642,0)" xlink:href="#R"/><use transform="matrix(0.05333333333333329,0,0,0.05333333333333329,45.546666666666624,0)" xlink:href="#S"/><use transform="matrix(0.05333333333333329,0,0,0.05333333333333329,77.33333333333326,0)" xlink:href="#T"/><use transform="matrix(0.05333333333333329,0,0,0.05333333333333329,123.14666666666656,0)" xlink:href="#U"/><use transform="matrix(0.05333333333333329,0,0,0.05333333333333329,152.2133333333332,0)" xlink:href="#V"/><use transform="matrix(0.05333333333333329,0,0,0.05333333333333329,182.45333333333318,0)" xlink:href="#W"/><use transform="matrix(0.05333333333333329,0,0,0.05333333333333329,212.10666666666648,0)" xlink:href="#X"/><use transform="matrix(0.05333333333333329,0,0,0.05333333333333329,232.58666666666647,0)" xlink:href="#Y"/><use transform="matrix(0.05333333333333329,0,0,0.05333333333333329,254.07999999999979,0)" xlink:href="#Z"/></g><g id="M"><use transform="matrix(0.05333333333333329,0,0,0.05333333333333329,0,0)" xlink:href="#U"/><use transform="matrix(0.05333333333333329,0,0,0.05333333333333329,29.06666666666664,0)" xlink:href="#W"/><use transform="matrix(0.05333333333333329,0,0,0.05333333333333329,58.71999999999995,0)" xlink:href="#ai"/><use transform="matrix(0.05333333333333329,0,0,0.05333333333333329,89.70666666666659,0)" xlink:href="#U"/><use transform="matrix(0.05333333333333329,0,0,0.05333333333333329,118.77333333333323,0)" xlink:href="#ah"/><use transform="matrix(0.05333333333333329,0,0,0.05333333333333329,148.58666666666653,0)" xlink:href="#R"/></g><g id="N"><use transform="matrix(0.05333333333333329,0,0,0.05333333333333329,0,0)" xlink:href="#aa"/><use transform="matrix(0.05333333333333329,0,0,0.05333333333333329,31.359999999999975,0)" xlink:href="#S"/><use transform="matrix(0.05333333333333329,0,0,0.05333333333333329,63.14666666666661,0)" xlink:href="#S"/><use transform="matrix(0.05333333333333329,0,0,0.05333333333333329,94.93333333333325,0)" xlink:href="#ab"/><use transform="matrix(0.05333333333333329,0,0,0.05333333333333329,125.49333333333323,0)" xlink:href="#ad"/><use transform="matrix(0.05333333333333329,0,0,0.05333333333333329,141.91999999999987,0)" xlink:href="#ai"/><use transform="matrix(0.05333333333333329,0,0,0.05333333333333329,172.90666666666652,0)" xlink:href="#ae"/></g><g id="O"><use transform="matrix(0.022222222222222223,0,0,0.022222222222222223,0,0)" xlink:href="#U"/><use transform="matrix(0.022222222222222223,0,0,0.022222222222222223,12.11111111111111,0)" xlink:href="#R"/><use transform="matrix(0.022222222222222223,0,0,0.022222222222222223,18.77777777777778,0)" xlink:href="#W"/><use transform="matrix(0.022222222222222223,0,0,0.022222222222222223,31.133333333333333,0)" xlink:href="#am"/><use transform="matrix(0.022222222222222223,0,0,0.022222222222222223,42.62222222222222,0)" xlink:href="#am"/></g><g id="P"><use transform="matrix(0.022222222222222223,0,0,0.022222222222222223,0,0)" xlink:href="#am"/><use transform="matrix(0.022222222222222223,0,0,0.022222222222222223,11.488888888888889,0)" xlink:href="#ah"/><use transform="matrix(0.022222222222222223,0,0,0.022222222222222223,23.91111111111111,0)" xlink:href="#W"/><use transform="matrix(0.022222222222222223,0,0,0.022222222222222223,36.266666666666666,0)" xlink:href="#Y"/><use transform="matrix(0.022222222222222223,0,0,0.022222222222222223,45.22222222222222,0)" xlink:href="#am"/></g></defs></g></svg>