<svg xmlns="http://www.w3.org/2000/svg" xmlns:xlink="http://www.w3.org/1999/xlink" xmlns:lucid="lucid" width="932" height="845"><g transform="translate(-836 -788)" lucid:page-tab-id="0_0"><path d="M0 0h5484.6v3840.5H0z" fill="#fff"/><path d="M1568 700c17.67 0 32 17.9 32 40s-14.33 40-32 40h-96c-17.67 0-32-17.9-32-40s14.33-40 32-40z" stroke="#5e5e5e" stroke-width="3" fill="#fff"/><use xlink:href="#a" transform="matrix(1,0,0,1,1445,705) translate(31.977777777777774 30.90277777777778)"/><use xlink:href="#b" transform="matrix(1,0,0,1,1445,705) translate(33.96666666666666 53.125)"/><path d="M960 762.67c0-3.32 2.7-6 6-6h708c3.3 0 6 2.68 6 6v254c0 3.3-2.7 6-6 6H966c-3.3 0-6-2.7-6-6z" stroke="#000" stroke-opacity="0" stroke-width="3" fill="#fff" fill-opacity="0"/><use xlink:href="#c" transform="matrix(1,0,0,1,965,761.6666666666666) translate(22.86666666666696 146.66666666666663)"/><use xlink:href="#d" transform="matrix(1,0,0,1,965,761.6666666666666) translate(306.33333333333337 146.66666666666663)"/><use xlink:href="#e" transform="matrix(1,0,0,1,965,761.6666666666666) translate(482.7599999999999 146.66666666666663)"/><path d="M1128 980c17.67 0 32 17.9 32 40s-14.33 40-32 40h-96c-17.67 0-32-17.9-32-40s14.33-40 32-40z" stroke="#5e5e5e" stroke-width="3" fill="#fff"/><use xlink:href="#f" transform="matrix(1,0,0,1,1005,985) translate(25.877777777777773 41.84027777777778)"/><use xlink:href="#g" transform="matrix(1,0,0,1,1005,985) translate(85.63333333333333 41.84027777777778)"/><path d="M1095.2 1283.6c2.65-2 6.95-2 9.6 0l70.4 52.8c2.65 2 2.65 5.2 0 7.2l-70.4 52.8c-2.65 2-6.95 2-9.6 0l-70.4-52.8c-2.65-2-2.65-5.2 0-7.2z" stroke="#5e5e5e" stroke-width="3" fill="#fff"/><use xlink:href="#h" transform="matrix(1,0,0,1,1025,1285) translate(20.52222222222222 50.55555555555556)"/><use xlink:href="#i" transform="matrix(1,0,0,1,1025,1285) translate(43.34444444444444 50.55555555555556)"/><use xlink:href="#j" transform="matrix(1,0,0,1,1025,1285) translate(61.322222222222216 50.55555555555556)"/><use xlink:href="#k" transform="matrix(1,0,0,1,1025,1285) translate(8.266666666666666 72.77777777777777)"/><use xlink:href="#l" transform="matrix(1,0,0,1,1025,1285) translate(61.266666666666666 72.77777777777777)"/><path d="M1360 966c0-3.3 2.7-6 6-6h148c3.3 0 6 2.7 6 6v108c0 3.3-2.7 6-6 6h-148c-3.3 0-6-2.7-6-6z" stroke="#5e5e5e" stroke-width="3" fill="#fff"/><use xlink:href="#m" transform="matrix(1,0,0,1,1372,972) translate(36.53333333333333 53.77777777777778)"/><use xlink:href="#n" transform="matrix(1,0,0,1,1372,972) translate(79.71111111111111 53.77777777777778)"/><path d="M1488 1440c17.67 0 32 17.9 32 40s-14.33 40-32 40h-96c-17.67 0-32-17.9-32-40s14.33-40 32-40z" stroke="#5e5e5e" stroke-width="3" fill="#fff"/><use xlink:href="#o" transform="matrix(1,0,0,1,1365,1445) translate(31.977777777777774 30.90277777777778)"/><use xlink:href="#p" transform="matrix(1,0,0,1,1365,1445) translate(24.422222222222217 53.125)"/><path d="M1360 1126c0-3.3 2.7-6 6-6h148c3.3 0 6 2.7 6 6v108c0 3.3-2.7 6-6 6h-148c-3.3 0-6-2.7-6-6z" stroke="#5e5e5e" stroke-width="3" fill="#fff"/><use xlink:href="#q" transform="matrix(1,0,0,1,1372,1132) translate(35.05555555555556 44.77777777777778)"/><use xlink:href="#r" transform="matrix(1,0,0,1,1372,1132) translate(25.422222222222217 67)"/><path d="M1020 1126c0-3.3 2.7-6 6-6h148c3.3 0 6 2.7 6 6v108c0 3.3-2.7 6-6 6h-148c-3.3 0-6-2.7-6-6z" stroke="#5e5e5e" stroke-width="3" fill="#fff"/><use xlink:href="#s" transform="matrix(1,0,0,1,1032,1132) translate(25.52222222222222 44.77777777777778)"/><use xlink:href="#t" transform="matrix(1,0,0,1,1032,1132) translate(3.2222222222222143 67)"/><path d="M1360 1286c0-3.3 2.7-6 6-6h148c3.3 0 6 2.7 6 6v108c0 3.3-2.7 6-6 6h-148c-3.3 0-6-2.7-6-6z" stroke="#5e5e5e" stroke-width="3" fill="#fff"/><use xlink:href="#u" transform="matrix(1,0,0,1,1372,1292) translate(27.133333333333333 43.55555555555556)"/><use xlink:href="#v" transform="matrix(1,0,0,1,1372,1292) translate(-10.411111111111111 65.77777777777777)"/><path d="M1440 1082.5v17.5" stroke="#5e5e5e" stroke-width="2" fill="none"/><path d="M1441 1082.53h-2v-1.03h2" fill="#5e5e5e"/><path d="M1440 1115.26l-4.64-14.26h9.28z" stroke="#5e5e5e" stroke-width="2" fill="#5e5e5e"/><path d="M1162.5 1020H1340" stroke="#5e5e5e" stroke-width="2" fill="none"/><path d="M1162.53 1021h-1.1l.07-.98-.03-1.02h1.06" fill="#5e5e5e"/><path d="M1355.26 1020l-14.26 4.64v-9.28z" stroke="#5e5e5e" stroke-width="2" fill="#5e5e5e"/><path d="M1357.5 1180H1200" stroke="#5e5e5e" stroke-width="2" fill="none"/><path d="M1358.5 1181h-1.03v-2h1.03" fill="#5e5e5e"/><path d="M1184.74 1180l14.26-4.64v9.28z" stroke="#5e5e5e" stroke-width="2" fill="#5e5e5e"/><path d="M1101 1473.87l.7 2.64 1.8 1.8 2.63.7h70.98v2h-71.23l-3.42-.92-2.53-2.53-.92-3.42v-73.8h2m239 78.67v2h-139.28v-2" fill="#5e5e5e"/><path d="M1101 1399.35v1h-2v-1.04M1355.26 1480l-14.26 4.64v-9.28z" fill="#5e5e5e"/><path d="M1358.5 1480l-18.5 6v-12m2 9.26l10.03-3.26-10.03-3.26" fill="#5e5e5e"/><g><use xlink:href="#w" transform="matrix(1,0,0,1,1177.111780182174,1469.3333333333333) translate(0.005000000000000782 14.222222222222223)"/></g><path d="M1253.25 1341h-73.64v-2h73.65m86.75 2h-56.14v-2H1340" fill="#5e5e5e"/><path d="M1179.64 1341h-1.1l.18-.4-.28-1.6h1.2M1355.26 1340l-14.26 4.64v-9.28z" fill="#5e5e5e"/><path d="M1358.5 1340l-18.5 6v-12m2 9.26l10.03-3.26-10.03-3.26" fill="#5e5e5e"/><g><use xlink:href="#x" transform="matrix(1,0,0,1,1253.2469205444852,1329.3333333333333) translate(0.005000000000000782 14.222222222222223)"/></g><path d="M1440 1402.5v17.5" stroke="#5e5e5e" stroke-width="2" fill="none"/><path d="M1441 1402.53h-2v-1.03h2" fill="#5e5e5e"/><path d="M1440 1435.26l-4.64-14.26h9.28z" stroke="#5e5e5e" stroke-width="2" fill="#5e5e5e"/><path d="M1100 1242.5v19.67" stroke="#5e5e5e" stroke-width="2" fill="none"/><path d="M1101 1242.53h-2v-1.03h2" fill="#5e5e5e"/><path d="M1100 1277.43l-4.64-14.26h9.28z" stroke="#5e5e5e" stroke-width="2" fill="#5e5e5e"/><defs><path fill="#333" d="M307-89c88 0 132-36 132-107 0-83-40-124-119-124h-87v231h74zm110-435c0-53-31-98-84-98H233v213c108 8 184-7 184-115zm-9 160c88 9 153 73 153 168C561-65 476 0 307 0H113v-711h225c134 0 201 62 201 187 0 93-44 146-131 160" id="y"/><path fill="#333" d="M304-544c158 0 237 92 237 277S462 11 304 11C145 11 66-82 66-267s79-277 238-277zm0 471c103 0 122-75 122-194s-20-193-122-193-123 74-123 193c0 120 20 194 123 194" id="z"/><path fill="#333" d="M202-222V0H87v-711h115v370l192-192h119L329-349 532 0H398L246-266" id="A"/><path fill="#333" d="M95-689c0-36 31-67 67-67s66 31 66 67-30 66-66 66-67-30-67-66zm8 689v-533h116V0H103" id="B"/><path fill="#333" d="M385-333c-6-91-1-117-87-118-35 0-70 14-104 42V0H78v-533h107v60c45-46 103-69 175-69 93 0 140 62 140 186V0H385v-333" id="C"/><path fill="#333" d="M302-462c-101 0-106 66-106 182 0 109-2 160 93 160 31 0 66-15 107-44v-287c-21-7-53-11-94-11zM76-276c0-174 63-264 231-266 25 0 93 3 204 9v462c2 157-67 258-211 258-87 0-145-13-175-38V66c37 24 89 36 158 36 92 0 128-79 121-200-51 47-103 71-155 71C123-27 75-136 76-276" id="D"/><g id="a"><use transform="matrix(0.022222222222222223,0,0,0.022222222222222223,0,0)" xlink:href="#y"/><use transform="matrix(0.022222222222222223,0,0,0.022222222222222223,13.955555555555556,0)" xlink:href="#z"/><use transform="matrix(0.022222222222222223,0,0,0.022222222222222223,27.2,0)" xlink:href="#z"/><use transform="matrix(0.022222222222222223,0,0,0.022222222222222223,40.44444444444445,0)" xlink:href="#A"/><use transform="matrix(0.022222222222222223,0,0,0.022222222222222223,53.17777777777778,0)" xlink:href="#B"/><use transform="matrix(0.022222222222222223,0,0,0.022222222222222223,60.022222222222226,0)" xlink:href="#C"/><use transform="matrix(0.022222222222222223,0,0,0.022222222222222223,72.93333333333334,0)" xlink:href="#D"/></g><path fill="#333" d="M278-249c-67 0-94 14-94 76 0 59 14 81 74 80 26 0 61-13 106-40v-120c-28 3-57 4-86 4zM67-173c0-123 64-160 195-160 41 0 75 1 102 4v-84c-3-27-30-40-80-40-47 0-106 16-177 49v-94c53-29 113-44 182-44 127 0 191 53 191 158V0H373v-64C319-15 266 9 213 9 116 9 67-52 67-173" id="E"/><path fill="#333" d="M400-267c0-110-5-184-93-184-30 0-66 14-107 42v313c31 17 62 25 93 25 102 0 107-72 107-196zm120-9C519-93 461 9 289 9 223 9 155-7 84-38v-673h116v231c45-41 94-62 147-62 115 0 173 89 173 266" id="F"/><path fill="#333" d="M354-440c-73-24-111-10-153 58V0H85v-533h107v75c56-68 84-93 162-78v96" id="G"/><path fill="#333" d="M285 9C153 3 120-40 121-182v-267H59v-84h62v-111l115-45v156h114v84H236v267c0 85 11 102 89 106 9 0 19-2 29-5v79c-28 7-51 11-69 11" id="H"/><path fill="#333" d="M178-224c4 93 28 148 115 148 53 0 113-14 180-42v82C408-6 340 9 271 9 130 9 60-83 60-267c0-178 55-272 220-275 139-3 208 80 208 244v74H178zm195-85c0-98-11-149-93-149-89 0-98 49-102 149h195" id="I"/><path fill="#333" d="M196-258c0 109 5 174 93 174 31 0 66-15 107-45v-318c-21-7-53-11-94-11-105 0-106 73-106 200zm-120 0c0-186 56-281 231-284 25 0 55 5 89 15v-184h115V0H404v-62C353-15 301 9 249 9 134 9 76-80 76-258" id="J"/><g id="b"><use transform="matrix(0.022222222222222223,0,0,0.022222222222222223,0,0)" xlink:href="#E"/><use transform="matrix(0.022222222222222223,0,0,0.022222222222222223,12.355555555555556,0)" xlink:href="#F"/><use transform="matrix(0.022222222222222223,0,0,0.022222222222222223,25.422222222222224,0)" xlink:href="#z"/><use transform="matrix(0.022222222222222223,0,0,0.022222222222222223,38.66666666666667,0)" xlink:href="#G"/><use transform="matrix(0.022222222222222223,0,0,0.022222222222222223,47.2,0)" xlink:href="#H"/><use transform="matrix(0.022222222222222223,0,0,0.022222222222222223,56.15555555555556,0)" xlink:href="#I"/><use transform="matrix(0.022222222222222223,0,0,0.022222222222222223,68.57777777777778,0)" xlink:href="#J"/></g><path fill="#333" d="M121 0v-711h367v89H241v213h214v89H241V0H121" id="K"/><path fill="#333" d="M97 0v-711h116V0H97" id="L"/><path fill="#333" d="M543 0L433-380 324 0H180L26-533h121l121 423 121-423h121l120 423 122-423h88L687 0H543" id="M"/><path fill="#333" d="M306-453c-94 0-117 78-116 186 0 127 37 191 111 191 47 0 102-14 167-42v85C407-5 344 9 279 9 140 9 70-83 70-267c0-183 77-275 231-275 69 0 122 11 160 34v91c-41-24-92-36-155-36" id="N"/><path fill="#333" d="M380-333c-6-91-1-117-87-118-35 0-70 14-104 42V0H73v-711h116v231c45-41 100-62 167-62 93 0 140 62 140 186V0H380v-333" id="O"/><path fill="#333" d="M100-58c0-36 30-66 66-66s67 30 67 66-31 67-67 67-66-31-66-67zm0-418c0-35 30-66 66-66s67 31 67 66c0 36-31 67-67 67s-66-31-66-67" id="P"/><g id="c"><use transform="matrix(0.05333333333333329,0,0,0.05333333333333329,0,0)" xlink:href="#K"/><use transform="matrix(0.05333333333333329,0,0,0.05333333333333329,29.546666666666642,0)" xlink:href="#L"/><use transform="matrix(0.05333333333333329,0,0,0.05333333333333329,45.546666666666624,0)" xlink:href="#z"/><use transform="matrix(0.05333333333333329,0,0,0.05333333333333329,77.33333333333326,0)" xlink:href="#M"/><use transform="matrix(0.05333333333333329,0,0,0.05333333333333329,123.14666666666656,0)" xlink:href="#N"/><use transform="matrix(0.05333333333333329,0,0,0.05333333333333329,152.2133333333332,0)" xlink:href="#O"/><use transform="matrix(0.05333333333333329,0,0,0.05333333333333329,182.45333333333318,0)" xlink:href="#E"/><use transform="matrix(0.05333333333333329,0,0,0.05333333333333329,212.10666666666648,0)" xlink:href="#G"/><use transform="matrix(0.05333333333333329,0,0,0.05333333333333329,232.58666666666647,0)" xlink:href="#H"/><use transform="matrix(0.05333333333333329,0,0,0.05333333333333329,254.07999999999979,0)" xlink:href="#P"/></g><g id="d"><use transform="matrix(0.05333333333333329,0,0,0.05333333333333329,0,0)" xlink:href="#N"/><use transform="matrix(0.05333333333333329,0,0,0.05333333333333329,29.06666666666664,0)" xlink:href="#E"/><use transform="matrix(0.05333333333333329,0,0,0.05333333333333329,58.71999999999995,0)" xlink:href="#C"/><use transform="matrix(0.05333333333333329,0,0,0.05333333333333329,89.70666666666659,0)" xlink:href="#N"/><use transform="matrix(0.05333333333333329,0,0,0.05333333333333329,118.77333333333323,0)" xlink:href="#I"/><use transform="matrix(0.05333333333333329,0,0,0.05333333333333329,148.58666666666653,0)" xlink:href="#L"/></g><g id="e"><use transform="matrix(0.05333333333333329,0,0,0.05333333333333329,0,0)" xlink:href="#F"/><use transform="matrix(0.05333333333333329,0,0,0.05333333333333329,31.359999999999975,0)" xlink:href="#z"/><use transform="matrix(0.05333333333333329,0,0,0.05333333333333329,63.14666666666661,0)" xlink:href="#z"/><use transform="matrix(0.05333333333333329,0,0,0.05333333333333329,94.93333333333325,0)" xlink:href="#A"/><use transform="matrix(0.05333333333333329,0,0,0.05333333333333329,125.49333333333323,0)" xlink:href="#B"/><use transform="matrix(0.05333333333333329,0,0,0.05333333333333329,141.91999999999987,0)" xlink:href="#C"/><use transform="matrix(0.05333333333333329,0,0,0.05333333333333329,172.90666666666652,0)" xlink:href="#D"/></g><path fill="#333" d="M78-356c0-233 75-365 294-365s293 134 293 365c0 233-75 366-293 366S78-123 78-356zM372-82c143 0 168-108 168-274 0-167-25-273-168-273-144 0-169 107-169 273S228-82 372-82" id="Q"/><path fill="#333" d="M409-276c0-108-5-173-93-173-30 0-66 15-107 45v308c21 13 52 20 93 20 104 0 107-74 107-200zM93 178v-711h107v62c51-47 103-71 156-71 115 0 173 89 173 266C529-86 452 9 298 9c-26 0-56-7-89-20v189H93" id="R"/><g id="f"><use transform="matrix(0.022222222222222223,0,0,0.022222222222222223,0,0)" xlink:href="#Q"/><use transform="matrix(0.022222222222222223,0,0,0.022222222222222223,16.422222222222224,0)" xlink:href="#R"/><use transform="matrix(0.022222222222222223,0,0,0.022222222222222223,29.48888888888889,0)" xlink:href="#I"/><use transform="matrix(0.022222222222222223,0,0,0.022222222222222223,41.91111111111111,0)" xlink:href="#C"/></g><g id="g"><use transform="matrix(0.022222222222222223,0,0,0.022222222222222223,0,0)" xlink:href="#E"/><use transform="matrix(0.022222222222222223,0,0,0.022222222222222223,12.355555555555556,0)" xlink:href="#R"/><use transform="matrix(0.022222222222222223,0,0,0.022222222222222223,25.422222222222224,0)" xlink:href="#R"/></g><path fill="#333" d="M50-75v-75l419-178L50-509v-75l486 206v100" id="S"/><use transform="matrix(0.022222222222222223,0,0,0.022222222222222223,0,0)" xlink:href="#S" id="h"/><path fill="#333" d="M104-660c50-40 117-60 200-60 141 0 211 63 211 188 0 41-16 85-48 132-38 57-119 151-242 284h296V0H82v-89c147-177 232-281 253-310 35-48 52-91 52-130 0-68-34-102-101-102-52 0-113 20-182 59v-88" id="T"/><use transform="matrix(0.022222222222222223,0,0,0.022222222222222223,0,0)" xlink:href="#T" id="i"/><path fill="#333" d="M443-162C443-52 367 10 254 9 191 9 131-6 76-36v-89c61 33 113 49 156 49 136 0 120-102 33-132-42-15-86-28-126-47-47-23-67-70-67-129 1-104 68-159 177-158 57 0 109 13 156 38l1 89c-40-29-88-43-143-43-58 0-87 19-87 56-15 59 199 100 198 113 46 29 69 71 69 127" id="U"/><g id="j"><use transform="matrix(0.022222222222222223,0,0,0.022222222222222223,0,0)" xlink:href="#M"/><use transform="matrix(0.022222222222222223,0,0,0.022222222222222223,19.08888888888889,0)" xlink:href="#I"/><use transform="matrix(0.022222222222222223,0,0,0.022222222222222223,31.511111111111113,0)" xlink:href="#I"/><use transform="matrix(0.022222222222222223,0,0,0.022222222222222223,43.93333333333334,0)" xlink:href="#A"/><use transform="matrix(0.022222222222222223,0,0,0.022222222222222223,56.66666666666667,0)" xlink:href="#U"/></g><path fill="#333" d="M196-200c6 91 1 117 87 118 35 0 70-14 104-42v-409h116V0H396v-60C351-14 293 9 220 9 127 9 80-53 80-178v-355h116v333" id="V"/><g id="k"><use transform="matrix(0.022222222222222223,0,0,0.022222222222222223,0,0)" xlink:href="#V"/><use transform="matrix(0.022222222222222223,0,0,0.022222222222222223,12.68888888888889,0)" xlink:href="#C"/><use transform="matrix(0.022222222222222223,0,0,0.022222222222222223,25.6,0)" xlink:href="#H"/><use transform="matrix(0.022222222222222223,0,0,0.022222222222222223,34.55555555555556,0)" xlink:href="#B"/><use transform="matrix(0.022222222222222223,0,0,0.022222222222222223,41.400000000000006,0)" xlink:href="#L"/></g><path fill="#333" d="M158-533c-1-144 30-181 164-187 16 0 39 2 69 7v80c-36-7-93 0-103 13-9 11-15 40-15 87h111v84H273V0H158v-449H78v-84h80" id="W"/><g id="l"><use transform="matrix(0.022222222222222223,0,0,0.022222222222222223,0,0)" xlink:href="#H"/><use transform="matrix(0.022222222222222223,0,0,0.022222222222222223,8.955555555555556,0)" xlink:href="#E"/><use transform="matrix(0.022222222222222223,0,0,0.022222222222222223,21.31111111111111,0)" xlink:href="#A"/><use transform="matrix(0.022222222222222223,0,0,0.022222222222222223,34.044444444444444,0)" xlink:href="#I"/><use transform="matrix(0.022222222222222223,0,0,0.022222222222222223,46.46666666666667,0)" xlink:href="#z"/><use transform="matrix(0.022222222222222223,0,0,0.022222222222222223,59.711111111111116,0)" xlink:href="#W"/><use transform="matrix(0.022222222222222223,0,0,0.022222222222222223,70.08888888888889,0)" xlink:href="#W"/></g><path fill="#333" d="M484 0H131v-711h120v622h233V0" id="X"/><g id="m"><use transform="matrix(0.022222222222222223,0,0,0.022222222222222223,0,0)" xlink:href="#X"/><use transform="matrix(0.022222222222222223,0,0,0.022222222222222223,11.88888888888889,0)" xlink:href="#z"/><use transform="matrix(0.022222222222222223,0,0,0.022222222222222223,25.133333333333333,0)" xlink:href="#D"/></g><g id="n"><use transform="matrix(0.022222222222222223,0,0,0.022222222222222223,0,0)" xlink:href="#B"/><use transform="matrix(0.022222222222222223,0,0,0.022222222222222223,6.844444444444445,0)" xlink:href="#C"/></g><g id="o"><use transform="matrix(0.022222222222222223,0,0,0.022222222222222223,0,0)" xlink:href="#y"/><use transform="matrix(0.022222222222222223,0,0,0.022222222222222223,13.955555555555556,0)" xlink:href="#z"/><use transform="matrix(0.022222222222222223,0,0,0.022222222222222223,27.2,0)" xlink:href="#z"/><use transform="matrix(0.022222222222222223,0,0,0.022222222222222223,40.44444444444445,0)" xlink:href="#A"/><use transform="matrix(0.022222222222222223,0,0,0.022222222222222223,53.17777777777778,0)" xlink:href="#B"/><use transform="matrix(0.022222222222222223,0,0,0.022222222222222223,60.022222222222226,0)" xlink:href="#C"/><use transform="matrix(0.022222222222222223,0,0,0.022222222222222223,72.93333333333334,0)" xlink:href="#D"/></g><g id="p"><use transform="matrix(0.022222222222222223,0,0,0.022222222222222223,0,0)" xlink:href="#N"/><use transform="matrix(0.022222222222222223,0,0,0.022222222222222223,12.11111111111111,0)" xlink:href="#E"/><use transform="matrix(0.022222222222222223,0,0,0.022222222222222223,24.46666666666667,0)" xlink:href="#C"/><use transform="matrix(0.022222222222222223,0,0,0.022222222222222223,37.37777777777778,0)" xlink:href="#N"/><use transform="matrix(0.022222222222222223,0,0,0.022222222222222223,49.488888888888894,0)" xlink:href="#I"/><use transform="matrix(0.022222222222222223,0,0,0.022222222222222223,61.911111111111126,0)" xlink:href="#L"/><use transform="matrix(0.022222222222222223,0,0,0.022222222222222223,68.57777777777778,0)" xlink:href="#L"/><use transform="matrix(0.022222222222222223,0,0,0.022222222222222223,75.24444444444445,0)" xlink:href="#I"/><use transform="matrix(0.022222222222222223,0,0,0.022222222222222223,87.66666666666667,0)" xlink:href="#J"/></g><path fill="#333" d="M537-218C537-84 425 10 292 9 210 9 139-12 80-54l-1-103c85 50 154 75 207 75 69 1 130-30 130-94 0-45-29-80-88-105-54-23-111-40-163-67-61-32-88-95-88-172 0-125 94-200 228-200 64 0 124 18 181 53v115c-65-51-127-77-186-77-72 0-108 28-108 85 0 45 29 81 89 106 55 23 113 40 167 66 61 30 89 86 89 154" id="Y"/><g id="q"><use transform="matrix(0.022222222222222223,0,0,0.022222222222222223,0,0)" xlink:href="#Y"/><use transform="matrix(0.022222222222222223,0,0,0.022222222222222223,13.311111111111112,0)" xlink:href="#I"/><use transform="matrix(0.022222222222222223,0,0,0.022222222222222223,25.733333333333334,0)" xlink:href="#L"/><use transform="matrix(0.022222222222222223,0,0,0.022222222222222223,32.4,0)" xlink:href="#I"/><use transform="matrix(0.022222222222222223,0,0,0.022222222222222223,44.82222222222222,0)" xlink:href="#N"/><use transform="matrix(0.022222222222222223,0,0,0.022222222222222223,56.93333333333334,0)" xlink:href="#H"/></g><g id="r"><use transform="matrix(0.022222222222222223,0,0,0.022222222222222223,0,0)" xlink:href="#F"/><use transform="matrix(0.022222222222222223,0,0,0.022222222222222223,13.066666666666666,0)" xlink:href="#z"/><use transform="matrix(0.022222222222222223,0,0,0.022222222222222223,26.311111111111114,0)" xlink:href="#z"/><use transform="matrix(0.022222222222222223,0,0,0.022222222222222223,39.55555555555556,0)" xlink:href="#A"/><use transform="matrix(0.022222222222222223,0,0,0.022222222222222223,52.28888888888889,0)" xlink:href="#B"/><use transform="matrix(0.022222222222222223,0,0,0.022222222222222223,59.13333333333333,0)" xlink:href="#C"/><use transform="matrix(0.022222222222222223,0,0,0.022222222222222223,72.04444444444445,0)" xlink:href="#D"/></g><path fill="#333" d="M218-356c0 169 29 274 178 274 60 0 120-22 180-67v107C513-8 453 9 396 9 168 6 93-118 93-356c0-239 76-360 303-364 61 0 118 16 171 49v111c-47-46-104-69-171-69-149 0-178 104-178 273" id="Z"/><path fill="#333" d="M368-333c-7-89 4-117-78-118-32 0-64 14-95 42V0H79v-533h107v60c58-77 241-108 280 3 33-38 107-72 173-72 87 0 131 62 131 186V0H655v-333c-7-89 4-117-78-118-31 0-64 14-97 42 9 128 2 274 4 409H368v-333" id="aa"/><g id="s"><use transform="matrix(0.022222222222222223,0,0,0.022222222222222223,0,0)" xlink:href="#Z"/><use transform="matrix(0.022222222222222223,0,0,0.022222222222222223,14.777777777777779,0)" xlink:href="#z"/><use transform="matrix(0.022222222222222223,0,0,0.022222222222222223,28.022222222222222,0)" xlink:href="#C"/><use transform="matrix(0.022222222222222223,0,0,0.022222222222222223,40.93333333333334,0)" xlink:href="#W"/><use transform="matrix(0.022222222222222223,0,0,0.022222222222222223,51.31111111111111,0)" xlink:href="#B"/><use transform="matrix(0.022222222222222223,0,0,0.022222222222222223,58.155555555555566,0)" xlink:href="#G"/><use transform="matrix(0.022222222222222223,0,0,0.022222222222222223,66.6888888888889,0)" xlink:href="#aa"/></g><g id="t"><use transform="matrix(0.022222222222222223,0,0,0.022222222222222223,0,0)" xlink:href="#N"/><use transform="matrix(0.022222222222222223,0,0,0.022222222222222223,12.11111111111111,0)" xlink:href="#E"/><use transform="matrix(0.022222222222222223,0,0,0.022222222222222223,24.46666666666667,0)" xlink:href="#C"/><use transform="matrix(0.022222222222222223,0,0,0.022222222222222223,37.37777777777778,0)" xlink:href="#N"/><use transform="matrix(0.022222222222222223,0,0,0.022222222222222223,49.488888888888894,0)" xlink:href="#I"/><use transform="matrix(0.022222222222222223,0,0,0.022222222222222223,61.911111111111126,0)" xlink:href="#L"/><use transform="matrix(0.022222222222222223,0,0,0.022222222222222223,68.57777777777778,0)" xlink:href="#L"/><use transform="matrix(0.022222222222222223,0,0,0.022222222222222223,75.24444444444445,0)" xlink:href="#E"/><use transform="matrix(0.022222222222222223,0,0,0.022222222222222223,87.60000000000001,0)" xlink:href="#H"/><use transform="matrix(0.022222222222222223,0,0,0.022222222222222223,96.55555555555559,0)" xlink:href="#B"/><use transform="matrix(0.022222222222222223,0,0,0.022222222222222223,103.40000000000002,0)" xlink:href="#z"/><use transform="matrix(0.022222222222222223,0,0,0.022222222222222223,116.64444444444447,0)" xlink:href="#C"/></g><path fill="#333" d="M417-524c0-53-31-98-84-98H224v213c111 8 193-3 193-115zm122 0c0 81-62 145-131 161 34 12 67 62 99 149L586 0H457l-79-217c-40-96-55-111-154-103V0H104v-711h234c134 0 201 62 201 187" id="ab"/><path fill="#333" d="M417-533h89L332 0H194L21-533h122l137 422" id="ac"/><g id="u"><use transform="matrix(0.022222222222222223,0,0,0.022222222222222223,0,0)" xlink:href="#ab"/><use transform="matrix(0.022222222222222223,0,0,0.022222222222222223,14.044444444444444,0)" xlink:href="#I"/><use transform="matrix(0.022222222222222223,0,0,0.022222222222222223,26.46666666666667,0)" xlink:href="#N"/><use transform="matrix(0.022222222222222223,0,0,0.022222222222222223,38.57777777777778,0)" xlink:href="#I"/><use transform="matrix(0.022222222222222223,0,0,0.022222222222222223,51.000000000000014,0)" xlink:href="#B"/><use transform="matrix(0.022222222222222223,0,0,0.022222222222222223,57.84444444444445,0)" xlink:href="#ac"/><use transform="matrix(0.022222222222222223,0,0,0.022222222222222223,69.31111111111112,0)" xlink:href="#I"/></g><g id="v"><use transform="matrix(0.022222222222222223,0,0,0.022222222222222223,0,0)" xlink:href="#G"/><use transform="matrix(0.022222222222222223,0,0,0.022222222222222223,8.533333333333333,0)" xlink:href="#I"/><use transform="matrix(0.022222222222222223,0,0,0.022222222222222223,20.955555555555556,0)" xlink:href="#B"/><use transform="matrix(0.022222222222222223,0,0,0.022222222222222223,27.8,0)" xlink:href="#aa"/><use transform="matrix(0.022222222222222223,0,0,0.022222222222222223,46.066666666666656,0)" xlink:href="#F"/><use transform="matrix(0.022222222222222223,0,0,0.022222222222222223,59.133333333333326,0)" xlink:href="#V"/><use transform="matrix(0.022222222222222223,0,0,0.022222222222222223,71.82222222222222,0)" xlink:href="#G"/><use transform="matrix(0.022222222222222223,0,0,0.022222222222222223,80.35555555555555,0)" xlink:href="#U"/><use transform="matrix(0.022222222222222223,0,0,0.022222222222222223,91.84444444444445,0)" xlink:href="#I"/><use transform="matrix(0.022222222222222223,0,0,0.022222222222222223,104.26666666666667,0)" xlink:href="#aa"/><use transform="matrix(0.022222222222222223,0,0,0.022222222222222223,122.53333333333333,0)" xlink:href="#I"/><use transform="matrix(0.022222222222222223,0,0,0.022222222222222223,134.95555555555555,0)" xlink:href="#C"/><use transform="matrix(0.022222222222222223,0,0,0.022222222222222223,147.86666666666667,0)" xlink:href="#H"/></g><path fill="#333" d="M175 0L67-191c6 58 2 128 3 191H24v-248h59L193-55c-6-58-2-129-3-193h46V0h-61" id="ad"/><path fill="#333" d="M110-194c64 0 96 36 96 99 0 64-35 99-97 99-61 0-95-36-95-99 0-62 34-99 96-99zm-1 164c35 0 45-28 45-65 0-40-10-65-43-65-34 0-45 26-45 65 0 36 10 65 43 65" id="ae"/><g id="w"><use transform="matrix(0.04938271604938272,0,0,0.04938271604938272,0,0)" xlink:href="#ad"/><use transform="matrix(0.04938271604938272,0,0,0.04938271604938272,12.790123456790125,0)" xlink:href="#ae"/></g><path fill="#333" d="M146-102V0H94v-102L6-248h54l60 105 60-105h54" id="af"/><path fill="#333" d="M185-48c-13 30-37 53-82 52C43 2 14-33 14-96s30-98 90-98c62 0 83 45 84 108H66c0 31 8 55 39 56 18 0 30-7 34-22zm-45-69c5-46-57-63-70-21-2 6-4 13-4 21h74" id="ag"/><path fill="#333" d="M137-138c1-29-70-34-71-4 15 46 118 7 119 86 1 83-164 76-172 9l43-7c4 19 20 25 44 25 33 8 57-30 24-41C81-84 22-81 20-136c-2-80 154-74 161-7" id="ah"/><g id="x"><use transform="matrix(0.04938271604938272,0,0,0.04938271604938272,0,0)" xlink:href="#af"/><use transform="matrix(0.04938271604938272,0,0,0.04938271604938272,10.864197530864198,0)" xlink:href="#ag"/><use transform="matrix(0.04938271604938272,0,0,0.04938271604938272,20.74074074074074,0)" xlink:href="#ah"/></g></defs></g></svg>