<svg xmlns="http://www.w3.org/2000/svg" xmlns:xlink="http://www.w3.org/1999/xlink" xmlns:lucid="lucid" width="720" height="893"><g transform="translate(-41 -761)" lucid:page-tab-id="0_0"><path d="M0 0h5484.6v3840.5H0z" fill="#fff"/><path d="M80 762.67c0-3.32 2.7-6 6-6h648c3.3 0 6 2.68 6 6V974c0 3.3-2.7 6-6 6H86c-3.3 0-6-2.7-6-6z" stroke="#000" stroke-opacity="0" stroke-width="3" fill="#fff" fill-opacity="0"/><use xlink:href="#a" transform="matrix(1,0,0,1,85,761.6666666666666) translate(49.453333333333376 122.91666666666666)"/><use xlink:href="#b" transform="matrix(1,0,0,1,85,761.6666666666666) translate(332.92 122.91666666666666)"/><use xlink:href="#c" transform="matrix(1,0,0,1,85,761.6666666666666) translate(479.6933333333333 122.91666666666666)"/><path d="M228 980c17.67 0 32 17.9 32 40s-14.33 40-32 40h-96c-17.67 0-32-17.9-32-40s14.33-40 32-40z" stroke="#5e5e5e" stroke-width="3" fill="#fff"/><use xlink:href="#d" transform="matrix(1,0,0,1,105,985) translate(25.877777777777773 41.84027777777778)"/><use xlink:href="#e" transform="matrix(1,0,0,1,105,985) translate(85.63333333333333 41.84027777777778)"/><path d="M535.2 1443.6c2.65-2 6.95-2 9.6 0l70.4 52.8c2.65 2 2.65 5.2 0 7.2l-70.4 52.8c-2.65 2-6.95 2-9.6 0l-70.4-52.8c-2.65-2-2.65-5.2 0-7.2z" stroke="#5e5e5e" stroke-width="3" fill="#fff"/><use xlink:href="#f" transform="matrix(1,0,0,1,465,1445) translate(48.093888888888884 45.27777777777778)"/><use xlink:href="#g" transform="matrix(1,0,0,1,465,1445) translate(24.53833333333333 67.5)"/><path d="M460 966c0-3.3 2.7-6 6-6h148c3.3 0 6 2.7 6 6v108c0 3.3-2.7 6-6 6H466c-3.3 0-6-2.7-6-6z" stroke="#5e5e5e" stroke-width="3" fill="#fff"/><use xlink:href="#d" transform="matrix(1,0,0,1,472,972) translate(11.477777777777774 32.77777777777778)"/><use xlink:href="#h" transform="matrix(1,0,0,1,472,972) translate(71.23333333333333 32.77777777777778)"/><use xlink:href="#i" transform="matrix(1,0,0,1,472,972) translate(30.355555555555554 55)"/><use xlink:href="#j" transform="matrix(1,0,0,1,472,972) translate(39.855555555555554 77.22222222222223)"/><path d="M268 1240c17.67 0 32 17.9 32 40s-14.33 40-32 40h-96c-17.67 0-32-17.9-32-40s14.33-40 32-40z" stroke="#5e5e5e" stroke-width="3" fill="#fff"/><use xlink:href="#k" transform="matrix(1,0,0,1,145,1245) translate(45.3 30.90277777777778)"/><use xlink:href="#l" transform="matrix(1,0,0,1,145,1245) translate(18.233333333333327 53.125)"/><path d="M460 1126c0-3.3 2.7-6 6-6h148c3.3 0 6 2.7 6 6v108c0 3.3-2.7 6-6 6H466c-3.3 0-6-2.7-6-6z" stroke="#5e5e5e" stroke-width="3" fill="#fff"/><use xlink:href="#m" transform="matrix(1,0,0,1,472,1132) translate(35.05555555555556 43.55555555555556)"/><use xlink:href="#n" transform="matrix(1,0,0,1,472,1132) translate(-7.23333333333332 65.77777777777777)"/><path d="M460 1286c0-3.3 2.7-6 6-6h148c3.3 0 6 2.7 6 6v108c0 3.3-2.7 6-6 6H466c-3.3 0-6-2.7-6-6z" stroke="#5e5e5e" stroke-width="3" fill="#fff"/><use xlink:href="#o" transform="matrix(1,0,0,1,472,1292) translate(2.0222222222222115 44.77777777777778)"/><use xlink:href="#p" transform="matrix(1,0,0,1,472,1292) translate(48.86666666666666 44.77777777777778)"/><use xlink:href="#q" transform="matrix(1,0,0,1,472,1292) translate(111.77777777777777 44.77777777777778)"/><use xlink:href="#r" transform="matrix(1,0,0,1,472,1292) translate(47.022222222222226 67)"/><path d="M140 1446c0-3.3 2.7-6 6-6h148c3.3 0 6 2.7 6 6v108c0 3.3-2.7 6-6 6H146c-3.3 0-6-2.7-6-6z" stroke="#5e5e5e" stroke-width="3" fill="#fff"/><use xlink:href="#s" transform="matrix(1,0,0,1,152,1452) translate(25.52222222222222 44.77777777777778)"/><use xlink:href="#t" transform="matrix(1,0,0,1,152,1452) translate(39.888888888888886 67)"/><path d="M662.5 1494.13l-.92 3.42-2.53 2.53-3.42.92H619.6v-2h35.77l2.64-.7 1.8-1.8.7-2.63v-143.54h2m-3.45-170.4l2.53 2.52.92 3.42v146.7h-2v-146.44l-.7-2.64-1.8-1.8-2.63-.7H640v-2h15.63" fill="#5e5e5e"/><path d="M619.64 1501h-1.1l.18-.4-.28-1.6h1.2M639 1184.64l-14.26-4.64 14.26-4.64z" fill="#5e5e5e"/><path d="M640 1186l-18.5-6 18.5-6m-12.03 6l10.03 3.26v-6.52" fill="#5e5e5e"/><use xlink:href="#u" transform="matrix(1,0,0,1,648.9933333333333,1332.5555485913173) translate(0.005000000000000782 14.222222222222223)"/><path d="M540 1402.5v19.67" stroke="#5e5e5e" stroke-width="2" fill="none"/><path d="M541 1402.53h-2v-1.03h2" fill="#5e5e5e"/><path d="M540 1437.43l-4.64-14.26h9.28z" stroke="#5e5e5e" stroke-width="2" fill="#5e5e5e"/><path d="M540 1242.5v17.5" stroke="#5e5e5e" stroke-width="2" fill="none"/><path d="M541 1242.53h-2v-1.03h2" fill="#5e5e5e"/><path d="M540 1275.26l-4.64-14.26h9.28z" stroke="#5e5e5e" stroke-width="2" fill="#5e5e5e"/><path d="M540 1082.5v17.5" stroke="#5e5e5e" stroke-width="2" fill="none"/><path d="M541 1082.53h-2v-1.03h2" fill="#5e5e5e"/><path d="M540 1115.26l-4.64-14.26h9.28z" stroke="#5e5e5e" stroke-width="2" fill="#5e5e5e"/><path d="M262.5 1020H440" stroke="#5e5e5e" stroke-width="2" fill="none"/><path d="M262.53 1021h-1.1l.07-.98-.03-1.02h1.06" fill="#5e5e5e"/><path d="M455.26 1020l-14.26 4.64v-9.28z" stroke="#5e5e5e" stroke-width="2" fill="#5e5e5e"/><path d="M366.12 1501H320v-2h46.12m94.27 2h-63.63v-2h63.62" fill="#5e5e5e"/><path d="M461.28 1499.4l.28 1.6h-1.2v-2h1.1M319 1504.64l-14.26-4.64 14.26-4.64z" fill="#5e5e5e"/><path d="M320 1506l-18.5-6 18.5-6m-12.03 6l10.03 3.26v-6.52" fill="#5e5e5e"/><g><use xlink:href="#v" transform="matrix(1,0,0,1,366.11999303576187,1491.111111111111) translate(0.005000000000000782 14.222222222222223)"/></g><path d="M220 1437.5V1340" stroke="#5e5e5e" stroke-width="2" fill="none"/><path d="M221 1438.5h-2v-1.03h2" fill="#5e5e5e"/><path d="M220 1324.74l4.64 14.26h-9.28z" stroke="#5e5e5e" stroke-width="2" fill="#5e5e5e"/><defs><path fill="#333" d="M121 0v-711h367v89H241v213h214v89H241V0H121" id="w"/><path fill="#333" d="M97 0v-711h116V0H97" id="x"/><path fill="#333" d="M304-544c158 0 237 92 237 277S462 11 304 11C145 11 66-82 66-267s79-277 238-277zm0 471c103 0 122-75 122-194s-20-193-122-193-123 74-123 193c0 120 20 194 123 194" id="y"/><path fill="#333" d="M543 0L433-380 324 0H180L26-533h121l121 423 121-423h121l120 423 122-423h88L687 0H543" id="z"/><path fill="#333" d="M306-453c-94 0-117 78-116 186 0 127 37 191 111 191 47 0 102-14 167-42v85C407-5 344 9 279 9 140 9 70-83 70-267c0-183 77-275 231-275 69 0 122 11 160 34v91c-41-24-92-36-155-36" id="A"/><path fill="#333" d="M380-333c-6-91-1-117-87-118-35 0-70 14-104 42V0H73v-711h116v231c45-41 100-62 167-62 93 0 140 62 140 186V0H380v-333" id="B"/><path fill="#333" d="M278-249c-67 0-94 14-94 76 0 59 14 81 74 80 26 0 61-13 106-40v-120c-28 3-57 4-86 4zM67-173c0-123 64-160 195-160 41 0 75 1 102 4v-84c-3-27-30-40-80-40-47 0-106 16-177 49v-94c53-29 113-44 182-44 127 0 191 53 191 158V0H373v-64C319-15 266 9 213 9 116 9 67-52 67-173" id="C"/><path fill="#333" d="M354-440c-73-24-111-10-153 58V0H85v-533h107v75c56-68 84-93 162-78v96" id="D"/><path fill="#333" d="M285 9C153 3 120-40 121-182v-267H59v-84h62v-111l115-45v156h114v84H236v267c0 85 11 102 89 106 9 0 19-2 29-5v79c-28 7-51 11-69 11" id="E"/><path fill="#333" d="M100-58c0-36 30-66 66-66s67 30 67 66-31 67-67 67-66-31-66-67zm0-418c0-35 30-66 66-66s67 31 67 66c0 36-31 67-67 67s-66-31-66-67" id="F"/><g id="a"><use transform="matrix(0.05333333333333333,0,0,0.05333333333333333,0,0)" xlink:href="#w"/><use transform="matrix(0.05333333333333333,0,0,0.05333333333333333,29.546666666666663,0)" xlink:href="#x"/><use transform="matrix(0.05333333333333333,0,0,0.05333333333333333,45.54666666666666,0)" xlink:href="#y"/><use transform="matrix(0.05333333333333333,0,0,0.05333333333333333,77.33333333333333,0)" xlink:href="#z"/><use transform="matrix(0.05333333333333333,0,0,0.05333333333333333,123.14666666666666,0)" xlink:href="#A"/><use transform="matrix(0.05333333333333333,0,0,0.05333333333333333,152.21333333333334,0)" xlink:href="#B"/><use transform="matrix(0.05333333333333333,0,0,0.05333333333333333,182.45333333333335,0)" xlink:href="#C"/><use transform="matrix(0.05333333333333333,0,0,0.05333333333333333,212.10666666666668,0)" xlink:href="#D"/><use transform="matrix(0.05333333333333333,0,0,0.05333333333333333,232.58666666666664,0)" xlink:href="#E"/><use transform="matrix(0.05333333333333333,0,0,0.05333333333333333,254.08000000000004,0)" xlink:href="#F"/></g><path fill="#333" d="M196-258c0 109 5 174 93 174 31 0 66-15 107-45v-318c-21-7-53-11-94-11-105 0-106 73-106 200zm-120 0c0-186 56-281 231-284 25 0 55 5 89 15v-184h115V0H404v-62C353-15 301 9 249 9 134 9 76-80 76-258" id="G"/><path fill="#333" d="M178-224c4 93 28 148 115 148 53 0 113-14 180-42v82C408-6 340 9 271 9 130 9 60-83 60-267c0-178 55-272 220-275 139-3 208 80 208 244v74H178zm195-85c0-98-11-149-93-149-89 0-98 49-102 149h195" id="H"/><g id="b"><use transform="matrix(0.05333333333333333,0,0,0.05333333333333333,0,0)" xlink:href="#y"/><use transform="matrix(0.05333333333333333,0,0,0.05333333333333333,31.786666666666665,0)" xlink:href="#D"/><use transform="matrix(0.05333333333333333,0,0,0.05333333333333333,52.266666666666666,0)" xlink:href="#G"/><use transform="matrix(0.05333333333333333,0,0,0.05333333333333333,84.63999999999999,0)" xlink:href="#H"/><use transform="matrix(0.05333333333333333,0,0,0.05333333333333333,114.45333333333332,0)" xlink:href="#D"/></g><path fill="#333" d="M158-533c-1-144 30-181 164-187 16 0 39 2 69 7v80c-36-7-93 0-103 13-9 11-15 40-15 87h111v84H273V0H158v-449H78v-84h80" id="I"/><g id="c"><use transform="matrix(0.05333333333333333,0,0,0.05333333333333333,0,0)" xlink:href="#I"/><use transform="matrix(0.05333333333333333,0,0,0.05333333333333333,24.906666666666666,0)" xlink:href="#y"/><use transform="matrix(0.05333333333333333,0,0,0.05333333333333333,56.69333333333333,0)" xlink:href="#y"/><use transform="matrix(0.05333333333333333,0,0,0.05333333333333333,88.47999999999999,0)" xlink:href="#G"/></g><path fill="#333" d="M78-356c0-233 75-365 294-365s293 134 293 365c0 233-75 366-293 366S78-123 78-356zM372-82c143 0 168-108 168-274 0-167-25-273-168-273-144 0-169 107-169 273S228-82 372-82" id="J"/><path fill="#333" d="M409-276c0-108-5-173-93-173-30 0-66 15-107 45v308c21 13 52 20 93 20 104 0 107-74 107-200zM93 178v-711h107v62c51-47 103-71 156-71 115 0 173 89 173 266C529-86 452 9 298 9c-26 0-56-7-89-20v189H93" id="K"/><path fill="#333" d="M385-333c-6-91-1-117-87-118-35 0-70 14-104 42V0H78v-533h107v60c45-46 103-69 175-69 93 0 140 62 140 186V0H385v-333" id="L"/><g id="d"><use transform="matrix(0.022222222222222223,0,0,0.022222222222222223,0,0)" xlink:href="#J"/><use transform="matrix(0.022222222222222223,0,0,0.022222222222222223,16.422222222222224,0)" xlink:href="#K"/><use transform="matrix(0.022222222222222223,0,0,0.022222222222222223,29.48888888888889,0)" xlink:href="#H"/><use transform="matrix(0.022222222222222223,0,0,0.022222222222222223,41.91111111111111,0)" xlink:href="#L"/></g><g id="e"><use transform="matrix(0.022222222222222223,0,0,0.022222222222222223,0,0)" xlink:href="#C"/><use transform="matrix(0.022222222222222223,0,0,0.022222222222222223,12.355555555555556,0)" xlink:href="#K"/><use transform="matrix(0.022222222222222223,0,0,0.022222222222222223,25.422222222222224,0)" xlink:href="#K"/></g><path fill="#333" d="M500-356c0-165-23-259-168-266H216v533h98c157-6 186-92 186-267zm123 0C623-115 547-3 314 0H96v-711h236c220 4 291 124 291 355" id="M"/><g id="f"><use transform="matrix(0.022222222222222223,0,0,0.022222222222222223,0,0)" xlink:href="#M"/><use transform="matrix(0.022222222222222223,0,0,0.022222222222222223,15.244444444444445,0)" xlink:href="#y"/><use transform="matrix(0.022222222222222223,0,0,0.022222222222222223,28.48888888888889,0)" xlink:href="#L"/><use transform="matrix(0.022222222222222223,0,0,0.022222222222222223,41.400000000000006,0)" xlink:href="#H"/></g><path fill="#333" d="M95-689c0-36 31-67 67-67s66 31 66 67-30 66-66 66-67-30-67-66zm8 689v-533h116V0H103" id="N"/><path fill="#333" d="M302-462c-101 0-106 66-106 182 0 109-2 160 93 160 31 0 66-15 107-44v-287c-21-7-53-11-94-11zM76-276c0-174 63-264 231-266 25 0 93 3 204 9v462c2 157-67 258-211 258-87 0-145-13-175-38V66c37 24 89 36 158 36 92 0 128-79 121-200-51 47-103 71-155 71C123-27 75-136 76-276" id="O"/><path fill="#333" d="M154-58c0-36 31-66 67-66s67 30 67 66-31 67-67 67-67-31-67-67zm189-433c0-107-4-145-102-145-55 0-110 16-165 47v-84c48-31 103-47 165-47 163 0 214 54 216 220 2 131-70 222-194 224v65h-89v-145h78c61 0 91-45 91-135" id="P"/><g id="g"><use transform="matrix(0.022222222222222223,0,0,0.022222222222222223,0,0)" xlink:href="#y"/><use transform="matrix(0.022222222222222223,0,0,0.022222222222222223,13.244444444444445,0)" xlink:href="#D"/><use transform="matrix(0.022222222222222223,0,0,0.022222222222222223,21.77777777777778,0)" xlink:href="#G"/><use transform="matrix(0.022222222222222223,0,0,0.022222222222222223,35.266666666666666,0)" xlink:href="#H"/><use transform="matrix(0.022222222222222223,0,0,0.022222222222222223,47.68888888888889,0)" xlink:href="#D"/><use transform="matrix(0.022222222222222223,0,0,0.022222222222222223,56.22222222222222,0)" xlink:href="#N"/><use transform="matrix(0.022222222222222223,0,0,0.022222222222222223,63.066666666666656,0)" xlink:href="#L"/><use transform="matrix(0.022222222222222223,0,0,0.022222222222222223,75.97777777777777,0)" xlink:href="#O"/><use transform="matrix(0.022222222222222223,0,0,0.022222222222222223,89.08888888888889,0)" xlink:href="#P"/></g><path fill="#333" d="M368-333c-7-89 4-117-78-118-32 0-64 14-95 42V0H79v-533h107v60c58-77 241-108 280 3 33-38 107-72 173-72 87 0 131 62 131 186V0H655v-333c-7-89 4-117-78-118-31 0-64 14-97 42 9 128 2 274 4 409H368v-333" id="Q"/><g id="h"><use transform="matrix(0.022222222222222223,0,0,0.022222222222222223,0,0)" xlink:href="#D"/><use transform="matrix(0.022222222222222223,0,0,0.022222222222222223,8.533333333333333,0)" xlink:href="#y"/><use transform="matrix(0.022222222222222223,0,0,0.022222222222222223,21.77777777777778,0)" xlink:href="#y"/><use transform="matrix(0.022222222222222223,0,0,0.022222222222222223,35.022222222222226,0)" xlink:href="#Q"/></g><path fill="#333" d="M443-162C443-52 367 10 254 9 191 9 131-6 76-36v-89c61 33 113 49 156 49 136 0 120-102 33-132-42-15-86-28-126-47-47-23-67-70-67-129 1-104 68-159 177-158 57 0 109 13 156 38l1 89c-40-29-88-43-143-43-58 0-87 19-87 56-15 59 199 100 198 113 46 29 69 71 69 127" id="R"/><path fill="#333" d="M417-533h89L332 0H194L21-533h122l137 422" id="S"/><g id="i"><use transform="matrix(0.022222222222222223,0,0,0.022222222222222223,0,0)" xlink:href="#R"/><use transform="matrix(0.022222222222222223,0,0,0.022222222222222223,11.488888888888889,0)" xlink:href="#H"/><use transform="matrix(0.022222222222222223,0,0,0.022222222222222223,23.91111111111111,0)" xlink:href="#D"/><use transform="matrix(0.022222222222222223,0,0,0.022222222222222223,32.44444444444444,0)" xlink:href="#S"/><use transform="matrix(0.022222222222222223,0,0,0.022222222222222223,43.91111111111111,0)" xlink:href="#N"/><use transform="matrix(0.022222222222222223,0,0,0.022222222222222223,50.75555555555556,0)" xlink:href="#A"/><use transform="matrix(0.022222222222222223,0,0,0.022222222222222223,62.86666666666668,0)" xlink:href="#H"/></g><path fill="#333" d="M196-200c6 91 1 117 87 118 35 0 70-14 104-42v-409h116V0H396v-60C351-14 293 9 220 9 127 9 80-53 80-178v-355h116v333" id="T"/><g id="j"><use transform="matrix(0.022222222222222223,0,0,0.022222222222222223,0,0)" xlink:href="#Q"/><use transform="matrix(0.022222222222222223,0,0,0.022222222222222223,18.266666666666666,0)" xlink:href="#H"/><use transform="matrix(0.022222222222222223,0,0,0.022222222222222223,30.68888888888889,0)" xlink:href="#L"/><use transform="matrix(0.022222222222222223,0,0,0.022222222222222223,43.6,0)" xlink:href="#T"/></g><g id="k"><use transform="matrix(0.022222222222222223,0,0,0.022222222222222223,0,0)" xlink:href="#J"/><use transform="matrix(0.022222222222222223,0,0,0.022222222222222223,16.422222222222224,0)" xlink:href="#D"/><use transform="matrix(0.022222222222222223,0,0,0.022222222222222223,24.955555555555556,0)" xlink:href="#G"/><use transform="matrix(0.022222222222222223,0,0,0.022222222222222223,38.44444444444444,0)" xlink:href="#H"/><use transform="matrix(0.022222222222222223,0,0,0.022222222222222223,50.86666666666667,0)" xlink:href="#D"/></g><g id="l"><use transform="matrix(0.022222222222222223,0,0,0.022222222222222223,0,0)" xlink:href="#R"/><use transform="matrix(0.022222222222222223,0,0,0.022222222222222223,11.488888888888889,0)" xlink:href="#T"/><use transform="matrix(0.022222222222222223,0,0,0.022222222222222223,24.177777777777777,0)" xlink:href="#A"/><use transform="matrix(0.022222222222222223,0,0,0.022222222222222223,36.28888888888889,0)" xlink:href="#A"/><use transform="matrix(0.022222222222222223,0,0,0.022222222222222223,48.4,0)" xlink:href="#H"/><use transform="matrix(0.022222222222222223,0,0,0.022222222222222223,60.82222222222224,0)" xlink:href="#R"/><use transform="matrix(0.022222222222222223,0,0,0.022222222222222223,72.31111111111112,0)" xlink:href="#R"/><use transform="matrix(0.022222222222222223,0,0,0.022222222222222223,83.80000000000001,0)" xlink:href="#I"/><use transform="matrix(0.022222222222222223,0,0,0.022222222222222223,94.17777777777778,0)" xlink:href="#T"/><use transform="matrix(0.022222222222222223,0,0,0.022222222222222223,106.86666666666667,0)" xlink:href="#x"/></g><path fill="#333" d="M537-218C537-84 425 10 292 9 210 9 139-12 80-54l-1-103c85 50 154 75 207 75 69 1 130-30 130-94 0-45-29-80-88-105-54-23-111-40-163-67-61-32-88-95-88-172 0-125 94-200 228-200 64 0 124 18 181 53v115c-65-51-127-77-186-77-72 0-108 28-108 85 0 45 29 81 89 106 55 23 113 40 167 66 61 30 89 86 89 154" id="U"/><g id="m"><use transform="matrix(0.022222222222222223,0,0,0.022222222222222223,0,0)" xlink:href="#U"/><use transform="matrix(0.022222222222222223,0,0,0.022222222222222223,13.311111111111112,0)" xlink:href="#H"/><use transform="matrix(0.022222222222222223,0,0,0.022222222222222223,25.733333333333334,0)" xlink:href="#x"/><use transform="matrix(0.022222222222222223,0,0,0.022222222222222223,32.4,0)" xlink:href="#H"/><use transform="matrix(0.022222222222222223,0,0,0.022222222222222223,44.82222222222222,0)" xlink:href="#A"/><use transform="matrix(0.022222222222222223,0,0,0.022222222222222223,56.93333333333334,0)" xlink:href="#E"/></g><path fill="#333" d="M92 188l-51-15 259-901 51 15" id="V"/><path fill="#333" d="M178-34L17-533h122l137 422 136-422h89L341-44c-33 101-64 163-90 192-27 30-100 43-163 34v-82c53 7 106 1 106-56 0-20-5-46-16-78" id="W"/><g id="n"><use transform="matrix(0.022222222222222223,0,0,0.022222222222222223,0,0)" xlink:href="#Q"/><use transform="matrix(0.022222222222222223,0,0,0.022222222222222223,18.266666666666666,0)" xlink:href="#H"/><use transform="matrix(0.022222222222222223,0,0,0.022222222222222223,30.68888888888889,0)" xlink:href="#C"/><use transform="matrix(0.022222222222222223,0,0,0.022222222222222223,43.044444444444444,0)" xlink:href="#x"/><use transform="matrix(0.022222222222222223,0,0,0.022222222222222223,49.711111111111116,0)" xlink:href="#V"/><use transform="matrix(0.022222222222222223,0,0,0.022222222222222223,58.19999999999999,0)" xlink:href="#A"/><use transform="matrix(0.022222222222222223,0,0,0.022222222222222223,70.3111111111111,0)" xlink:href="#C"/><use transform="matrix(0.022222222222222223,0,0,0.022222222222222223,82.66666666666666,0)" xlink:href="#E"/><use transform="matrix(0.022222222222222223,0,0,0.022222222222222223,91.6222222222222,0)" xlink:href="#H"/><use transform="matrix(0.022222222222222223,0,0,0.022222222222222223,104.04444444444442,0)" xlink:href="#O"/><use transform="matrix(0.022222222222222223,0,0,0.022222222222222223,117.15555555555554,0)" xlink:href="#y"/><use transform="matrix(0.022222222222222223,0,0,0.022222222222222223,130.39999999999998,0)" xlink:href="#D"/><use transform="matrix(0.022222222222222223,0,0,0.022222222222222223,138.9333333333333,0)" xlink:href="#W"/></g><path fill="#333" d="M198-182L143 0H49l218-711h126L611 0H485l-56-182H198zm206-85l-90-293-90 293h180" id="X"/><g id="o"><use transform="matrix(0.022222222222222223,0,0,0.022222222222222223,0,0)" xlink:href="#X"/><use transform="matrix(0.022222222222222223,0,0,0.022222222222222223,14.933333333333334,0)" xlink:href="#G"/><use transform="matrix(0.022222222222222223,0,0,0.022222222222222223,28.422222222222224,0)" xlink:href="#G"/></g><g id="p"><use transform="matrix(0.022222222222222223,0,0,0.022222222222222223,0,0)" xlink:href="#N"/><use transform="matrix(0.022222222222222223,0,0,0.022222222222222223,6.844444444444445,0)" xlink:href="#E"/><use transform="matrix(0.022222222222222223,0,0,0.022222222222222223,15.8,0)" xlink:href="#H"/><use transform="matrix(0.022222222222222223,0,0,0.022222222222222223,28.222222222222225,0)" xlink:href="#Q"/><use transform="matrix(0.022222222222222223,0,0,0.022222222222222223,46.48888888888889,0)" xlink:href="#R"/></g><g id="q"><use transform="matrix(0.022222222222222223,0,0,0.022222222222222223,0,0)" xlink:href="#E"/><use transform="matrix(0.022222222222222223,0,0,0.022222222222222223,8.955555555555556,0)" xlink:href="#y"/></g><g id="r"><use transform="matrix(0.022222222222222223,0,0,0.022222222222222223,0,0)" xlink:href="#A"/><use transform="matrix(0.022222222222222223,0,0,0.022222222222222223,12.11111111111111,0)" xlink:href="#C"/><use transform="matrix(0.022222222222222223,0,0,0.022222222222222223,24.46666666666667,0)" xlink:href="#D"/><use transform="matrix(0.022222222222222223,0,0,0.022222222222222223,33,0)" xlink:href="#E"/></g><path fill="#333" d="M218-356c0 169 29 274 178 274 60 0 120-22 180-67v107C513-8 453 9 396 9 168 6 93-118 93-356c0-239 76-360 303-364 61 0 118 16 171 49v111c-47-46-104-69-171-69-149 0-178 104-178 273" id="Y"/><g id="s"><use transform="matrix(0.022222222222222223,0,0,0.022222222222222223,0,0)" xlink:href="#Y"/><use transform="matrix(0.022222222222222223,0,0,0.022222222222222223,14.777777777777779,0)" xlink:href="#y"/><use transform="matrix(0.022222222222222223,0,0,0.022222222222222223,28.022222222222222,0)" xlink:href="#L"/><use transform="matrix(0.022222222222222223,0,0,0.022222222222222223,40.93333333333334,0)" xlink:href="#I"/><use transform="matrix(0.022222222222222223,0,0,0.022222222222222223,51.31111111111111,0)" xlink:href="#N"/><use transform="matrix(0.022222222222222223,0,0,0.022222222222222223,58.155555555555566,0)" xlink:href="#D"/><use transform="matrix(0.022222222222222223,0,0,0.022222222222222223,66.6888888888889,0)" xlink:href="#Q"/></g><g id="t"><use transform="matrix(0.022222222222222223,0,0,0.022222222222222223,0,0)" xlink:href="#y"/><use transform="matrix(0.022222222222222223,0,0,0.022222222222222223,13.244444444444445,0)" xlink:href="#D"/><use transform="matrix(0.022222222222222223,0,0,0.022222222222222223,21.77777777777778,0)" xlink:href="#G"/><use transform="matrix(0.022222222222222223,0,0,0.022222222222222223,35.266666666666666,0)" xlink:href="#H"/><use transform="matrix(0.022222222222222223,0,0,0.022222222222222223,47.68888888888889,0)" xlink:href="#D"/></g><path fill="#333" d="M92-711h256l205 535v-535h134V0H431L226-536V0H92v-711" id="Z"/><path fill="#333" d="M316-547c179 0 268 93 268 280S495 13 316 13 47-80 47-267s90-280 269-280zm0 458c93 0 106-65 106-178 0-112-12-177-106-177s-107 65-107 177c0 114 13 178 107 178" id="aa"/><g id="u"><use transform="matrix(0.017777777777777778,0,0,0.017777777777777778,0,0)" xlink:href="#Z"/><use transform="matrix(0.017777777777777778,0,0,0.017777777777777778,13.742222222222223,0)" xlink:href="#aa"/></g><path fill="#333" d="M235-320L27-711h201l122 229 119-229h150L413-321V0H235v-320" id="ab"/><path fill="#333" d="M222-222c2 98 18 133 107 133 63 0 123-16 180-49v102C444-3 377 13 307 13 136 13 51-80 51-267c0-184 66-280 242-280 209 0 233 93 236 325H222zm74-222c-63 0-75 56-74 133h147c0-49-2-78-5-89-9-29-31-44-68-44" id="ac"/><path fill="#333" d="M60-376c0-114 86-173 209-171 58 0 109 11 154 34v109c-32-30-85-45-159-45-43 0-64 18-64 53 0 18 22 34 66 47 119 36 188 67 188 191 0 114-73 171-220 171-60 0-115-16-164-49v-115c43 43 93 64 150 64 47 0 79-8 87-42 15-60-182-101-183-115-43-29-64-73-64-132" id="ad"/><g id="v"><use transform="matrix(0.017777777777777778,0,0,0.017777777777777778,0,0)" xlink:href="#ab"/><use transform="matrix(0.017777777777777778,0,0,0.017777777777777778,11.502222222222223,0)" xlink:href="#ac"/><use transform="matrix(0.017777777777777778,0,0,0.017777777777777778,21.68888888888889,0)" xlink:href="#ad"/></g></defs></g></svg>